%TF.GenerationSoftware,KiCad,Pcbnew,7.0.7*%
%TF.CreationDate,2023-09-08T00:35:22+02:00*%
%TF.ProjectId,DMX-ArtNET-Gateway,444d582d-4172-4744-9e45-542d47617465,v01*%
%TF.SameCoordinates,Original*%
%TF.FileFunction,Copper,L1,Top*%
%TF.FilePolarity,Positive*%
%FSLAX46Y46*%
G04 Gerber Fmt 4.6, Leading zero omitted, Abs format (unit mm)*
G04 Created by KiCad (PCBNEW 7.0.7) date 2023-09-08 00:35:22*
%MOMM*%
%LPD*%
G01*
G04 APERTURE LIST*
G04 Aperture macros list*
%AMRoundRect*
0 Rectangle with rounded corners*
0 $1 Rounding radius*
0 $2 $3 $4 $5 $6 $7 $8 $9 X,Y pos of 4 corners*
0 Add a 4 corners polygon primitive as box body*
4,1,4,$2,$3,$4,$5,$6,$7,$8,$9,$2,$3,0*
0 Add four circle primitives for the rounded corners*
1,1,$1+$1,$2,$3*
1,1,$1+$1,$4,$5*
1,1,$1+$1,$6,$7*
1,1,$1+$1,$8,$9*
0 Add four rect primitives between the rounded corners*
20,1,$1+$1,$2,$3,$4,$5,0*
20,1,$1+$1,$4,$5,$6,$7,0*
20,1,$1+$1,$6,$7,$8,$9,0*
20,1,$1+$1,$8,$9,$2,$3,0*%
G04 Aperture macros list end*
%TA.AperFunction,ComponentPad*%
%ADD10R,1.700000X1.700000*%
%TD*%
%TA.AperFunction,ComponentPad*%
%ADD11O,1.700000X1.700000*%
%TD*%
%TA.AperFunction,SMDPad,CuDef*%
%ADD12RoundRect,0.250000X-0.475000X0.250000X-0.475000X-0.250000X0.475000X-0.250000X0.475000X0.250000X0*%
%TD*%
%TA.AperFunction,SMDPad,CuDef*%
%ADD13RoundRect,0.250000X0.475000X-0.250000X0.475000X0.250000X-0.475000X0.250000X-0.475000X-0.250000X0*%
%TD*%
%TA.AperFunction,SMDPad,CuDef*%
%ADD14RoundRect,0.250000X0.250000X0.475000X-0.250000X0.475000X-0.250000X-0.475000X0.250000X-0.475000X0*%
%TD*%
%TA.AperFunction,SMDPad,CuDef*%
%ADD15RoundRect,0.250000X0.450000X-0.262500X0.450000X0.262500X-0.450000X0.262500X-0.450000X-0.262500X0*%
%TD*%
%TA.AperFunction,SMDPad,CuDef*%
%ADD16RoundRect,0.250000X-0.262500X-0.450000X0.262500X-0.450000X0.262500X0.450000X-0.262500X0.450000X0*%
%TD*%
%TA.AperFunction,SMDPad,CuDef*%
%ADD17RoundRect,0.250000X-0.450000X0.262500X-0.450000X-0.262500X0.450000X-0.262500X0.450000X0.262500X0*%
%TD*%
%TA.AperFunction,SMDPad,CuDef*%
%ADD18R,2.000000X1.500000*%
%TD*%
%TA.AperFunction,SMDPad,CuDef*%
%ADD19R,2.000000X3.800000*%
%TD*%
%TA.AperFunction,SMDPad,CuDef*%
%ADD20R,0.900000X1.500000*%
%TD*%
%TA.AperFunction,SMDPad,CuDef*%
%ADD21R,1.500000X0.900000*%
%TD*%
%TA.AperFunction,SMDPad,CuDef*%
%ADD22R,0.900000X0.900000*%
%TD*%
%TA.AperFunction,HeatsinkPad*%
%ADD23C,0.600000*%
%TD*%
%TA.AperFunction,SMDPad,CuDef*%
%ADD24R,3.800000X3.800000*%
%TD*%
%TA.AperFunction,SMDPad,CuDef*%
%ADD25RoundRect,0.243750X-0.243750X-0.456250X0.243750X-0.456250X0.243750X0.456250X-0.243750X0.456250X0*%
%TD*%
%TA.AperFunction,SMDPad,CuDef*%
%ADD26RoundRect,0.250000X0.262500X0.450000X-0.262500X0.450000X-0.262500X-0.450000X0.262500X-0.450000X0*%
%TD*%
%TA.AperFunction,ComponentPad*%
%ADD27C,3.400000*%
%TD*%
%TA.AperFunction,ComponentPad*%
%ADD28C,2.900000*%
%TD*%
%TA.AperFunction,SMDPad,CuDef*%
%ADD29RoundRect,0.041300X-0.943700X-0.253700X0.943700X-0.253700X0.943700X0.253700X-0.943700X0.253700X0*%
%TD*%
%TA.AperFunction,SMDPad,CuDef*%
%ADD30RoundRect,0.243750X0.456250X-0.243750X0.456250X0.243750X-0.456250X0.243750X-0.456250X-0.243750X0*%
%TD*%
%TA.AperFunction,SMDPad,CuDef*%
%ADD31RoundRect,0.250000X-0.250000X-0.475000X0.250000X-0.475000X0.250000X0.475000X-0.250000X0.475000X0*%
%TD*%
%TA.AperFunction,ComponentPad*%
%ADD32R,2.600000X2.600000*%
%TD*%
%TA.AperFunction,ComponentPad*%
%ADD33C,2.600000*%
%TD*%
%TA.AperFunction,SMDPad,CuDef*%
%ADD34RoundRect,0.243750X0.243750X0.456250X-0.243750X0.456250X-0.243750X-0.456250X0.243750X-0.456250X0*%
%TD*%
%TA.AperFunction,ViaPad*%
%ADD35C,0.600000*%
%TD*%
%TA.AperFunction,Conductor*%
%ADD36C,0.400000*%
%TD*%
G04 APERTURE END LIST*
D10*
%TO.P,J5,1,Pin_1*%
%TO.N,+5V*%
X147320000Y-116840000D03*
D11*
%TO.P,J5,2,Pin_2*%
%TO.N,TX*%
X144780000Y-116840000D03*
%TO.P,J5,3,Pin_3*%
%TO.N,RX*%
X142240000Y-116840000D03*
%TO.P,J5,4,Pin_4*%
%TO.N,GND*%
X139700000Y-116840000D03*
%TD*%
D12*
%TO.P,C5,1*%
%TO.N,+3.3V*%
X118110000Y-123510000D03*
%TO.P,C5,2*%
%TO.N,GND*%
X118110000Y-125410000D03*
%TD*%
D13*
%TO.P,C2,1*%
%TO.N,+3.3V*%
X147320000Y-131760000D03*
%TO.P,C2,2*%
%TO.N,GND*%
X147320000Y-129860000D03*
%TD*%
D14*
%TO.P,C1,1*%
%TO.N,+5V*%
X154940000Y-125580000D03*
%TO.P,C1,2*%
%TO.N,GND*%
X153040000Y-125580000D03*
%TD*%
D10*
%TO.P,J1,1,Pin_1*%
%TO.N,IO5*%
X139700000Y-86360000D03*
D11*
%TO.P,J1,2,Pin_2*%
%TO.N,IO12*%
X142240000Y-86360000D03*
%TO.P,J1,3,Pin_3*%
%TO.N,IO13*%
X144780000Y-86360000D03*
%TO.P,J1,4,Pin_4*%
%TO.N,IO14*%
X147320000Y-86360000D03*
%TO.P,J1,5,Pin_5*%
%TO.N,IO15*%
X149860000Y-86360000D03*
%TO.P,J1,6,Pin_6*%
%TO.N,IO21*%
X152400000Y-86360000D03*
%TO.P,J1,7,Pin_7*%
%TO.N,IO22*%
X154940000Y-86360000D03*
%TO.P,J1,8,Pin_8*%
%TO.N,IO23*%
X157480000Y-86360000D03*
%TO.P,J1,9,Pin_9*%
%TO.N,IO25*%
X160020000Y-86360000D03*
%TO.P,J1,10,Pin_10*%
%TO.N,IO26*%
X162560000Y-86360000D03*
%TD*%
D15*
%TO.P,R11,1*%
%TO.N,DMX_1_B*%
X182880000Y-89812500D03*
%TO.P,R11,2*%
%TO.N,DMX_1_A*%
X182880000Y-87987500D03*
%TD*%
D16*
%TO.P,R22,1*%
%TO.N,+5V*%
X151845000Y-120470000D03*
%TO.P,R22,2*%
%TO.N,IO19*%
X153670000Y-120470000D03*
%TD*%
%TO.P,R21,1*%
%TO.N,+5V*%
X151845000Y-117960000D03*
%TO.P,R21,2*%
%TO.N,IO21*%
X153670000Y-117960000D03*
%TD*%
D17*
%TO.P,R15,1*%
%TO.N,+5V*%
X167640000Y-114507500D03*
%TO.P,R15,2*%
%TO.N,DMX_2_B*%
X167640000Y-116332500D03*
%TD*%
D16*
%TO.P,R1,1*%
%TO.N,Net-(D1-K)*%
X176887500Y-132080000D03*
%TO.P,R1,2*%
%TO.N,GND*%
X178712500Y-132080000D03*
%TD*%
D17*
%TO.P,R13,1*%
%TO.N,+5V*%
X167640000Y-96242500D03*
%TO.P,R13,2*%
%TO.N,DMX_1_B*%
X167640000Y-98067500D03*
%TD*%
D18*
%TO.P,U1,1,GND*%
%TO.N,GND*%
X157480000Y-132960000D03*
%TO.P,U1,2,VO*%
%TO.N,+3.3V*%
X157480000Y-130660000D03*
D19*
X151180000Y-130660000D03*
D18*
%TO.P,U1,3,VI*%
%TO.N,+5V*%
X157480000Y-128360000D03*
%TD*%
D20*
%TO.P,U2,1,GND*%
%TO.N,GND*%
X118140000Y-120260000D03*
%TO.P,U2,2,VDD*%
%TO.N,+3.3V*%
X119410000Y-120260000D03*
%TO.P,U2,3,EN*%
%TO.N,Net-(U2-EN)*%
X120680000Y-120260000D03*
%TO.P,U2,4,SENSOR_VP*%
%TO.N,unconnected-(U2-SENSOR_VP-Pad4)*%
X121950000Y-120260000D03*
%TO.P,U2,5,SENSOR_VN*%
%TO.N,unconnected-(U2-SENSOR_VN-Pad5)*%
X123220000Y-120260000D03*
%TO.P,U2,6,IO34*%
%TO.N,unconnected-(U2-IO34-Pad6)*%
X124490000Y-120260000D03*
%TO.P,U2,7,IO35*%
%TO.N,unconnected-(U2-IO35-Pad7)*%
X125760000Y-120260000D03*
%TO.P,U2,8,IO32*%
%TO.N,unconnected-(U2-IO32-Pad8)*%
X127030000Y-120260000D03*
%TO.P,U2,9,IO33*%
%TO.N,unconnected-(U2-IO33-Pad9)*%
X128300000Y-120260000D03*
%TO.P,U2,10,IO25*%
%TO.N,IO25*%
X129570000Y-120260000D03*
%TO.P,U2,11,IO26*%
%TO.N,IO26*%
X130840000Y-120260000D03*
%TO.P,U2,12,IO27*%
%TO.N,unconnected-(U2-IO27-Pad12)*%
X132110000Y-120260000D03*
%TO.P,U2,13,IO14*%
%TO.N,IO14*%
X133380000Y-120260000D03*
%TO.P,U2,14,IO12*%
%TO.N,IO12*%
X134650000Y-120260000D03*
D21*
%TO.P,U2,15,GND*%
%TO.N,GND*%
X135900000Y-117220000D03*
%TO.P,U2,16,IO13*%
%TO.N,IO13*%
X135900000Y-115950000D03*
%TO.P,U2,17,SHD/SD2*%
%TO.N,unconnected-(U2-SHD{slash}SD2-Pad17)*%
X135900000Y-114680000D03*
%TO.P,U2,18,SWP/SD3*%
%TO.N,unconnected-(U2-SWP{slash}SD3-Pad18)*%
X135900000Y-113410000D03*
%TO.P,U2,19,SCS/CMD*%
%TO.N,unconnected-(U2-SCS{slash}CMD-Pad19)*%
X135900000Y-112140000D03*
%TO.P,U2,20,SCK/CLK*%
%TO.N,unconnected-(U2-SCK{slash}CLK-Pad20)*%
X135900000Y-110870000D03*
%TO.P,U2,21,SDO/SD0*%
%TO.N,unconnected-(U2-SDO{slash}SD0-Pad21)*%
X135900000Y-109600000D03*
%TO.P,U2,22,SDI/SD1*%
%TO.N,unconnected-(U2-SDI{slash}SD1-Pad22)*%
X135900000Y-108330000D03*
%TO.P,U2,23,IO15*%
%TO.N,IO15*%
X135900000Y-107060000D03*
%TO.P,U2,24,IO2*%
%TO.N,IO2*%
X135900000Y-105790000D03*
D20*
%TO.P,U2,25,IO0*%
%TO.N,unconnected-(U2-IO0-Pad25)*%
X134650000Y-102760000D03*
%TO.P,U2,26,IO4*%
%TO.N,IO4*%
X133380000Y-102760000D03*
%TO.P,U2,27,IO16*%
%TO.N,IO16*%
X132110000Y-102760000D03*
%TO.P,U2,28,IO17*%
%TO.N,IO17*%
X130840000Y-102760000D03*
%TO.P,U2,29,IO5*%
%TO.N,IO5*%
X129570000Y-102760000D03*
%TO.P,U2,30,IO18*%
%TO.N,IO18*%
X128300000Y-102760000D03*
%TO.P,U2,31,IO19*%
%TO.N,IO19*%
X127030000Y-102760000D03*
%TO.P,U2,32,NC*%
%TO.N,unconnected-(U2-NC-Pad32)*%
X125760000Y-102760000D03*
%TO.P,U2,33,IO21*%
%TO.N,IO21*%
X124490000Y-102760000D03*
%TO.P,U2,34,RXD0/IO3*%
%TO.N,RX*%
X123220000Y-102760000D03*
%TO.P,U2,35,TXD0/IO1*%
%TO.N,TX*%
X121950000Y-102760000D03*
%TO.P,U2,36,IO22*%
%TO.N,IO22*%
X120680000Y-102760000D03*
%TO.P,U2,37,IO23*%
%TO.N,IO23*%
X119410000Y-102760000D03*
%TO.P,U2,38,GND*%
%TO.N,GND*%
X118140000Y-102760000D03*
D22*
%TO.P,U2,39,GND*%
X124460000Y-114410000D03*
D23*
X125160000Y-114410000D03*
D22*
X125860000Y-114410000D03*
D23*
X126560000Y-114410000D03*
D22*
X127260000Y-114410000D03*
D23*
X124460000Y-113710000D03*
X125860000Y-113710000D03*
X127260000Y-113710000D03*
X125160000Y-113035000D03*
X126560000Y-113035000D03*
D22*
X124460000Y-113010000D03*
X125860000Y-113010000D03*
D24*
X125860000Y-113010000D03*
D22*
X127260000Y-113010000D03*
D23*
X124460000Y-112310000D03*
X125860000Y-112310000D03*
X127260000Y-112310000D03*
D22*
X124460000Y-111610000D03*
D23*
X125160000Y-111610000D03*
D22*
X125860000Y-111610000D03*
D23*
X126560000Y-111610000D03*
D22*
X127260000Y-111610000D03*
%TD*%
D25*
%TO.P,D3,1,K*%
%TO.N,GND*%
X163225000Y-132125000D03*
%TO.P,D3,2,A*%
%TO.N,Net-(D3-A)*%
X165100000Y-132125000D03*
%TD*%
D26*
%TO.P,R2,1*%
%TO.N,+3.3V*%
X169410000Y-127000000D03*
%TO.P,R2,2*%
%TO.N,Net-(D2-A)*%
X167585000Y-127000000D03*
%TD*%
%TO.P,R3,1*%
%TO.N,+5V*%
X169410000Y-132080000D03*
%TO.P,R3,2*%
%TO.N,Net-(D3-A)*%
X167585000Y-132080000D03*
%TD*%
D27*
%TO.P,J3,1*%
%TO.N,GND*%
X191770000Y-117960000D03*
%TO.P,J3,2*%
%TO.N,DMX_2_B*%
X191135000Y-125580000D03*
D28*
%TO.P,J3,3*%
%TO.N,DMX_2_A*%
X187320000Y-121770000D03*
%TO.P,J3,G*%
%TO.N,GND*%
X197490000Y-113520000D03*
%TD*%
D25*
%TO.P,D8,1,K*%
%TO.N,IO19*%
X173052500Y-127000000D03*
%TO.P,D8,2,A*%
%TO.N,Net-(D8-A)*%
X174927500Y-127000000D03*
%TD*%
D17*
%TO.P,R16,1*%
%TO.N,DMX_2_A*%
X167640000Y-119587500D03*
%TO.P,R16,2*%
%TO.N,GND*%
X167640000Y-121412500D03*
%TD*%
D29*
%TO.P,U3,1,RO*%
%TO.N,IO16*%
X157545000Y-97790000D03*
%TO.P,U3,2,~{RE}*%
%TO.N,IO4*%
X157545000Y-99060000D03*
%TO.P,U3,3,DE*%
X157545000Y-100330000D03*
%TO.P,U3,4,DI*%
%TO.N,IO17*%
X157545000Y-101600000D03*
%TO.P,U3,5,GND*%
%TO.N,GND*%
X162495000Y-101600000D03*
%TO.P,U3,6,A*%
%TO.N,DMX_1_A*%
X162495000Y-100330000D03*
%TO.P,U3,7,B*%
%TO.N,DMX_1_B*%
X162495000Y-99060000D03*
%TO.P,U3,8,VCC*%
%TO.N,+5V*%
X162495000Y-97790000D03*
%TD*%
D30*
%TO.P,D4,1,K*%
%TO.N,TX*%
X139700000Y-97125000D03*
%TO.P,D4,2,A*%
%TO.N,Net-(D4-A)*%
X139700000Y-95250000D03*
%TD*%
D26*
%TO.P,R8,1*%
%TO.N,+3.3V*%
X178712500Y-127000000D03*
%TO.P,R8,2*%
%TO.N,Net-(D8-A)*%
X176887500Y-127000000D03*
%TD*%
D17*
%TO.P,R14,1*%
%TO.N,DMX_1_A*%
X167640000Y-101322500D03*
%TO.P,R14,2*%
%TO.N,GND*%
X167640000Y-103147500D03*
%TD*%
D26*
%TO.P,R9,1*%
%TO.N,+3.3V*%
X178712500Y-121920000D03*
%TO.P,R9,2*%
%TO.N,Net-(D9-A)*%
X176887500Y-121920000D03*
%TD*%
D17*
%TO.P,R5,1*%
%TO.N,+3.3V*%
X144780000Y-91465000D03*
%TO.P,R5,2*%
%TO.N,Net-(D5-A)*%
X144780000Y-93290000D03*
%TD*%
D16*
%TO.P,R19,1*%
%TO.N,+5V*%
X151845000Y-97155000D03*
%TO.P,R19,2*%
%TO.N,IO16*%
X153670000Y-97155000D03*
%TD*%
D17*
%TO.P,R4,1*%
%TO.N,+3.3V*%
X139700000Y-91465000D03*
%TO.P,R4,2*%
%TO.N,Net-(D4-A)*%
X139700000Y-93290000D03*
%TD*%
D16*
%TO.P,R20,1*%
%TO.N,+5V*%
X151845000Y-115450000D03*
%TO.P,R20,2*%
%TO.N,IO18*%
X153670000Y-115450000D03*
%TD*%
D31*
%TO.P,C4,1*%
%TO.N,+5V*%
X157800000Y-125410000D03*
%TO.P,C4,2*%
%TO.N,GND*%
X159700000Y-125410000D03*
%TD*%
D12*
%TO.P,C3,1*%
%TO.N,+3.3V*%
X147320000Y-126050000D03*
%TO.P,C3,2*%
%TO.N,GND*%
X147320000Y-127950000D03*
%TD*%
D16*
%TO.P,R17,1*%
%TO.N,+5V*%
X151845000Y-102235000D03*
%TO.P,R17,2*%
%TO.N,IO17*%
X153670000Y-102235000D03*
%TD*%
D32*
%TO.P,J4,1*%
%TO.N,+5V*%
X130430000Y-93980000D03*
D33*
%TO.P,J4,2*%
%TO.N,GND*%
X130430000Y-87980000D03*
%TO.P,J4,3*%
%TO.N,N/C*%
X125730000Y-90980000D03*
%TD*%
D12*
%TO.P,C6,1*%
%TO.N,Net-(U2-EN)*%
X120650000Y-123510000D03*
%TO.P,C6,2*%
%TO.N,GND*%
X120650000Y-125410000D03*
%TD*%
D26*
%TO.P,R10,1*%
%TO.N,+3.3V*%
X125372500Y-123190000D03*
%TO.P,R10,2*%
%TO.N,Net-(U2-EN)*%
X123547500Y-123190000D03*
%TD*%
D34*
%TO.P,D1,1,K*%
%TO.N,Net-(D1-K)*%
X174927500Y-132080000D03*
%TO.P,D1,2,A*%
%TO.N,IO2*%
X173052500Y-132080000D03*
%TD*%
D29*
%TO.P,U4,1,RO*%
%TO.N,IO18*%
X157545000Y-116055000D03*
%TO.P,U4,2,~{RE}*%
%TO.N,IO21*%
X157545000Y-117325000D03*
%TO.P,U4,3,DE*%
X157545000Y-118595000D03*
%TO.P,U4,4,DI*%
%TO.N,IO19*%
X157545000Y-119865000D03*
%TO.P,U4,5,GND*%
%TO.N,GND*%
X162495000Y-119865000D03*
%TO.P,U4,6,A*%
%TO.N,DMX_2_A*%
X162495000Y-118595000D03*
%TO.P,U4,7,B*%
%TO.N,DMX_2_B*%
X162495000Y-117325000D03*
%TO.P,U4,8,VCC*%
%TO.N,+5V*%
X162495000Y-116055000D03*
%TD*%
D25*
%TO.P,D9,1,K*%
%TO.N,IO18*%
X173052500Y-121920000D03*
%TO.P,D9,2,A*%
%TO.N,Net-(D9-A)*%
X174927500Y-121920000D03*
%TD*%
%TO.P,D6,1,K*%
%TO.N,IO17*%
X173052500Y-96520000D03*
%TO.P,D6,2,A*%
%TO.N,Net-(D6-A)*%
X174927500Y-96520000D03*
%TD*%
%TO.P,D2,1,K*%
%TO.N,GND*%
X163170000Y-127000000D03*
%TO.P,D2,2,A*%
%TO.N,Net-(D2-A)*%
X165045000Y-127000000D03*
%TD*%
D30*
%TO.P,D5,1,K*%
%TO.N,RX*%
X144780000Y-97125000D03*
%TO.P,D5,2,A*%
%TO.N,Net-(D5-A)*%
X144780000Y-95250000D03*
%TD*%
D26*
%TO.P,R7,1*%
%TO.N,+3.3V*%
X178712500Y-91440000D03*
%TO.P,R7,2*%
%TO.N,Net-(D7-A)*%
X176887500Y-91440000D03*
%TD*%
D16*
%TO.P,R18,1*%
%TO.N,+5V*%
X151845000Y-99695000D03*
%TO.P,R18,2*%
%TO.N,IO4*%
X153670000Y-99695000D03*
%TD*%
D15*
%TO.P,R12,1*%
%TO.N,DMX_2_B*%
X182880000Y-115212500D03*
%TO.P,R12,2*%
%TO.N,DMX_2_A*%
X182880000Y-113387500D03*
%TD*%
D25*
%TO.P,D7,1,K*%
%TO.N,IO16*%
X173052500Y-91440000D03*
%TO.P,D7,2,A*%
%TO.N,Net-(D7-A)*%
X174927500Y-91440000D03*
%TD*%
D26*
%TO.P,R6,1*%
%TO.N,+3.3V*%
X178712500Y-96520000D03*
%TO.P,R6,2*%
%TO.N,Net-(D6-A)*%
X176887500Y-96520000D03*
%TD*%
D27*
%TO.P,J2,1*%
%TO.N,GND*%
X191770000Y-91440000D03*
%TO.P,J2,2*%
%TO.N,DMX_1_B*%
X191135000Y-99060000D03*
D28*
%TO.P,J2,3*%
%TO.N,DMX_1_A*%
X187320000Y-95250000D03*
%TO.P,J2,G*%
%TO.N,GND*%
X197490000Y-87000000D03*
%TD*%
D35*
%TO.N,IO22*%
X127789400Y-94748300D03*
%TO.N,TX*%
X140356100Y-98210300D03*
%TO.N,RX*%
X139372400Y-99353600D03*
%TO.N,IO5*%
X130441800Y-100847600D03*
%TO.N,IO15*%
X145838600Y-106867000D03*
%TO.N,IO13*%
X140574700Y-110936000D03*
%TO.N,IO12*%
X135113100Y-118846000D03*
%TO.N,IO14*%
X132952600Y-115123000D03*
X141283300Y-87271200D03*
%TO.N,IO26*%
X151078700Y-110174700D03*
%TO.N,IO25*%
X143621400Y-118445800D03*
%TO.N,IO19*%
X152231600Y-119105700D03*
X137397100Y-118251500D03*
%TO.N,IO21*%
X150797000Y-116049000D03*
X148080200Y-99886900D03*
%TO.N,IO16*%
X136367500Y-94488300D03*
X132602600Y-101453900D03*
%TO.N,DMX_2_A*%
X186977600Y-117723900D03*
%TO.N,+5V*%
X150139200Y-100000300D03*
X150139200Y-102775400D03*
%TO.N,GND*%
X162090400Y-126929400D03*
X117882700Y-104151200D03*
X118058100Y-121756000D03*
X180714500Y-132832600D03*
X160850100Y-125142400D03*
X119380000Y-125254900D03*
X137249800Y-117213400D03*
X162117900Y-132158100D03*
X163967800Y-101233000D03*
X147308500Y-128905000D03*
X153990000Y-125616800D03*
X162977300Y-121331100D03*
X169354400Y-121571200D03*
X167876300Y-104226700D03*
X156033400Y-132859200D03*
%TD*%
D36*
%TO.N,IO23*%
X119410000Y-102760000D02*
X119410000Y-101610000D01*
X157480000Y-86360000D02*
X156230000Y-86360000D01*
X156230000Y-86748500D02*
X156230000Y-86360000D01*
X155078400Y-87900100D02*
X156230000Y-86748500D01*
X133119900Y-87900100D02*
X155078400Y-87900100D01*
X119410000Y-101610000D02*
X133119900Y-87900100D01*
%TO.N,IO22*%
X120680000Y-102760000D02*
X120680000Y-101610000D01*
X120927700Y-101610000D02*
X120680000Y-101610000D01*
X127789400Y-94748300D02*
X120927700Y-101610000D01*
%TO.N,TX*%
X121950000Y-102760000D02*
X121950000Y-101610000D01*
X126005800Y-97554200D02*
X121950000Y-101610000D01*
X139700000Y-97554200D02*
X126005800Y-97554200D01*
X139700000Y-97125000D02*
X139700000Y-97554200D01*
X139700000Y-97554200D02*
X140356100Y-98210300D01*
%TO.N,RX*%
X123220000Y-102760000D02*
X123220000Y-101610000D01*
X142551400Y-99353600D02*
X144780000Y-97125000D01*
X139372400Y-99353600D02*
X142551400Y-99353600D01*
X125476400Y-99353600D02*
X123220000Y-101610000D01*
X139372400Y-99353600D02*
X125476400Y-99353600D01*
%TO.N,IO5*%
X129679400Y-101610000D02*
X130441800Y-100847600D01*
X129570000Y-101610000D02*
X129679400Y-101610000D01*
X129570000Y-102760000D02*
X129570000Y-101610000D01*
%TO.N,IO2*%
X147583400Y-105790000D02*
X135900000Y-105790000D01*
X151718700Y-109925300D02*
X147583400Y-105790000D01*
X151718700Y-110427200D02*
X151718700Y-109925300D01*
X148400600Y-113745300D02*
X151718700Y-110427200D01*
X148246800Y-113745300D02*
X148400600Y-113745300D01*
X146118600Y-115873500D02*
X148246800Y-113745300D01*
X146118600Y-120212800D02*
X146118600Y-115873500D01*
X155344700Y-129438900D02*
X146118600Y-120212800D01*
X158498400Y-129438900D02*
X155344700Y-129438900D01*
X162244200Y-133184700D02*
X158498400Y-129438900D01*
X171947800Y-133184700D02*
X162244200Y-133184700D01*
X173052500Y-132080000D02*
X171947800Y-133184700D01*
%TO.N,IO15*%
X145645600Y-107060000D02*
X145838600Y-106867000D01*
X135900000Y-107060000D02*
X145645600Y-107060000D01*
%TO.N,IO13*%
X135900000Y-115950000D02*
X137050000Y-115950000D01*
X137050000Y-114460700D02*
X140574700Y-110936000D01*
X137050000Y-115950000D02*
X137050000Y-114460700D01*
%TO.N,IO12*%
X134650000Y-120260000D02*
X134650000Y-119110000D01*
X134849100Y-119110000D02*
X135113100Y-118846000D01*
X134650000Y-119110000D02*
X134849100Y-119110000D01*
%TO.N,IO14*%
X133380000Y-115550400D02*
X132952600Y-115123000D01*
X133380000Y-120260000D02*
X133380000Y-115550400D01*
X141061100Y-87049000D02*
X141283300Y-87271200D01*
X141061100Y-85832100D02*
X141061100Y-87049000D01*
X141745600Y-85147600D02*
X141061100Y-85832100D01*
X145298300Y-85147600D02*
X141745600Y-85147600D01*
X146070000Y-85919300D02*
X145298300Y-85147600D01*
X146070000Y-86360000D02*
X146070000Y-85919300D01*
X147320000Y-86360000D02*
X146070000Y-86360000D01*
%TO.N,IO26*%
X130840000Y-120698600D02*
X130840000Y-120260000D01*
X131480300Y-121338900D02*
X130840000Y-120698600D01*
X136884300Y-121338900D02*
X131480300Y-121338900D01*
X141061100Y-117162100D02*
X136884300Y-121338900D01*
X141061100Y-116351600D02*
X141061100Y-117162100D01*
X147238000Y-110174700D02*
X141061100Y-116351600D01*
X151078700Y-110174700D02*
X147238000Y-110174700D01*
%TO.N,IO25*%
X129570000Y-120260000D02*
X129570000Y-121410000D01*
X140190100Y-121877100D02*
X143621400Y-118445800D01*
X130037100Y-121877100D02*
X140190100Y-121877100D01*
X129570000Y-121410000D02*
X130037100Y-121877100D01*
%TO.N,IO19*%
X160458400Y-122778400D02*
X157545000Y-119865000D01*
X168830900Y-122778400D02*
X160458400Y-122778400D01*
X173052500Y-127000000D02*
X168830900Y-122778400D01*
X127030000Y-105659900D02*
X127030000Y-102760000D01*
X134168000Y-112797900D02*
X127030000Y-105659900D01*
X134168000Y-117176800D02*
X134168000Y-112797900D01*
X135208200Y-118217000D02*
X134168000Y-117176800D01*
X137362600Y-118217000D02*
X135208200Y-118217000D01*
X137397100Y-118251500D02*
X137362600Y-118217000D01*
X156940000Y-120470000D02*
X157545000Y-119865000D01*
X153670000Y-120470000D02*
X156940000Y-120470000D01*
X152305700Y-119105700D02*
X152231600Y-119105700D01*
X153670000Y-120470000D02*
X152305700Y-119105700D01*
%TO.N,IO21*%
X157545000Y-118595000D02*
X157545000Y-117960000D01*
X157545000Y-117960000D02*
X157545000Y-117325000D01*
X157545000Y-117960000D02*
X153670000Y-117960000D01*
X151274000Y-116526000D02*
X150797000Y-116049000D01*
X152236000Y-116526000D02*
X151274000Y-116526000D01*
X153670000Y-117960000D02*
X152236000Y-116526000D01*
X147771300Y-100195800D02*
X148080200Y-99886900D01*
X125904200Y-100195800D02*
X147771300Y-100195800D01*
X124490000Y-101610000D02*
X125904200Y-100195800D01*
X124490000Y-102760000D02*
X124490000Y-101610000D01*
%TO.N,IO18*%
X156940000Y-115450000D02*
X157545000Y-116055000D01*
X153670000Y-115450000D02*
X156940000Y-115450000D01*
X171573000Y-120440500D02*
X173052500Y-121920000D01*
X165312700Y-120440500D02*
X171573000Y-120440500D01*
X164102200Y-119230000D02*
X165312700Y-120440500D01*
X161392200Y-119230000D02*
X164102200Y-119230000D01*
X161161400Y-118999200D02*
X161392200Y-119230000D01*
X161161400Y-116690000D02*
X161161400Y-118999200D01*
X160526400Y-116055000D02*
X161161400Y-116690000D01*
X157545000Y-116055000D02*
X160526400Y-116055000D01*
X128300000Y-102760000D02*
X128300000Y-103910000D01*
X164892700Y-116690000D02*
X161161400Y-116690000D01*
X166162700Y-115420000D02*
X164892700Y-116690000D01*
X168276000Y-115420000D02*
X166162700Y-115420000D01*
X168688400Y-115007600D02*
X168276000Y-115420000D01*
X168688400Y-113976800D02*
X168688400Y-115007600D01*
X159722700Y-105011100D02*
X168688400Y-113976800D01*
X129401100Y-105011100D02*
X159722700Y-105011100D01*
X128300000Y-103910000D02*
X129401100Y-105011100D01*
%TO.N,IO16*%
X163895000Y-91440000D02*
X157545000Y-97790000D01*
X173052500Y-91440000D02*
X163895000Y-91440000D01*
X132446500Y-101610000D02*
X132110000Y-101610000D01*
X132602600Y-101453900D02*
X132446500Y-101610000D01*
X132110000Y-102760000D02*
X132110000Y-101610000D01*
X156910000Y-97155000D02*
X153670000Y-97155000D01*
X157545000Y-97790000D02*
X156910000Y-97155000D01*
X138412300Y-92443500D02*
X136367500Y-94488300D01*
X148958500Y-92443500D02*
X138412300Y-92443500D01*
X153670000Y-97155000D02*
X148958500Y-92443500D01*
%TO.N,IO4*%
X157545000Y-100330000D02*
X157545000Y-99695000D01*
X157545000Y-99695000D02*
X157545000Y-99060000D01*
X157545000Y-99695000D02*
X153670000Y-99695000D01*
X134137600Y-100852400D02*
X133380000Y-101610000D01*
X152512600Y-100852400D02*
X134137600Y-100852400D01*
X153670000Y-99695000D02*
X152512600Y-100852400D01*
X133380000Y-102760000D02*
X133380000Y-101610000D01*
%TO.N,IO17*%
X130840000Y-102760000D02*
X130840000Y-103910000D01*
X151995000Y-103910000D02*
X130840000Y-103910000D01*
X153670000Y-102235000D02*
X151995000Y-103910000D01*
X158178900Y-101600000D02*
X157545000Y-101600000D01*
X161353900Y-98425000D02*
X158178900Y-101600000D01*
X163581200Y-98425000D02*
X161353900Y-98425000D01*
X164851200Y-97155000D02*
X163581200Y-98425000D01*
X172417500Y-97155000D02*
X164851200Y-97155000D01*
X173052500Y-96520000D02*
X172417500Y-97155000D01*
X156910000Y-102235000D02*
X153670000Y-102235000D01*
X157545000Y-101600000D02*
X156910000Y-102235000D01*
%TO.N,DMX_2_A*%
X166647500Y-118595000D02*
X162495000Y-118595000D01*
X167640000Y-119587500D02*
X166647500Y-118595000D01*
X185137500Y-119587500D02*
X167640000Y-119587500D01*
X187320000Y-121770000D02*
X185137500Y-119587500D01*
X186977600Y-117485100D02*
X182880000Y-113387500D01*
X186977600Y-117723900D02*
X186977600Y-117485100D01*
%TO.N,DMX_2_B*%
X183333600Y-115212500D02*
X182880000Y-115212500D01*
X191135000Y-123013900D02*
X183333600Y-115212500D01*
X191135000Y-125580000D02*
X191135000Y-123013900D01*
X181760000Y-116332500D02*
X167640000Y-116332500D01*
X182880000Y-115212500D02*
X181760000Y-116332500D01*
X166647500Y-117325000D02*
X167640000Y-116332500D01*
X162495000Y-117325000D02*
X166647500Y-117325000D01*
%TO.N,DMX_1_A*%
X166647500Y-100330000D02*
X167640000Y-101322500D01*
X162495000Y-100330000D02*
X166647500Y-100330000D01*
X187320000Y-92427500D02*
X187320000Y-95250000D01*
X182880000Y-87987500D02*
X187320000Y-92427500D01*
X181247500Y-101322500D02*
X167640000Y-101322500D01*
X187320000Y-95250000D02*
X181247500Y-101322500D01*
%TO.N,DMX_1_B*%
X166647500Y-99060000D02*
X167640000Y-98067500D01*
X162495000Y-99060000D02*
X166647500Y-99060000D01*
X178254700Y-93472600D02*
X182395700Y-89331600D01*
X176400500Y-93472600D02*
X178254700Y-93472600D01*
X174050800Y-95822300D02*
X176400500Y-93472600D01*
X174050800Y-97048600D02*
X174050800Y-95822300D01*
X173031900Y-98067500D02*
X174050800Y-97048600D01*
X167640000Y-98067500D02*
X173031900Y-98067500D01*
X181775200Y-88711100D02*
X182395700Y-89331600D01*
X181775200Y-87527200D02*
X181775200Y-88711100D01*
X182164100Y-87138300D02*
X181775200Y-87527200D01*
X183636300Y-87138300D02*
X182164100Y-87138300D01*
X191135000Y-94637000D02*
X183636300Y-87138300D01*
X191135000Y-99060000D02*
X191135000Y-94637000D01*
X182876600Y-89812500D02*
X182880000Y-89812500D01*
X182395700Y-89331600D02*
X182876600Y-89812500D01*
%TO.N,Net-(D9-A)*%
X174927500Y-121920000D02*
X176887500Y-121920000D01*
%TO.N,Net-(D8-A)*%
X174927500Y-127000000D02*
X176887500Y-127000000D01*
%TO.N,Net-(D7-A)*%
X174927500Y-91440000D02*
X176887500Y-91440000D01*
%TO.N,Net-(D6-A)*%
X174927500Y-96520000D02*
X176887500Y-96520000D01*
%TO.N,Net-(D5-A)*%
X144780000Y-95250000D02*
X144780000Y-93290000D01*
%TO.N,Net-(D4-A)*%
X139700000Y-95250000D02*
X139700000Y-93290000D01*
%TO.N,Net-(D3-A)*%
X167540000Y-132125000D02*
X167585000Y-132080000D01*
X165100000Y-132125000D02*
X167540000Y-132125000D01*
%TO.N,Net-(D2-A)*%
X165045000Y-127000000D02*
X167585000Y-127000000D01*
%TO.N,Net-(D1-K)*%
X174927500Y-132080000D02*
X176887500Y-132080000D01*
%TO.N,Net-(U2-EN)*%
X120680000Y-120260000D02*
X120680000Y-121241800D01*
X120680000Y-121241800D02*
X120680000Y-123190000D01*
X120650000Y-123220000D02*
X120680000Y-123190000D01*
X120650000Y-123510000D02*
X120650000Y-123220000D01*
X120680000Y-123190000D02*
X123547500Y-123190000D01*
%TO.N,+5V*%
X164042500Y-96242500D02*
X167640000Y-96242500D01*
X162495000Y-97790000D02*
X164042500Y-96242500D01*
X147320000Y-116840000D02*
X148221400Y-116840000D01*
X152209400Y-97519400D02*
X152209400Y-98431300D01*
X151845000Y-97155000D02*
X152209400Y-97519400D01*
X152209400Y-99330600D02*
X151845000Y-99695000D01*
X152209400Y-98431300D02*
X152209400Y-99330600D01*
X159492800Y-97790000D02*
X162495000Y-97790000D01*
X158851500Y-98431300D02*
X159492800Y-97790000D01*
X152209400Y-98431300D02*
X158851500Y-98431300D01*
X157480000Y-128360000D02*
X157480000Y-128062200D01*
X157480000Y-128062200D02*
X157480000Y-127210000D01*
X165392200Y-128062200D02*
X169410000Y-132080000D01*
X157480000Y-128062200D02*
X165392200Y-128062200D01*
X151845000Y-117960000D02*
X151692200Y-117960000D01*
X157480000Y-127210000D02*
X157480000Y-125580000D01*
X157650000Y-125410000D02*
X157800000Y-125410000D01*
X157480000Y-125580000D02*
X157650000Y-125410000D01*
X157480000Y-125580000D02*
X154940000Y-125580000D01*
X154940000Y-123565000D02*
X151845000Y-120470000D01*
X154940000Y-125580000D02*
X154940000Y-123565000D01*
X151602700Y-120227700D02*
X151845000Y-120470000D01*
X151602700Y-118049500D02*
X151602700Y-120227700D01*
X151692200Y-117960000D02*
X151602700Y-118049500D01*
X149843900Y-116105000D02*
X149843900Y-116111700D01*
X150543600Y-115405300D02*
X149843900Y-116105000D01*
X151800300Y-115405300D02*
X150543600Y-115405300D01*
X151845000Y-115450000D02*
X151800300Y-115405300D01*
X149115600Y-116840000D02*
X149843900Y-116111700D01*
X148221400Y-116840000D02*
X149115600Y-116840000D01*
X164042500Y-114507500D02*
X167640000Y-114507500D01*
X162495000Y-116055000D02*
X164042500Y-114507500D01*
X152903600Y-114391400D02*
X151845000Y-115450000D01*
X160831400Y-114391400D02*
X152903600Y-114391400D01*
X162495000Y-116055000D02*
X160831400Y-114391400D01*
X151539700Y-100000300D02*
X151845000Y-99695000D01*
X150139200Y-100000300D02*
X151539700Y-100000300D01*
X151304600Y-102775400D02*
X151845000Y-102235000D01*
X150139200Y-102775400D02*
X151304600Y-102775400D01*
X150949800Y-117217600D02*
X151692200Y-117960000D01*
X150947800Y-117217600D02*
X150949800Y-117217600D01*
X150268100Y-116537900D02*
X150947800Y-117217600D01*
X150268100Y-116535900D02*
X150268100Y-116537900D01*
X149843900Y-116111700D02*
X150268100Y-116535900D01*
X146326400Y-96187500D02*
X150139200Y-100000300D01*
X134337500Y-96187500D02*
X146326400Y-96187500D01*
X132130000Y-93980000D02*
X134337500Y-96187500D01*
X130430000Y-93980000D02*
X132130000Y-93980000D01*
%TO.N,GND*%
X163099400Y-126929400D02*
X163170000Y-127000000D01*
X162090400Y-126929400D02*
X163099400Y-126929400D01*
X127260000Y-111610000D02*
X126560000Y-111610000D01*
X126560000Y-111610000D02*
X125860000Y-111610000D01*
X125160000Y-111610000D02*
X124460000Y-111610000D01*
X127260000Y-114410000D02*
X126560000Y-114410000D01*
X126560000Y-114410000D02*
X125860000Y-114410000D01*
X125160000Y-114410000D02*
X124460000Y-114410000D01*
X118140000Y-102760000D02*
X118140000Y-103910000D01*
X118140000Y-121674100D02*
X118140000Y-120260000D01*
X118058100Y-121756000D02*
X118140000Y-121674100D01*
X179465100Y-132832600D02*
X178712500Y-132080000D01*
X180714500Y-132832600D02*
X179465100Y-132832600D01*
X159967600Y-125142400D02*
X159700000Y-125410000D01*
X160850100Y-125142400D02*
X159967600Y-125142400D01*
X119380000Y-125254900D02*
X119380000Y-125410000D01*
X118110000Y-125410000D02*
X119380000Y-125410000D01*
X119380000Y-125410000D02*
X120650000Y-125410000D01*
X137056600Y-117213400D02*
X137050000Y-117220000D01*
X137249800Y-117213400D02*
X137056600Y-117213400D01*
X135900000Y-117220000D02*
X137050000Y-117220000D01*
X163191900Y-132158100D02*
X163225000Y-132125000D01*
X162117900Y-132158100D02*
X163191900Y-132158100D01*
X162862000Y-101233000D02*
X162495000Y-101600000D01*
X163967800Y-101233000D02*
X162862000Y-101233000D01*
X124460000Y-112310000D02*
X124460000Y-113010000D01*
X125860000Y-112310000D02*
X125860000Y-113010000D01*
X127260000Y-112310000D02*
X127260000Y-113010000D01*
X147320000Y-128905000D02*
X147320000Y-127950000D01*
X147308500Y-128905000D02*
X147320000Y-128905000D01*
X147320000Y-128905000D02*
X147320000Y-129860000D01*
X153076800Y-125616800D02*
X153040000Y-125580000D01*
X153990000Y-125616800D02*
X153076800Y-125616800D01*
X162495000Y-120848800D02*
X162495000Y-119865000D01*
X162977300Y-121331100D02*
X162495000Y-120848800D01*
X167798700Y-121571200D02*
X167640000Y-121412500D01*
X169354400Y-121571200D02*
X167798700Y-121571200D01*
X167640000Y-103990400D02*
X167640000Y-103147500D01*
X167876300Y-104226700D02*
X167640000Y-103990400D01*
X156080000Y-132905800D02*
X156080000Y-132960000D01*
X156033400Y-132859200D02*
X156080000Y-132905800D01*
X157480000Y-132960000D02*
X156080000Y-132960000D01*
X118123900Y-103910000D02*
X117882700Y-104151200D01*
X118140000Y-103910000D02*
X118123900Y-103910000D01*
%TD*%
%TA.AperFunction,Conductor*%
%TO.N,+3.3V*%
G36*
X205682539Y-81300185D02*
G01*
X205728294Y-81352989D01*
X205739500Y-81404500D01*
X205739500Y-137035500D01*
X205719815Y-137102539D01*
X205667011Y-137148294D01*
X205615500Y-137159500D01*
X114424500Y-137159500D01*
X114357461Y-137139815D01*
X114311706Y-137087011D01*
X114300500Y-137035500D01*
X114300500Y-135634000D01*
X114320185Y-135566961D01*
X114372989Y-135521206D01*
X114424500Y-135510000D01*
X116839999Y-135510000D01*
X116840000Y-135510000D01*
X116840000Y-132859199D01*
X155527753Y-132859199D01*
X155548234Y-133001656D01*
X155595874Y-133105971D01*
X155608023Y-133132573D01*
X155702272Y-133241343D01*
X155823347Y-133319153D01*
X155823350Y-133319154D01*
X155823349Y-133319154D01*
X155961436Y-133359699D01*
X155961438Y-133359700D01*
X155961439Y-133359700D01*
X156033674Y-133359700D01*
X156053069Y-133361226D01*
X156070038Y-133363914D01*
X156079999Y-133365492D01*
X156080000Y-133365492D01*
X156101879Y-133362026D01*
X156121275Y-133360500D01*
X156155500Y-133360500D01*
X156222539Y-133380185D01*
X156268294Y-133432989D01*
X156279500Y-133484500D01*
X156279500Y-133729752D01*
X156291131Y-133788229D01*
X156291132Y-133788230D01*
X156335447Y-133854552D01*
X156401769Y-133898867D01*
X156401770Y-133898868D01*
X156460247Y-133910499D01*
X156460250Y-133910500D01*
X156460252Y-133910500D01*
X158499750Y-133910500D01*
X158499751Y-133910499D01*
X158514568Y-133907552D01*
X158558229Y-133898868D01*
X158558229Y-133898867D01*
X158558231Y-133898867D01*
X158624552Y-133854552D01*
X158668867Y-133788231D01*
X158668867Y-133788229D01*
X158668868Y-133788229D01*
X158680499Y-133729752D01*
X158680500Y-133729750D01*
X158680500Y-132190249D01*
X158680499Y-132190247D01*
X158668868Y-132131770D01*
X158668867Y-132131769D01*
X158624552Y-132065447D01*
X158558230Y-132021132D01*
X158558229Y-132021131D01*
X158499752Y-132009500D01*
X158499748Y-132009500D01*
X156460252Y-132009500D01*
X156460247Y-132009500D01*
X156401770Y-132021131D01*
X156401769Y-132021132D01*
X156335447Y-132065447D01*
X156291132Y-132131769D01*
X156291131Y-132131770D01*
X156279500Y-132190247D01*
X156279500Y-132244186D01*
X156259815Y-132311225D01*
X156207011Y-132356980D01*
X156137853Y-132366924D01*
X156120570Y-132363165D01*
X156105361Y-132358700D01*
X155961439Y-132358700D01*
X155961436Y-132358700D01*
X155823349Y-132399245D01*
X155702273Y-132477056D01*
X155608023Y-132585826D01*
X155608022Y-132585828D01*
X155548234Y-132716743D01*
X155527753Y-132859199D01*
X116840000Y-132859199D01*
X116840000Y-132010000D01*
X146395001Y-132010000D01*
X146395001Y-132064196D01*
X146397851Y-132094606D01*
X146442653Y-132222645D01*
X146523207Y-132331792D01*
X146632354Y-132412346D01*
X146760397Y-132457149D01*
X146790792Y-132459999D01*
X147069999Y-132459999D01*
X147070000Y-132459998D01*
X147070000Y-132010000D01*
X147570000Y-132010000D01*
X147570000Y-132459999D01*
X147849196Y-132459999D01*
X147879606Y-132457148D01*
X148007645Y-132412346D01*
X148116792Y-132331792D01*
X148197346Y-132222645D01*
X148242149Y-132094604D01*
X148242149Y-132094600D01*
X148245000Y-132064206D01*
X148245000Y-132010000D01*
X147570000Y-132010000D01*
X147070000Y-132010000D01*
X146395001Y-132010000D01*
X116840000Y-132010000D01*
X116840000Y-131510000D01*
X146395000Y-131510000D01*
X147070000Y-131510000D01*
X147070000Y-131060000D01*
X147570000Y-131060000D01*
X147570000Y-131510000D01*
X148244999Y-131510000D01*
X148244999Y-131455803D01*
X148242148Y-131425393D01*
X148197346Y-131297354D01*
X148116792Y-131188207D01*
X148007645Y-131107653D01*
X147879602Y-131062850D01*
X147849207Y-131060000D01*
X147570000Y-131060000D01*
X147070000Y-131060000D01*
X146790804Y-131060000D01*
X146760393Y-131062851D01*
X146632354Y-131107653D01*
X146523207Y-131188207D01*
X146442653Y-131297354D01*
X146397850Y-131425395D01*
X146397850Y-131425399D01*
X146395000Y-131455793D01*
X146395000Y-131510000D01*
X116840000Y-131510000D01*
X116840000Y-130910000D01*
X149980000Y-130910000D01*
X149980000Y-132579702D01*
X149991602Y-132638033D01*
X149991603Y-132638034D01*
X150035808Y-132704191D01*
X150101965Y-132748396D01*
X150101966Y-132748397D01*
X150160297Y-132759999D01*
X150160301Y-132760000D01*
X150930000Y-132760000D01*
X150930000Y-130910000D01*
X151430000Y-130910000D01*
X151430000Y-132760000D01*
X152199699Y-132760000D01*
X152199702Y-132759999D01*
X152258033Y-132748397D01*
X152258034Y-132748396D01*
X152324191Y-132704191D01*
X152368396Y-132638034D01*
X152368397Y-132638033D01*
X152379999Y-132579702D01*
X152380000Y-132579698D01*
X152380000Y-130910000D01*
X156280000Y-130910000D01*
X156280000Y-131429702D01*
X156291602Y-131488033D01*
X156291603Y-131488034D01*
X156335808Y-131554191D01*
X156401965Y-131598396D01*
X156401966Y-131598397D01*
X156460297Y-131609999D01*
X156460301Y-131610000D01*
X157230000Y-131610000D01*
X157230000Y-130910000D01*
X157730000Y-130910000D01*
X157730000Y-131610000D01*
X158499699Y-131610000D01*
X158499702Y-131609999D01*
X158558033Y-131598397D01*
X158558034Y-131598396D01*
X158624191Y-131554191D01*
X158668396Y-131488034D01*
X158668397Y-131488033D01*
X158679999Y-131429702D01*
X158680000Y-131429699D01*
X158680000Y-130910000D01*
X157730000Y-130910000D01*
X157230000Y-130910000D01*
X156280000Y-130910000D01*
X152380000Y-130910000D01*
X151430000Y-130910000D01*
X150930000Y-130910000D01*
X149980000Y-130910000D01*
X116840000Y-130910000D01*
X116840000Y-130164269D01*
X146394500Y-130164269D01*
X146397353Y-130194699D01*
X146397353Y-130194701D01*
X146442206Y-130322880D01*
X146442207Y-130322882D01*
X146522850Y-130432150D01*
X146632118Y-130512793D01*
X146674845Y-130527744D01*
X146760299Y-130557646D01*
X146790730Y-130560500D01*
X146790734Y-130560500D01*
X147849270Y-130560500D01*
X147879699Y-130557646D01*
X147879701Y-130557646D01*
X147943790Y-130535219D01*
X148007882Y-130512793D01*
X148117150Y-130432150D01*
X148133497Y-130410000D01*
X149980000Y-130410000D01*
X150930000Y-130410000D01*
X150930000Y-128560000D01*
X151430000Y-128560000D01*
X151430000Y-130410000D01*
X152380000Y-130410000D01*
X152380000Y-128740301D01*
X152379999Y-128740297D01*
X152368397Y-128681966D01*
X152368396Y-128681965D01*
X152324191Y-128615808D01*
X152258034Y-128571603D01*
X152258033Y-128571602D01*
X152199702Y-128560000D01*
X151430000Y-128560000D01*
X150930000Y-128560000D01*
X150160297Y-128560000D01*
X150101966Y-128571602D01*
X150101965Y-128571603D01*
X150035808Y-128615808D01*
X149991603Y-128681965D01*
X149991602Y-128681966D01*
X149980000Y-128740297D01*
X149980000Y-130410000D01*
X148133497Y-130410000D01*
X148197793Y-130322882D01*
X148220219Y-130258790D01*
X148242646Y-130194701D01*
X148242646Y-130194699D01*
X148245500Y-130164269D01*
X148245500Y-129555730D01*
X148242646Y-129525300D01*
X148242646Y-129525298D01*
X148197793Y-129397119D01*
X148197792Y-129397117D01*
X148117150Y-129287850D01*
X148007882Y-129207207D01*
X148007881Y-129207207D01*
X147878359Y-129161884D01*
X147821584Y-129121162D01*
X147795837Y-129056209D01*
X147796576Y-129027205D01*
X147814147Y-128905000D01*
X147796577Y-128782800D01*
X147806520Y-128713645D01*
X147852275Y-128660841D01*
X147878360Y-128648115D01*
X147930093Y-128630012D01*
X148007882Y-128602793D01*
X148117150Y-128522150D01*
X148197793Y-128412882D01*
X148220219Y-128348790D01*
X148242646Y-128284701D01*
X148242646Y-128284699D01*
X148245500Y-128254269D01*
X148245500Y-127645730D01*
X148242646Y-127615300D01*
X148242646Y-127615298D01*
X148206822Y-127512921D01*
X148197793Y-127487118D01*
X148117150Y-127377850D01*
X148007882Y-127297207D01*
X148007880Y-127297206D01*
X147879700Y-127252353D01*
X147849270Y-127249500D01*
X147849266Y-127249500D01*
X146790734Y-127249500D01*
X146790730Y-127249500D01*
X146760300Y-127252353D01*
X146760298Y-127252353D01*
X146632119Y-127297206D01*
X146632117Y-127297207D01*
X146522850Y-127377850D01*
X146442207Y-127487117D01*
X146442206Y-127487119D01*
X146397353Y-127615298D01*
X146397353Y-127615300D01*
X146394500Y-127645730D01*
X146394500Y-128254269D01*
X146397353Y-128284699D01*
X146397353Y-128284701D01*
X146442206Y-128412880D01*
X146442207Y-128412882D01*
X146522850Y-128522150D01*
X146632118Y-128602793D01*
X146669313Y-128615808D01*
X146739740Y-128640452D01*
X146796516Y-128681174D01*
X146822263Y-128746126D01*
X146821523Y-128775139D01*
X146802853Y-128904999D01*
X146802853Y-128905000D01*
X146821523Y-129034860D01*
X146811579Y-129104018D01*
X146765824Y-129156822D01*
X146739741Y-129169547D01*
X146632117Y-129207207D01*
X146522850Y-129287850D01*
X146442207Y-129397117D01*
X146442206Y-129397119D01*
X146397353Y-129525298D01*
X146397353Y-129525300D01*
X146394500Y-129555730D01*
X146394500Y-130164269D01*
X116840000Y-130164269D01*
X116840000Y-126300000D01*
X146395001Y-126300000D01*
X146395001Y-126354196D01*
X146397851Y-126384606D01*
X146442653Y-126512645D01*
X146523207Y-126621792D01*
X146632354Y-126702346D01*
X146760397Y-126747149D01*
X146790792Y-126749999D01*
X147069999Y-126749999D01*
X147070000Y-126749998D01*
X147070000Y-126300000D01*
X147570000Y-126300000D01*
X147570000Y-126749999D01*
X147849196Y-126749999D01*
X147879606Y-126747148D01*
X148007645Y-126702346D01*
X148116792Y-126621792D01*
X148197346Y-126512645D01*
X148242149Y-126384604D01*
X148242149Y-126384600D01*
X148245000Y-126354206D01*
X148245000Y-126300000D01*
X147570000Y-126300000D01*
X147070000Y-126300000D01*
X146395001Y-126300000D01*
X116840000Y-126300000D01*
X116840000Y-125714269D01*
X117184500Y-125714269D01*
X117187353Y-125744699D01*
X117187353Y-125744701D01*
X117230256Y-125867307D01*
X117232207Y-125872882D01*
X117312850Y-125982150D01*
X117422118Y-126062793D01*
X117462014Y-126076753D01*
X117550299Y-126107646D01*
X117580730Y-126110500D01*
X117580734Y-126110500D01*
X118639270Y-126110500D01*
X118669699Y-126107646D01*
X118669701Y-126107646D01*
X118733790Y-126085219D01*
X118797882Y-126062793D01*
X118907150Y-125982150D01*
X118987793Y-125872882D01*
X118987794Y-125872880D01*
X118993311Y-125865405D01*
X118995285Y-125866862D01*
X119034580Y-125826485D01*
X119095480Y-125810500D01*
X119338725Y-125810500D01*
X119358120Y-125812026D01*
X119380000Y-125815492D01*
X119401879Y-125812026D01*
X119421275Y-125810500D01*
X119664520Y-125810500D01*
X119731559Y-125830185D01*
X119765031Y-125866628D01*
X119766689Y-125865405D01*
X119772206Y-125872880D01*
X119772207Y-125872882D01*
X119852850Y-125982150D01*
X119962118Y-126062793D01*
X120002014Y-126076753D01*
X120090299Y-126107646D01*
X120120730Y-126110500D01*
X120120734Y-126110500D01*
X121179270Y-126110500D01*
X121209699Y-126107646D01*
X121209701Y-126107646D01*
X121273790Y-126085219D01*
X121337882Y-126062793D01*
X121447150Y-125982150D01*
X121527793Y-125872882D01*
X121550219Y-125808790D01*
X121553295Y-125800000D01*
X146395000Y-125800000D01*
X147070000Y-125800000D01*
X147070000Y-125350000D01*
X147570000Y-125350000D01*
X147570000Y-125800000D01*
X148244999Y-125800000D01*
X148244999Y-125745803D01*
X148242148Y-125715393D01*
X148197346Y-125587354D01*
X148116792Y-125478207D01*
X148007645Y-125397653D01*
X147879602Y-125352850D01*
X147849207Y-125350000D01*
X147570000Y-125350000D01*
X147070000Y-125350000D01*
X146790804Y-125350000D01*
X146760393Y-125352851D01*
X146632354Y-125397653D01*
X146523207Y-125478207D01*
X146442653Y-125587354D01*
X146397850Y-125715395D01*
X146397850Y-125715399D01*
X146395000Y-125745793D01*
X146395000Y-125800000D01*
X121553295Y-125800000D01*
X121572646Y-125744701D01*
X121572646Y-125744699D01*
X121575500Y-125714269D01*
X121575500Y-125105730D01*
X121572646Y-125075300D01*
X121572646Y-125075298D01*
X121527793Y-124947119D01*
X121527792Y-124947117D01*
X121526250Y-124945027D01*
X121447150Y-124837850D01*
X121337882Y-124757207D01*
X121337880Y-124757206D01*
X121209700Y-124712353D01*
X121179270Y-124709500D01*
X121179266Y-124709500D01*
X120120734Y-124709500D01*
X120120730Y-124709500D01*
X120090300Y-124712353D01*
X120090298Y-124712353D01*
X119962119Y-124757206D01*
X119962117Y-124757207D01*
X119852850Y-124837850D01*
X119846808Y-124843892D01*
X119785483Y-124877374D01*
X119715792Y-124872387D01*
X119692091Y-124860522D01*
X119590055Y-124794947D01*
X119590050Y-124794945D01*
X119451963Y-124754400D01*
X119451961Y-124754400D01*
X119308039Y-124754400D01*
X119308036Y-124754400D01*
X119169949Y-124794945D01*
X119067908Y-124860523D01*
X119000868Y-124880207D01*
X118933829Y-124860522D01*
X118913188Y-124843888D01*
X118907151Y-124837851D01*
X118901376Y-124833589D01*
X118797882Y-124757207D01*
X118797880Y-124757206D01*
X118669700Y-124712353D01*
X118639270Y-124709500D01*
X118639266Y-124709500D01*
X117580734Y-124709500D01*
X117580730Y-124709500D01*
X117550300Y-124712353D01*
X117550298Y-124712353D01*
X117422119Y-124757206D01*
X117422117Y-124757207D01*
X117312850Y-124837850D01*
X117232207Y-124947117D01*
X117232206Y-124947119D01*
X117187353Y-125075298D01*
X117187353Y-125075300D01*
X117184500Y-125105730D01*
X117184500Y-125714269D01*
X116840000Y-125714269D01*
X116840000Y-123760000D01*
X117185001Y-123760000D01*
X117185001Y-123814196D01*
X117187851Y-123844606D01*
X117232653Y-123972645D01*
X117313207Y-124081792D01*
X117422354Y-124162346D01*
X117550397Y-124207149D01*
X117580792Y-124209999D01*
X117859999Y-124209999D01*
X118359999Y-124209999D01*
X118639196Y-124209999D01*
X118669606Y-124207148D01*
X118797645Y-124162346D01*
X118906792Y-124081792D01*
X118987346Y-123972645D01*
X119032149Y-123844604D01*
X119032149Y-123844600D01*
X119035000Y-123814206D01*
X119035000Y-123760000D01*
X118360000Y-123760000D01*
X118359999Y-124209999D01*
X117859999Y-124209999D01*
X117860000Y-124209998D01*
X117860000Y-123760000D01*
X117185001Y-123760000D01*
X116840000Y-123760000D01*
X116840000Y-123260000D01*
X117185000Y-123260000D01*
X117859999Y-123260000D01*
X118359999Y-123260000D01*
X119034998Y-123260000D01*
X119034999Y-123205803D01*
X119032148Y-123175393D01*
X118987346Y-123047354D01*
X118906792Y-122938207D01*
X118797645Y-122857653D01*
X118669602Y-122812850D01*
X118639207Y-122810000D01*
X118360000Y-122810000D01*
X118359999Y-123260000D01*
X117859999Y-123260000D01*
X117859999Y-122810000D01*
X117580804Y-122810000D01*
X117550393Y-122812851D01*
X117422354Y-122857653D01*
X117313207Y-122938207D01*
X117232653Y-123047354D01*
X117187850Y-123175395D01*
X117187850Y-123175399D01*
X117185000Y-123205793D01*
X117185000Y-123260000D01*
X116840000Y-123260000D01*
X116840000Y-121029752D01*
X117489500Y-121029752D01*
X117501131Y-121088229D01*
X117501132Y-121088230D01*
X117545447Y-121154552D01*
X117573892Y-121173558D01*
X117611769Y-121198867D01*
X117630162Y-121202525D01*
X117692073Y-121234909D01*
X117726649Y-121295623D01*
X117722911Y-121365393D01*
X117699687Y-121405345D01*
X117632723Y-121482627D01*
X117632722Y-121482628D01*
X117572934Y-121613543D01*
X117552453Y-121755999D01*
X117572934Y-121898456D01*
X117618007Y-121997150D01*
X117632723Y-122029373D01*
X117726972Y-122138143D01*
X117848047Y-122215953D01*
X117848050Y-122215954D01*
X117848049Y-122215954D01*
X117986136Y-122256499D01*
X117986138Y-122256500D01*
X117986139Y-122256500D01*
X118130062Y-122256500D01*
X118130062Y-122256499D01*
X118237221Y-122225035D01*
X118268150Y-122215954D01*
X118268150Y-122215953D01*
X118268153Y-122215953D01*
X118389228Y-122138143D01*
X118483477Y-122029373D01*
X118543265Y-121898457D01*
X118563747Y-121756000D01*
X118543265Y-121613543D01*
X118543264Y-121613542D01*
X118542003Y-121604766D01*
X118543131Y-121604603D01*
X118540500Y-121586298D01*
X118540500Y-121326038D01*
X118560185Y-121258999D01*
X118612989Y-121213244D01*
X118640305Y-121204421D01*
X118668231Y-121198867D01*
X118706559Y-121173256D01*
X118773234Y-121152378D01*
X118840615Y-121170861D01*
X118844342Y-121173257D01*
X118881964Y-121198396D01*
X118881966Y-121198397D01*
X118940297Y-121209999D01*
X118940301Y-121210000D01*
X119160000Y-121210000D01*
X119160000Y-119310000D01*
X118940297Y-119310000D01*
X118881966Y-119321602D01*
X118881962Y-119321604D01*
X118844340Y-119346743D01*
X118777663Y-119367621D01*
X118710283Y-119349136D01*
X118706559Y-119346743D01*
X118668230Y-119321132D01*
X118668229Y-119321131D01*
X118609752Y-119309500D01*
X118609748Y-119309500D01*
X117670252Y-119309500D01*
X117670247Y-119309500D01*
X117611770Y-119321131D01*
X117611769Y-119321132D01*
X117545447Y-119365447D01*
X117501132Y-119431769D01*
X117501131Y-119431770D01*
X117489500Y-119490247D01*
X117489500Y-121029752D01*
X116840000Y-121029752D01*
X116840000Y-114929752D01*
X123759500Y-114929752D01*
X123771131Y-114988229D01*
X123771132Y-114988230D01*
X123815447Y-115054552D01*
X123881769Y-115098867D01*
X123881770Y-115098868D01*
X123940247Y-115110499D01*
X123940250Y-115110500D01*
X123940252Y-115110500D01*
X127779750Y-115110500D01*
X127779751Y-115110499D01*
X127795021Y-115107462D01*
X127838229Y-115098868D01*
X127838229Y-115098867D01*
X127838231Y-115098867D01*
X127904552Y-115054552D01*
X127948867Y-114988231D01*
X127948867Y-114988229D01*
X127948868Y-114988229D01*
X127960499Y-114929752D01*
X127960500Y-114929750D01*
X127960500Y-111090249D01*
X127960499Y-111090247D01*
X127948868Y-111031770D01*
X127948867Y-111031769D01*
X127904552Y-110965447D01*
X127838230Y-110921132D01*
X127838229Y-110921131D01*
X127779752Y-110909500D01*
X127779748Y-110909500D01*
X123940252Y-110909500D01*
X123940247Y-110909500D01*
X123881770Y-110921131D01*
X123881769Y-110921132D01*
X123815447Y-110965447D01*
X123771132Y-111031769D01*
X123771131Y-111031770D01*
X123759500Y-111090247D01*
X123759500Y-114929752D01*
X116840000Y-114929752D01*
X116840000Y-104151200D01*
X117377053Y-104151200D01*
X117397534Y-104293656D01*
X117457322Y-104424571D01*
X117457323Y-104424573D01*
X117551572Y-104533343D01*
X117672647Y-104611153D01*
X117672650Y-104611154D01*
X117672649Y-104611154D01*
X117810736Y-104651699D01*
X117810738Y-104651700D01*
X117810739Y-104651700D01*
X117954662Y-104651700D01*
X117954662Y-104651699D01*
X118092753Y-104611153D01*
X118213828Y-104533343D01*
X118308077Y-104424573D01*
X118367865Y-104293657D01*
X118369568Y-104281804D01*
X118398591Y-104218247D01*
X118404612Y-104211779D01*
X118468050Y-104148342D01*
X118525646Y-104035304D01*
X118525646Y-104035302D01*
X118525647Y-104035301D01*
X118541260Y-103936724D01*
X118541260Y-103936714D01*
X118545492Y-103910000D01*
X118542026Y-103888121D01*
X118540500Y-103868724D01*
X118540500Y-103826038D01*
X118560185Y-103758999D01*
X118612989Y-103713244D01*
X118640305Y-103704421D01*
X118668231Y-103698867D01*
X118706107Y-103673558D01*
X118772785Y-103652679D01*
X118840165Y-103671163D01*
X118843892Y-103673558D01*
X118881768Y-103698867D01*
X118881770Y-103698868D01*
X118940247Y-103710499D01*
X118940250Y-103710500D01*
X118940252Y-103710500D01*
X119879750Y-103710500D01*
X119879751Y-103710499D01*
X119894568Y-103707552D01*
X119938229Y-103698868D01*
X119938231Y-103698867D01*
X119976108Y-103673558D01*
X120042785Y-103652679D01*
X120110165Y-103671163D01*
X120113892Y-103673558D01*
X120151768Y-103698867D01*
X120151770Y-103698868D01*
X120210247Y-103710499D01*
X120210250Y-103710500D01*
X120210252Y-103710500D01*
X121149750Y-103710500D01*
X121149751Y-103710499D01*
X121164568Y-103707552D01*
X121208229Y-103698868D01*
X121208231Y-103698867D01*
X121246108Y-103673558D01*
X121312785Y-103652679D01*
X121380165Y-103671163D01*
X121383892Y-103673558D01*
X121421768Y-103698867D01*
X121421770Y-103698868D01*
X121480247Y-103710499D01*
X121480250Y-103710500D01*
X121480252Y-103710500D01*
X122419750Y-103710500D01*
X122419751Y-103710499D01*
X122439418Y-103706587D01*
X122478228Y-103698868D01*
X122478228Y-103698867D01*
X122478231Y-103698867D01*
X122516109Y-103673556D01*
X122582783Y-103652679D01*
X122650163Y-103671162D01*
X122653890Y-103673557D01*
X122691769Y-103698867D01*
X122691770Y-103698868D01*
X122750247Y-103710499D01*
X122750250Y-103710500D01*
X122750252Y-103710500D01*
X123689750Y-103710500D01*
X123689751Y-103710499D01*
X123704568Y-103707552D01*
X123748229Y-103698868D01*
X123748231Y-103698867D01*
X123786108Y-103673558D01*
X123852785Y-103652679D01*
X123920165Y-103671163D01*
X123923892Y-103673558D01*
X123961768Y-103698867D01*
X123961770Y-103698868D01*
X124020247Y-103710499D01*
X124020250Y-103710500D01*
X124020252Y-103710500D01*
X124959750Y-103710500D01*
X124959751Y-103710499D01*
X124974568Y-103707552D01*
X125018229Y-103698868D01*
X125018231Y-103698867D01*
X125056108Y-103673558D01*
X125122785Y-103652679D01*
X125190165Y-103671163D01*
X125193892Y-103673558D01*
X125231768Y-103698867D01*
X125231770Y-103698868D01*
X125290247Y-103710499D01*
X125290250Y-103710500D01*
X125290252Y-103710500D01*
X126229750Y-103710500D01*
X126229751Y-103710499D01*
X126244568Y-103707552D01*
X126288229Y-103698868D01*
X126288231Y-103698867D01*
X126326108Y-103673558D01*
X126392785Y-103652679D01*
X126460165Y-103671163D01*
X126463892Y-103673558D01*
X126501767Y-103698866D01*
X126501769Y-103698867D01*
X126529690Y-103704421D01*
X126591601Y-103736804D01*
X126626176Y-103797519D01*
X126629500Y-103826038D01*
X126629500Y-105723329D01*
X126629501Y-105723339D01*
X126636346Y-105744407D01*
X126640887Y-105763318D01*
X126644354Y-105785204D01*
X126644355Y-105785207D01*
X126654412Y-105804945D01*
X126661857Y-105822918D01*
X126668704Y-105843990D01*
X126681726Y-105861914D01*
X126691890Y-105878500D01*
X126701950Y-105898242D01*
X126722864Y-105919156D01*
X126722893Y-105919187D01*
X133731180Y-112927473D01*
X133764665Y-112988796D01*
X133767499Y-113015154D01*
X133767499Y-115072144D01*
X133747814Y-115139183D01*
X133695010Y-115184938D01*
X133625852Y-115194882D01*
X133562296Y-115165857D01*
X133555818Y-115159825D01*
X133477229Y-115081236D01*
X133443744Y-115019913D01*
X133442172Y-115011198D01*
X133437765Y-114980543D01*
X133437740Y-114980489D01*
X133404635Y-114908000D01*
X133377977Y-114849627D01*
X133283728Y-114740857D01*
X133162653Y-114663047D01*
X133162651Y-114663046D01*
X133162649Y-114663045D01*
X133162650Y-114663045D01*
X133024563Y-114622500D01*
X133024561Y-114622500D01*
X132880639Y-114622500D01*
X132880636Y-114622500D01*
X132742549Y-114663045D01*
X132621473Y-114740856D01*
X132527223Y-114849626D01*
X132527222Y-114849628D01*
X132467434Y-114980543D01*
X132446953Y-115122999D01*
X132467434Y-115265456D01*
X132527222Y-115396371D01*
X132527223Y-115396373D01*
X132621472Y-115505143D01*
X132742547Y-115582953D01*
X132742550Y-115582954D01*
X132742549Y-115582954D01*
X132858862Y-115617106D01*
X132911609Y-115648402D01*
X132943181Y-115679974D01*
X132976666Y-115741297D01*
X132979500Y-115767655D01*
X132979500Y-119193961D01*
X132959815Y-119261000D01*
X132907011Y-119306755D01*
X132879692Y-119315578D01*
X132851770Y-119321132D01*
X132813889Y-119346443D01*
X132747211Y-119367320D01*
X132679831Y-119348835D01*
X132676109Y-119346443D01*
X132638231Y-119321133D01*
X132638229Y-119321132D01*
X132638227Y-119321131D01*
X132638229Y-119321131D01*
X132579752Y-119309500D01*
X132579748Y-119309500D01*
X131640252Y-119309500D01*
X131640247Y-119309500D01*
X131581770Y-119321131D01*
X131581769Y-119321132D01*
X131543891Y-119346442D01*
X131477213Y-119367320D01*
X131409833Y-119348835D01*
X131406109Y-119346442D01*
X131368230Y-119321132D01*
X131368229Y-119321131D01*
X131309752Y-119309500D01*
X131309748Y-119309500D01*
X130370252Y-119309500D01*
X130370247Y-119309500D01*
X130311770Y-119321131D01*
X130311769Y-119321132D01*
X130273891Y-119346442D01*
X130207213Y-119367320D01*
X130139833Y-119348835D01*
X130136109Y-119346442D01*
X130098230Y-119321132D01*
X130098229Y-119321131D01*
X130039752Y-119309500D01*
X130039748Y-119309500D01*
X129100252Y-119309500D01*
X129100247Y-119309500D01*
X129041770Y-119321131D01*
X129041769Y-119321132D01*
X129003891Y-119346442D01*
X128937213Y-119367320D01*
X128869833Y-119348835D01*
X128866109Y-119346442D01*
X128828230Y-119321132D01*
X128828229Y-119321131D01*
X128769752Y-119309500D01*
X128769748Y-119309500D01*
X127830252Y-119309500D01*
X127830247Y-119309500D01*
X127771770Y-119321131D01*
X127771769Y-119321132D01*
X127733891Y-119346442D01*
X127667213Y-119367320D01*
X127599833Y-119348835D01*
X127596109Y-119346442D01*
X127558230Y-119321132D01*
X127558229Y-119321131D01*
X127499752Y-119309500D01*
X127499748Y-119309500D01*
X126560252Y-119309500D01*
X126560247Y-119309500D01*
X126501770Y-119321131D01*
X126501769Y-119321132D01*
X126463891Y-119346442D01*
X126397213Y-119367320D01*
X126329833Y-119348835D01*
X126326109Y-119346442D01*
X126288230Y-119321132D01*
X126288229Y-119321131D01*
X126229752Y-119309500D01*
X126229748Y-119309500D01*
X125290252Y-119309500D01*
X125290247Y-119309500D01*
X125231770Y-119321131D01*
X125231769Y-119321132D01*
X125193891Y-119346442D01*
X125127213Y-119367320D01*
X125059833Y-119348835D01*
X125056109Y-119346442D01*
X125018230Y-119321132D01*
X125018229Y-119321131D01*
X124959752Y-119309500D01*
X124959748Y-119309500D01*
X124020252Y-119309500D01*
X124020247Y-119309500D01*
X123961770Y-119321131D01*
X123961769Y-119321132D01*
X123923891Y-119346442D01*
X123857213Y-119367320D01*
X123789833Y-119348835D01*
X123786109Y-119346442D01*
X123748230Y-119321132D01*
X123748229Y-119321131D01*
X123689752Y-119309500D01*
X123689748Y-119309500D01*
X122750252Y-119309500D01*
X122750247Y-119309500D01*
X122691770Y-119321131D01*
X122691769Y-119321132D01*
X122653891Y-119346442D01*
X122587213Y-119367320D01*
X122519833Y-119348835D01*
X122516109Y-119346442D01*
X122478230Y-119321132D01*
X122478229Y-119321131D01*
X122419752Y-119309500D01*
X122419748Y-119309500D01*
X121480252Y-119309500D01*
X121480247Y-119309500D01*
X121421770Y-119321131D01*
X121421769Y-119321132D01*
X121383891Y-119346442D01*
X121317213Y-119367320D01*
X121249833Y-119348835D01*
X121246109Y-119346442D01*
X121208230Y-119321132D01*
X121208229Y-119321131D01*
X121149752Y-119309500D01*
X121149748Y-119309500D01*
X120210252Y-119309500D01*
X120210247Y-119309500D01*
X120151770Y-119321131D01*
X120151769Y-119321132D01*
X120113441Y-119346743D01*
X120046764Y-119367621D01*
X119979384Y-119349137D01*
X119975660Y-119346743D01*
X119938037Y-119321604D01*
X119938033Y-119321602D01*
X119879702Y-119310000D01*
X119660000Y-119310000D01*
X119660000Y-121210000D01*
X119879699Y-121210000D01*
X119879702Y-121209999D01*
X119938033Y-121198397D01*
X119938037Y-121198395D01*
X119975660Y-121173257D01*
X120042337Y-121152379D01*
X120109717Y-121170864D01*
X120113441Y-121173257D01*
X120129825Y-121184204D01*
X120151769Y-121198867D01*
X120179690Y-121204421D01*
X120241601Y-121236804D01*
X120276176Y-121297519D01*
X120279500Y-121326038D01*
X120279500Y-122685500D01*
X120259815Y-122752539D01*
X120207011Y-122798294D01*
X120155500Y-122809500D01*
X120120730Y-122809500D01*
X120090300Y-122812353D01*
X120090298Y-122812353D01*
X119962119Y-122857206D01*
X119962117Y-122857207D01*
X119852850Y-122937850D01*
X119772207Y-123047117D01*
X119772206Y-123047119D01*
X119727353Y-123175298D01*
X119727353Y-123175300D01*
X119724500Y-123205730D01*
X119724500Y-123814269D01*
X119727353Y-123844699D01*
X119727353Y-123844701D01*
X119772124Y-123972645D01*
X119772207Y-123972882D01*
X119852850Y-124082150D01*
X119962118Y-124162793D01*
X120004845Y-124177744D01*
X120090299Y-124207646D01*
X120120730Y-124210500D01*
X120120734Y-124210500D01*
X121179270Y-124210500D01*
X121209699Y-124207646D01*
X121209701Y-124207646D01*
X121273790Y-124185219D01*
X121337882Y-124162793D01*
X121447150Y-124082150D01*
X121527793Y-123972882D01*
X121569783Y-123852882D01*
X121572646Y-123844701D01*
X121572646Y-123844699D01*
X121575500Y-123814269D01*
X121575500Y-123714500D01*
X121595185Y-123647461D01*
X121647989Y-123601706D01*
X121699500Y-123590500D01*
X122711853Y-123590500D01*
X122778892Y-123610185D01*
X122824647Y-123662989D01*
X122835311Y-123702921D01*
X122837353Y-123724699D01*
X122837353Y-123724701D01*
X122880089Y-123846830D01*
X122882207Y-123852882D01*
X122962850Y-123962150D01*
X123072118Y-124042793D01*
X123114845Y-124057743D01*
X123200299Y-124087646D01*
X123230730Y-124090500D01*
X123230734Y-124090500D01*
X123864270Y-124090500D01*
X123894699Y-124087646D01*
X123894701Y-124087646D01*
X123958790Y-124065219D01*
X124022882Y-124042793D01*
X124132150Y-123962150D01*
X124212793Y-123852882D01*
X124246730Y-123755896D01*
X124257646Y-123724701D01*
X124257646Y-123724699D01*
X124260500Y-123694269D01*
X124260500Y-123694196D01*
X124660000Y-123694196D01*
X124662851Y-123724606D01*
X124707653Y-123852645D01*
X124788207Y-123961792D01*
X124897354Y-124042346D01*
X125025397Y-124087149D01*
X125055778Y-124089998D01*
X125055806Y-124089999D01*
X125122498Y-124089998D01*
X125122499Y-124089998D01*
X125122500Y-123440000D01*
X125622500Y-123440000D01*
X125622500Y-124089999D01*
X125689196Y-124089999D01*
X125719606Y-124087148D01*
X125847645Y-124042346D01*
X125956792Y-123961792D01*
X126037346Y-123852645D01*
X126082149Y-123724604D01*
X126082149Y-123724600D01*
X126085000Y-123694206D01*
X126085000Y-123440000D01*
X125622500Y-123440000D01*
X125122500Y-123440000D01*
X124660001Y-123440000D01*
X124660000Y-123694196D01*
X124260500Y-123694196D01*
X124260500Y-122940000D01*
X124660000Y-122940000D01*
X125122499Y-122940000D01*
X125122499Y-122290000D01*
X125622500Y-122290000D01*
X125622500Y-122940000D01*
X126084999Y-122940000D01*
X126084999Y-122685803D01*
X126082148Y-122655393D01*
X126037346Y-122527354D01*
X125956792Y-122418207D01*
X125847645Y-122337653D01*
X125719602Y-122292850D01*
X125689207Y-122290000D01*
X125622500Y-122290000D01*
X125122499Y-122290000D01*
X125122498Y-122289999D01*
X125055804Y-122290000D01*
X125025393Y-122292851D01*
X124897354Y-122337653D01*
X124788207Y-122418207D01*
X124707653Y-122527354D01*
X124662850Y-122655395D01*
X124662850Y-122655399D01*
X124660000Y-122685793D01*
X124660000Y-122940000D01*
X124260500Y-122940000D01*
X124260500Y-122685730D01*
X124257646Y-122655300D01*
X124257646Y-122655298D01*
X124224006Y-122559163D01*
X124212793Y-122527118D01*
X124132150Y-122417850D01*
X124022882Y-122337207D01*
X124022880Y-122337206D01*
X123894700Y-122292353D01*
X123864270Y-122289500D01*
X123864266Y-122289500D01*
X123230734Y-122289500D01*
X123230730Y-122289500D01*
X123200300Y-122292353D01*
X123200298Y-122292353D01*
X123072119Y-122337206D01*
X123072117Y-122337207D01*
X122962850Y-122417850D01*
X122882207Y-122527117D01*
X122882206Y-122527119D01*
X122837353Y-122655298D01*
X122837353Y-122655300D01*
X122835311Y-122677079D01*
X122809453Y-122741987D01*
X122752607Y-122782612D01*
X122711853Y-122789500D01*
X121204500Y-122789500D01*
X121137461Y-122769815D01*
X121091706Y-122717011D01*
X121080500Y-122665500D01*
X121080500Y-121326038D01*
X121100185Y-121258999D01*
X121152989Y-121213244D01*
X121180305Y-121204421D01*
X121208231Y-121198867D01*
X121246107Y-121173558D01*
X121312785Y-121152679D01*
X121380165Y-121171163D01*
X121383892Y-121173558D01*
X121421768Y-121198867D01*
X121421770Y-121198868D01*
X121480247Y-121210499D01*
X121480250Y-121210500D01*
X121480252Y-121210500D01*
X122419750Y-121210500D01*
X122419751Y-121210499D01*
X122439418Y-121206587D01*
X122478228Y-121198868D01*
X122478228Y-121198867D01*
X122478231Y-121198867D01*
X122516109Y-121173556D01*
X122582783Y-121152679D01*
X122650163Y-121171162D01*
X122653890Y-121173557D01*
X122691769Y-121198867D01*
X122691770Y-121198868D01*
X122750247Y-121210499D01*
X122750250Y-121210500D01*
X122750252Y-121210500D01*
X123689750Y-121210500D01*
X123689751Y-121210499D01*
X123709418Y-121206587D01*
X123748228Y-121198868D01*
X123748228Y-121198867D01*
X123748231Y-121198867D01*
X123786109Y-121173556D01*
X123852783Y-121152679D01*
X123920163Y-121171162D01*
X123923890Y-121173557D01*
X123961769Y-121198867D01*
X123961770Y-121198868D01*
X124020247Y-121210499D01*
X124020250Y-121210500D01*
X124020252Y-121210500D01*
X124959750Y-121210500D01*
X124959751Y-121210499D01*
X124974568Y-121207552D01*
X125018229Y-121198868D01*
X125018231Y-121198867D01*
X125056108Y-121173558D01*
X125122785Y-121152679D01*
X125190165Y-121171163D01*
X125193892Y-121173558D01*
X125231768Y-121198867D01*
X125231770Y-121198868D01*
X125290247Y-121210499D01*
X125290250Y-121210500D01*
X125290252Y-121210500D01*
X126229750Y-121210500D01*
X126229751Y-121210499D01*
X126244568Y-121207552D01*
X126288229Y-121198868D01*
X126288231Y-121198867D01*
X126326108Y-121173558D01*
X126392785Y-121152679D01*
X126460165Y-121171163D01*
X126463892Y-121173558D01*
X126501768Y-121198867D01*
X126501770Y-121198868D01*
X126560247Y-121210499D01*
X126560250Y-121210500D01*
X126560252Y-121210500D01*
X127499750Y-121210500D01*
X127499751Y-121210499D01*
X127519418Y-121206587D01*
X127558228Y-121198868D01*
X127558228Y-121198867D01*
X127558231Y-121198867D01*
X127596109Y-121173556D01*
X127662783Y-121152679D01*
X127730163Y-121171162D01*
X127733890Y-121173557D01*
X127771769Y-121198867D01*
X127771770Y-121198868D01*
X127830247Y-121210499D01*
X127830250Y-121210500D01*
X127830252Y-121210500D01*
X128769750Y-121210500D01*
X128769751Y-121210499D01*
X128784568Y-121207552D01*
X128828229Y-121198868D01*
X128828231Y-121198867D01*
X128866108Y-121173558D01*
X128932785Y-121152679D01*
X129000165Y-121171163D01*
X129003892Y-121173558D01*
X129041767Y-121198866D01*
X129041769Y-121198867D01*
X129069690Y-121204421D01*
X129131601Y-121236804D01*
X129166176Y-121297519D01*
X129169500Y-121326038D01*
X129169500Y-121473429D01*
X129169501Y-121473439D01*
X129176346Y-121494507D01*
X129180887Y-121513418D01*
X129184354Y-121535304D01*
X129184355Y-121535307D01*
X129194412Y-121555045D01*
X129201857Y-121573018D01*
X129208704Y-121594090D01*
X129221726Y-121612014D01*
X129231890Y-121628600D01*
X129241950Y-121648342D01*
X129262864Y-121669256D01*
X129262893Y-121669287D01*
X129622598Y-122028990D01*
X129709050Y-122115442D01*
X129798758Y-122205150D01*
X129818495Y-122215206D01*
X129835081Y-122225369D01*
X129853010Y-122238396D01*
X129874081Y-122245242D01*
X129892058Y-122252688D01*
X129911796Y-122262746D01*
X129933678Y-122266211D01*
X129952591Y-122270752D01*
X129973667Y-122277600D01*
X129973668Y-122277600D01*
X140253531Y-122277600D01*
X140253533Y-122277600D01*
X140274601Y-122270754D01*
X140293517Y-122266212D01*
X140315404Y-122262746D01*
X140335144Y-122252686D01*
X140353111Y-122245244D01*
X140374190Y-122238396D01*
X140392126Y-122225363D01*
X140408688Y-122215214D01*
X140428442Y-122205150D01*
X140443934Y-122189657D01*
X140443941Y-122189652D01*
X142041990Y-120591603D01*
X143662392Y-118971200D01*
X143715137Y-118939906D01*
X143729234Y-118935767D01*
X143775419Y-118922206D01*
X143831450Y-118905754D01*
X143831450Y-118905753D01*
X143831453Y-118905753D01*
X143952528Y-118827943D01*
X144046777Y-118719173D01*
X144106565Y-118588257D01*
X144127047Y-118445800D01*
X144106565Y-118303343D01*
X144046777Y-118172427D01*
X143952528Y-118063657D01*
X143831453Y-117985847D01*
X143831451Y-117985846D01*
X143831449Y-117985845D01*
X143831450Y-117985845D01*
X143693363Y-117945300D01*
X143693361Y-117945300D01*
X143549439Y-117945300D01*
X143549436Y-117945300D01*
X143411349Y-117985845D01*
X143290273Y-118063656D01*
X143196023Y-118172426D01*
X143196022Y-118172428D01*
X143136235Y-118303341D01*
X143136234Y-118303345D01*
X143131826Y-118334004D01*
X143102800Y-118397559D01*
X143096769Y-118404036D01*
X140060526Y-121440281D01*
X139999203Y-121473766D01*
X139972845Y-121476600D01*
X137612355Y-121476600D01*
X137545316Y-121456915D01*
X137499561Y-121404111D01*
X137489617Y-121334953D01*
X137518642Y-121271397D01*
X137524674Y-121264919D01*
X138136666Y-120652927D01*
X141265947Y-117523643D01*
X141327268Y-117490160D01*
X141396960Y-117495144D01*
X141449479Y-117532661D01*
X141493589Y-117586409D01*
X141493590Y-117586410D01*
X141653550Y-117717685D01*
X141836046Y-117815232D01*
X142034066Y-117875300D01*
X142034065Y-117875300D01*
X142046138Y-117876489D01*
X142240000Y-117895583D01*
X142445934Y-117875300D01*
X142643954Y-117815232D01*
X142826450Y-117717685D01*
X142986410Y-117586410D01*
X143117685Y-117426450D01*
X143215232Y-117243954D01*
X143275300Y-117045934D01*
X143295583Y-116840000D01*
X143275300Y-116634066D01*
X143215232Y-116436046D01*
X143117685Y-116253550D01*
X143064175Y-116188347D01*
X142986410Y-116093589D01*
X142854457Y-115985300D01*
X142826450Y-115962315D01*
X142643954Y-115864768D01*
X142445934Y-115804700D01*
X142445933Y-115804699D01*
X142440105Y-115802932D01*
X142440528Y-115801536D01*
X142385059Y-115772518D01*
X142350487Y-115711802D01*
X142354229Y-115642032D01*
X142383481Y-115595610D01*
X147367573Y-110611519D01*
X147428897Y-110578034D01*
X147455255Y-110575200D01*
X150704944Y-110575200D01*
X150771983Y-110594885D01*
X150817738Y-110647689D01*
X150827682Y-110716847D01*
X150798657Y-110780403D01*
X150792625Y-110786881D01*
X148271025Y-113308482D01*
X148209702Y-113341967D01*
X148183423Y-113344792D01*
X148183364Y-113344801D01*
X148162299Y-113351646D01*
X148143382Y-113356187D01*
X148121500Y-113359652D01*
X148121495Y-113359654D01*
X148101750Y-113369714D01*
X148083786Y-113377155D01*
X148062707Y-113384005D01*
X148044784Y-113397027D01*
X148028198Y-113407191D01*
X148008459Y-113417249D01*
X148008456Y-113417251D01*
X147968453Y-113457252D01*
X147968449Y-113457258D01*
X145813113Y-115612594D01*
X145790549Y-115635159D01*
X145790548Y-115635160D01*
X145780491Y-115654897D01*
X145770331Y-115671477D01*
X145757306Y-115689405D01*
X145757303Y-115689410D01*
X145750454Y-115710488D01*
X145743013Y-115728452D01*
X145732954Y-115748195D01*
X145729487Y-115770082D01*
X145724947Y-115788991D01*
X145718100Y-115810067D01*
X145718100Y-115988729D01*
X145698415Y-116055768D01*
X145645611Y-116101523D01*
X145576453Y-116111467D01*
X145515436Y-116084583D01*
X145394457Y-115985300D01*
X145366450Y-115962315D01*
X145183954Y-115864768D01*
X144985934Y-115804700D01*
X144985932Y-115804699D01*
X144985934Y-115804699D01*
X144780000Y-115784417D01*
X144574067Y-115804699D01*
X144376043Y-115864769D01*
X144275557Y-115918481D01*
X144193550Y-115962315D01*
X144193548Y-115962316D01*
X144193547Y-115962317D01*
X144033589Y-116093589D01*
X143902317Y-116253547D01*
X143902315Y-116253550D01*
X143884614Y-116286666D01*
X143804769Y-116436043D01*
X143744699Y-116634067D01*
X143724417Y-116840000D01*
X143744699Y-117045932D01*
X143763286Y-117107206D01*
X143804768Y-117243954D01*
X143902315Y-117426450D01*
X143922075Y-117450528D01*
X144033589Y-117586410D01*
X144117235Y-117655055D01*
X144193550Y-117717685D01*
X144376046Y-117815232D01*
X144574066Y-117875300D01*
X144574065Y-117875300D01*
X144586138Y-117876489D01*
X144780000Y-117895583D01*
X144985934Y-117875300D01*
X145183954Y-117815232D01*
X145366450Y-117717685D01*
X145506787Y-117602514D01*
X145515435Y-117595417D01*
X145579745Y-117568104D01*
X145648613Y-117579895D01*
X145700173Y-117627047D01*
X145718100Y-117691270D01*
X145718100Y-120276229D01*
X145718101Y-120276239D01*
X145724946Y-120297307D01*
X145729487Y-120316218D01*
X145732954Y-120338104D01*
X145732955Y-120338107D01*
X145743012Y-120357845D01*
X145750457Y-120375818D01*
X145757304Y-120396890D01*
X145770326Y-120414814D01*
X145780490Y-120431400D01*
X145790550Y-120451142D01*
X145811464Y-120472056D01*
X145811493Y-120472087D01*
X155085686Y-129746280D01*
X155085706Y-129746298D01*
X155106358Y-129766950D01*
X155126098Y-129777008D01*
X155142687Y-129787174D01*
X155160609Y-129800195D01*
X155160610Y-129800195D01*
X155160611Y-129800196D01*
X155181680Y-129807042D01*
X155199649Y-129814484D01*
X155219396Y-129824546D01*
X155241282Y-129828012D01*
X155260197Y-129832553D01*
X155281267Y-129839400D01*
X155313181Y-129839400D01*
X156156000Y-129839400D01*
X156223039Y-129859085D01*
X156268794Y-129911889D01*
X156280000Y-129963400D01*
X156280000Y-130410000D01*
X158680000Y-130410000D01*
X158703873Y-130386127D01*
X158765196Y-130352642D01*
X158834888Y-130357626D01*
X158879232Y-130386125D01*
X161916150Y-133423042D01*
X162005858Y-133512750D01*
X162025595Y-133522806D01*
X162042181Y-133532969D01*
X162060110Y-133545996D01*
X162081181Y-133552842D01*
X162099158Y-133560288D01*
X162118896Y-133570346D01*
X162140778Y-133573811D01*
X162159691Y-133578352D01*
X162180767Y-133585200D01*
X162180768Y-133585200D01*
X172011231Y-133585200D01*
X172011233Y-133585200D01*
X172032301Y-133578354D01*
X172051217Y-133573812D01*
X172073104Y-133570346D01*
X172092844Y-133560286D01*
X172110811Y-133552844D01*
X172131890Y-133545996D01*
X172149826Y-133532963D01*
X172166388Y-133522814D01*
X172186142Y-133512750D01*
X172201634Y-133497257D01*
X172201641Y-133497252D01*
X172406340Y-133292553D01*
X172682073Y-133016818D01*
X172743396Y-132983334D01*
X172769754Y-132980500D01*
X173349768Y-132980500D01*
X173363101Y-132979249D01*
X173379774Y-132977686D01*
X173379778Y-132977684D01*
X173379781Y-132977684D01*
X173450845Y-132952816D01*
X173506179Y-132933455D01*
X173613930Y-132853930D01*
X173693455Y-132746179D01*
X173727591Y-132648625D01*
X173737684Y-132619781D01*
X173737684Y-132619778D01*
X173737686Y-132619774D01*
X173740500Y-132589768D01*
X174239500Y-132589768D01*
X174242313Y-132619769D01*
X174242315Y-132619781D01*
X174286544Y-132746178D01*
X174286545Y-132746180D01*
X174366069Y-132853930D01*
X174473819Y-132933454D01*
X174473821Y-132933455D01*
X174600218Y-132977684D01*
X174600222Y-132977684D01*
X174600226Y-132977686D01*
X174614378Y-132979013D01*
X174630232Y-132980500D01*
X174630236Y-132980500D01*
X175224768Y-132980500D01*
X175238101Y-132979249D01*
X175254774Y-132977686D01*
X175254778Y-132977684D01*
X175254781Y-132977684D01*
X175325845Y-132952816D01*
X175381179Y-132933455D01*
X175488930Y-132853930D01*
X175568455Y-132746179D01*
X175602591Y-132648625D01*
X175612684Y-132619781D01*
X175612684Y-132619778D01*
X175612686Y-132619774D01*
X175615204Y-132592924D01*
X175641061Y-132528015D01*
X175697905Y-132487389D01*
X175738662Y-132480500D01*
X176051853Y-132480500D01*
X176118892Y-132500185D01*
X176164647Y-132552989D01*
X176175311Y-132592921D01*
X176177353Y-132614699D01*
X176177353Y-132614701D01*
X176222206Y-132742880D01*
X176222207Y-132742882D01*
X176302850Y-132852150D01*
X176412118Y-132932793D01*
X176454845Y-132947744D01*
X176540299Y-132977646D01*
X176570730Y-132980500D01*
X176570734Y-132980500D01*
X177204270Y-132980500D01*
X177234699Y-132977646D01*
X177234701Y-132977646D01*
X177298790Y-132955219D01*
X177362882Y-132932793D01*
X177472150Y-132852150D01*
X177552793Y-132742882D01*
X177589481Y-132638034D01*
X177597646Y-132614701D01*
X177597646Y-132614699D01*
X177600500Y-132584269D01*
X177999500Y-132584269D01*
X178002353Y-132614699D01*
X178002353Y-132614701D01*
X178047206Y-132742880D01*
X178047207Y-132742882D01*
X178127850Y-132852150D01*
X178237118Y-132932793D01*
X178279845Y-132947744D01*
X178365299Y-132977646D01*
X178395730Y-132980500D01*
X178995245Y-132980500D01*
X179062284Y-133000185D01*
X179082925Y-133016818D01*
X179137050Y-133070942D01*
X179226758Y-133160650D01*
X179246495Y-133170706D01*
X179263081Y-133180869D01*
X179281010Y-133193896D01*
X179302081Y-133200742D01*
X179320058Y-133208188D01*
X179339796Y-133218246D01*
X179361678Y-133221711D01*
X179380591Y-133226252D01*
X179401667Y-133233100D01*
X179433581Y-133233100D01*
X180375526Y-133233100D01*
X180442564Y-133252784D01*
X180504449Y-133292554D01*
X180642536Y-133333099D01*
X180642538Y-133333100D01*
X180642539Y-133333100D01*
X180786462Y-133333100D01*
X180786462Y-133333099D01*
X180924553Y-133292553D01*
X181045628Y-133214743D01*
X181139877Y-133105973D01*
X181199665Y-132975057D01*
X181220147Y-132832600D01*
X181199665Y-132690143D01*
X181139877Y-132559227D01*
X181045628Y-132450457D01*
X180924553Y-132372647D01*
X180924551Y-132372646D01*
X180924549Y-132372645D01*
X180924550Y-132372645D01*
X180786463Y-132332100D01*
X180786461Y-132332100D01*
X180642539Y-132332100D01*
X180642536Y-132332100D01*
X180504450Y-132372645D01*
X180504448Y-132372645D01*
X180442564Y-132412416D01*
X180375526Y-132432100D01*
X179682354Y-132432100D01*
X179615315Y-132412415D01*
X179594678Y-132395785D01*
X179461817Y-132262924D01*
X179428334Y-132201603D01*
X179425500Y-132175245D01*
X179425500Y-131575730D01*
X179422646Y-131545300D01*
X179422646Y-131545298D01*
X179382195Y-131429699D01*
X179377793Y-131417118D01*
X179297150Y-131307850D01*
X179187882Y-131227207D01*
X179187880Y-131227206D01*
X179059700Y-131182353D01*
X179029270Y-131179500D01*
X179029266Y-131179500D01*
X178395734Y-131179500D01*
X178395730Y-131179500D01*
X178365300Y-131182353D01*
X178365298Y-131182353D01*
X178237119Y-131227206D01*
X178237117Y-131227207D01*
X178127850Y-131307850D01*
X178047207Y-131417117D01*
X178047206Y-131417119D01*
X178002353Y-131545298D01*
X178002353Y-131545300D01*
X177999500Y-131575730D01*
X177999500Y-132584269D01*
X177600500Y-132584269D01*
X177600500Y-131575730D01*
X177597646Y-131545300D01*
X177597646Y-131545298D01*
X177557195Y-131429699D01*
X177552793Y-131417118D01*
X177472150Y-131307850D01*
X177362882Y-131227207D01*
X177362880Y-131227206D01*
X177234700Y-131182353D01*
X177204270Y-131179500D01*
X177204266Y-131179500D01*
X176570734Y-131179500D01*
X176570730Y-131179500D01*
X176540300Y-131182353D01*
X176540298Y-131182353D01*
X176412119Y-131227206D01*
X176412117Y-131227207D01*
X176302850Y-131307850D01*
X176222207Y-131417117D01*
X176222206Y-131417119D01*
X176177353Y-131545298D01*
X176177353Y-131545300D01*
X176175311Y-131567079D01*
X176149453Y-131631987D01*
X176092607Y-131672612D01*
X176051853Y-131679500D01*
X175738662Y-131679500D01*
X175671623Y-131659815D01*
X175625868Y-131607011D01*
X175615204Y-131567076D01*
X175613162Y-131545300D01*
X175612686Y-131540226D01*
X175612684Y-131540222D01*
X175612684Y-131540218D01*
X175568455Y-131413821D01*
X175568454Y-131413819D01*
X175488930Y-131306069D01*
X175381180Y-131226545D01*
X175381178Y-131226544D01*
X175254781Y-131182315D01*
X175254769Y-131182313D01*
X175224768Y-131179500D01*
X175224764Y-131179500D01*
X174630236Y-131179500D01*
X174630232Y-131179500D01*
X174600230Y-131182313D01*
X174600218Y-131182315D01*
X174473821Y-131226544D01*
X174473819Y-131226545D01*
X174366069Y-131306069D01*
X174286545Y-131413819D01*
X174286544Y-131413821D01*
X174242315Y-131540218D01*
X174242313Y-131540230D01*
X174239500Y-131570231D01*
X174239500Y-132589768D01*
X173740500Y-132589768D01*
X173740500Y-132589764D01*
X173740500Y-131570236D01*
X173737686Y-131540226D01*
X173737684Y-131540222D01*
X173737684Y-131540218D01*
X173693455Y-131413821D01*
X173693454Y-131413819D01*
X173613930Y-131306069D01*
X173506180Y-131226545D01*
X173506178Y-131226544D01*
X173379781Y-131182315D01*
X173379769Y-131182313D01*
X173349768Y-131179500D01*
X173349764Y-131179500D01*
X172755236Y-131179500D01*
X172755232Y-131179500D01*
X172725230Y-131182313D01*
X172725218Y-131182315D01*
X172598821Y-131226544D01*
X172598819Y-131226545D01*
X172491069Y-131306069D01*
X172411545Y-131413819D01*
X172411544Y-131413821D01*
X172367315Y-131540218D01*
X172367313Y-131540230D01*
X172364500Y-131570231D01*
X172364500Y-132150244D01*
X172344815Y-132217283D01*
X172328181Y-132237925D01*
X171818226Y-132747881D01*
X171756903Y-132781366D01*
X171730545Y-132784200D01*
X170235597Y-132784200D01*
X170168558Y-132764515D01*
X170122803Y-132711711D01*
X170112859Y-132642553D01*
X170118556Y-132619244D01*
X170120146Y-132614698D01*
X170123000Y-132584269D01*
X170123000Y-131575730D01*
X170120146Y-131545300D01*
X170120146Y-131545298D01*
X170079695Y-131429699D01*
X170075293Y-131417118D01*
X169994650Y-131307850D01*
X169885382Y-131227207D01*
X169885380Y-131227206D01*
X169757200Y-131182353D01*
X169726770Y-131179500D01*
X169726766Y-131179500D01*
X169127255Y-131179500D01*
X169060216Y-131159815D01*
X169039574Y-131143181D01*
X165708004Y-127811610D01*
X165674519Y-127750287D01*
X165679503Y-127680595D01*
X165685904Y-127666324D01*
X165687109Y-127662882D01*
X165703759Y-127615298D01*
X165730184Y-127539781D01*
X165730184Y-127539778D01*
X165730186Y-127539774D01*
X165732704Y-127512924D01*
X165758561Y-127448015D01*
X165815405Y-127407389D01*
X165856162Y-127400500D01*
X166749353Y-127400500D01*
X166816392Y-127420185D01*
X166862147Y-127472989D01*
X166872811Y-127512921D01*
X166874853Y-127534699D01*
X166874853Y-127534701D01*
X166919293Y-127661700D01*
X166919707Y-127662882D01*
X167000350Y-127772150D01*
X167109618Y-127852793D01*
X167152345Y-127867744D01*
X167237799Y-127897646D01*
X167268230Y-127900500D01*
X167268234Y-127900500D01*
X167901770Y-127900500D01*
X167932199Y-127897646D01*
X167932201Y-127897646D01*
X167996290Y-127875219D01*
X168060382Y-127852793D01*
X168169650Y-127772150D01*
X168250293Y-127662882D01*
X168275709Y-127590247D01*
X168295146Y-127534701D01*
X168295146Y-127534699D01*
X168298000Y-127504269D01*
X168298000Y-127250000D01*
X168697501Y-127250000D01*
X168697501Y-127504196D01*
X168700351Y-127534606D01*
X168745153Y-127662645D01*
X168825707Y-127771792D01*
X168934854Y-127852346D01*
X169062897Y-127897149D01*
X169093278Y-127899998D01*
X169093306Y-127899999D01*
X169159999Y-127899998D01*
X169160000Y-127899998D01*
X169160000Y-127250000D01*
X169660000Y-127250000D01*
X169660000Y-127899999D01*
X169726696Y-127899999D01*
X169757106Y-127897148D01*
X169885145Y-127852346D01*
X169994292Y-127771792D01*
X170074846Y-127662645D01*
X170119649Y-127534604D01*
X170119649Y-127534600D01*
X170122500Y-127504206D01*
X170122500Y-127250000D01*
X169660000Y-127250000D01*
X169160000Y-127250000D01*
X168697501Y-127250000D01*
X168298000Y-127250000D01*
X168298000Y-126750000D01*
X168697500Y-126750000D01*
X169159999Y-126750000D01*
X169160000Y-126100000D01*
X169660000Y-126100000D01*
X169660000Y-126750000D01*
X170122499Y-126750000D01*
X170122499Y-126495803D01*
X170119648Y-126465393D01*
X170074846Y-126337354D01*
X169994292Y-126228207D01*
X169885145Y-126147653D01*
X169757102Y-126102850D01*
X169726707Y-126100000D01*
X169660000Y-126100000D01*
X169160000Y-126100000D01*
X169159999Y-126099999D01*
X169093304Y-126100000D01*
X169062893Y-126102851D01*
X168934854Y-126147653D01*
X168825707Y-126228207D01*
X168745153Y-126337354D01*
X168700350Y-126465395D01*
X168700350Y-126465399D01*
X168697500Y-126495793D01*
X168697500Y-126750000D01*
X168298000Y-126750000D01*
X168298000Y-126495730D01*
X168295146Y-126465300D01*
X168295146Y-126465298D01*
X168253648Y-126346706D01*
X168250293Y-126337118D01*
X168169650Y-126227850D01*
X168060382Y-126147207D01*
X168060380Y-126147206D01*
X167932200Y-126102353D01*
X167901770Y-126099500D01*
X167901766Y-126099500D01*
X167268234Y-126099500D01*
X167268230Y-126099500D01*
X167237800Y-126102353D01*
X167237798Y-126102353D01*
X167109619Y-126147206D01*
X167109617Y-126147207D01*
X167000350Y-126227850D01*
X166919707Y-126337117D01*
X166919706Y-126337119D01*
X166874853Y-126465298D01*
X166874853Y-126465300D01*
X166872811Y-126487079D01*
X166846953Y-126551987D01*
X166790107Y-126592612D01*
X166749353Y-126599500D01*
X165856162Y-126599500D01*
X165789123Y-126579815D01*
X165743368Y-126527011D01*
X165732704Y-126487076D01*
X165730671Y-126465399D01*
X165730186Y-126460226D01*
X165730184Y-126460222D01*
X165730184Y-126460218D01*
X165685955Y-126333821D01*
X165685954Y-126333819D01*
X165606430Y-126226069D01*
X165498680Y-126146545D01*
X165498678Y-126146544D01*
X165372281Y-126102315D01*
X165372269Y-126102313D01*
X165342268Y-126099500D01*
X165342264Y-126099500D01*
X164747736Y-126099500D01*
X164747732Y-126099500D01*
X164717730Y-126102313D01*
X164717718Y-126102315D01*
X164591321Y-126146544D01*
X164591319Y-126146545D01*
X164483569Y-126226069D01*
X164404045Y-126333819D01*
X164404044Y-126333821D01*
X164359815Y-126460218D01*
X164359813Y-126460230D01*
X164357000Y-126490231D01*
X164357000Y-127509764D01*
X164358534Y-127526121D01*
X164345196Y-127594706D01*
X164296895Y-127645192D01*
X164235076Y-127661700D01*
X163979924Y-127661700D01*
X163912885Y-127642015D01*
X163867130Y-127589211D01*
X163856466Y-127526121D01*
X163858000Y-127509764D01*
X163858000Y-126490231D01*
X163855671Y-126465399D01*
X163855186Y-126460226D01*
X163855184Y-126460222D01*
X163855184Y-126460218D01*
X163810955Y-126333821D01*
X163810954Y-126333819D01*
X163731430Y-126226069D01*
X163623680Y-126146545D01*
X163623678Y-126146544D01*
X163497281Y-126102315D01*
X163497269Y-126102313D01*
X163467268Y-126099500D01*
X163467264Y-126099500D01*
X162872736Y-126099500D01*
X162872732Y-126099500D01*
X162842730Y-126102313D01*
X162842718Y-126102315D01*
X162716321Y-126146544D01*
X162716319Y-126146545D01*
X162608569Y-126226069D01*
X162529045Y-126333819D01*
X162529044Y-126333821D01*
X162500228Y-126416173D01*
X162459506Y-126472949D01*
X162394553Y-126498696D01*
X162325992Y-126485239D01*
X162316149Y-126479534D01*
X162300450Y-126469445D01*
X162162363Y-126428900D01*
X162162361Y-126428900D01*
X162018439Y-126428900D01*
X162018436Y-126428900D01*
X161880349Y-126469445D01*
X161759273Y-126547256D01*
X161759272Y-126547256D01*
X161759272Y-126547257D01*
X161752363Y-126555230D01*
X161665023Y-126656026D01*
X161665022Y-126656028D01*
X161605234Y-126786943D01*
X161584753Y-126929400D01*
X161605234Y-127071856D01*
X161665022Y-127202771D01*
X161665023Y-127202773D01*
X161759272Y-127311543D01*
X161880347Y-127389353D01*
X161880350Y-127389354D01*
X161880349Y-127389354D01*
X161980371Y-127418723D01*
X162039150Y-127456497D01*
X162068175Y-127520052D01*
X162058232Y-127589211D01*
X162012477Y-127642015D01*
X161945437Y-127661700D01*
X158796476Y-127661700D01*
X158729437Y-127642015D01*
X158683682Y-127589211D01*
X158674858Y-127561890D01*
X158668867Y-127531769D01*
X158650443Y-127504196D01*
X158624552Y-127465447D01*
X158558230Y-127421132D01*
X158558229Y-127421131D01*
X158499752Y-127409500D01*
X158499748Y-127409500D01*
X158004500Y-127409500D01*
X157937461Y-127389815D01*
X157891706Y-127337011D01*
X157880500Y-127285500D01*
X157880500Y-126459500D01*
X157900185Y-126392461D01*
X157952989Y-126346706D01*
X158004500Y-126335500D01*
X158104270Y-126335500D01*
X158134699Y-126332646D01*
X158134701Y-126332646D01*
X158198790Y-126310219D01*
X158262882Y-126287793D01*
X158372150Y-126207150D01*
X158452793Y-126097882D01*
X158486979Y-126000185D01*
X158497646Y-125969701D01*
X158497646Y-125969699D01*
X158500500Y-125939269D01*
X158999500Y-125939269D01*
X159002353Y-125969699D01*
X159002353Y-125969701D01*
X159040885Y-126079815D01*
X159047207Y-126097882D01*
X159127850Y-126207150D01*
X159237118Y-126287793D01*
X159272004Y-126300000D01*
X159365299Y-126332646D01*
X159395730Y-126335500D01*
X159395734Y-126335500D01*
X160004270Y-126335500D01*
X160034699Y-126332646D01*
X160034701Y-126332646D01*
X160098790Y-126310219D01*
X160162882Y-126287793D01*
X160272150Y-126207150D01*
X160352793Y-126097882D01*
X160386979Y-126000185D01*
X160397646Y-125969701D01*
X160397646Y-125969699D01*
X160400500Y-125939269D01*
X160400500Y-125675494D01*
X160420185Y-125608455D01*
X160472989Y-125562700D01*
X160542147Y-125552756D01*
X160591535Y-125571176D01*
X160640047Y-125602353D01*
X160640048Y-125602353D01*
X160640051Y-125602355D01*
X160778136Y-125642899D01*
X160778138Y-125642900D01*
X160778139Y-125642900D01*
X160922062Y-125642900D01*
X160922062Y-125642899D01*
X161039371Y-125608455D01*
X161060150Y-125602354D01*
X161060150Y-125602353D01*
X161060153Y-125602353D01*
X161181228Y-125524543D01*
X161275477Y-125415773D01*
X161335265Y-125284857D01*
X161355747Y-125142400D01*
X161335265Y-124999943D01*
X161275477Y-124869027D01*
X161181228Y-124760257D01*
X161060153Y-124682447D01*
X161060151Y-124682446D01*
X161060149Y-124682445D01*
X161060150Y-124682445D01*
X160922063Y-124641900D01*
X160922061Y-124641900D01*
X160778139Y-124641900D01*
X160778136Y-124641900D01*
X160640050Y-124682445D01*
X160640048Y-124682445D01*
X160578164Y-124722216D01*
X160511126Y-124741900D01*
X160429991Y-124741900D01*
X160362952Y-124722215D01*
X160330221Y-124691534D01*
X160272150Y-124612850D01*
X160162882Y-124532207D01*
X160162880Y-124532206D01*
X160034700Y-124487353D01*
X160004270Y-124484500D01*
X160004266Y-124484500D01*
X159395734Y-124484500D01*
X159395730Y-124484500D01*
X159365300Y-124487353D01*
X159365298Y-124487353D01*
X159237119Y-124532206D01*
X159237117Y-124532207D01*
X159127850Y-124612850D01*
X159047207Y-124722117D01*
X159047206Y-124722119D01*
X159002353Y-124850298D01*
X159002353Y-124850300D01*
X158999500Y-124880730D01*
X158999500Y-125939269D01*
X158500500Y-125939269D01*
X158500500Y-124880730D01*
X158497646Y-124850300D01*
X158497646Y-124850298D01*
X158452793Y-124722119D01*
X158452792Y-124722117D01*
X158445586Y-124712353D01*
X158372150Y-124612850D01*
X158262882Y-124532207D01*
X158262880Y-124532206D01*
X158134700Y-124487353D01*
X158104270Y-124484500D01*
X158104266Y-124484500D01*
X157495734Y-124484500D01*
X157495730Y-124484500D01*
X157465300Y-124487353D01*
X157465298Y-124487353D01*
X157337119Y-124532206D01*
X157337117Y-124532207D01*
X157227850Y-124612850D01*
X157147207Y-124722117D01*
X157147206Y-124722119D01*
X157102353Y-124850298D01*
X157102353Y-124850300D01*
X157099500Y-124880730D01*
X157099500Y-125055500D01*
X157079815Y-125122539D01*
X157027011Y-125168294D01*
X156975500Y-125179500D01*
X155764500Y-125179500D01*
X155697461Y-125159815D01*
X155651706Y-125107011D01*
X155640500Y-125055500D01*
X155640500Y-125050730D01*
X155637646Y-125020300D01*
X155637646Y-125020298D01*
X155592793Y-124892119D01*
X155592792Y-124892117D01*
X155578231Y-124872387D01*
X155512150Y-124782850D01*
X155402882Y-124702207D01*
X155402881Y-124702206D01*
X155395405Y-124696689D01*
X155396862Y-124694714D01*
X155356485Y-124655420D01*
X155340500Y-124594520D01*
X155340500Y-123501568D01*
X155340500Y-123501567D01*
X155333652Y-123480491D01*
X155329111Y-123461578D01*
X155325646Y-123439696D01*
X155315588Y-123419958D01*
X155308140Y-123401976D01*
X155301296Y-123380910D01*
X155288271Y-123362982D01*
X155278106Y-123346394D01*
X155277178Y-123344572D01*
X155268050Y-123326658D01*
X155247398Y-123306006D01*
X155247380Y-123305986D01*
X153523574Y-121582181D01*
X153490089Y-121520858D01*
X153495073Y-121451166D01*
X153536945Y-121395233D01*
X153602409Y-121370816D01*
X153611255Y-121370500D01*
X153986770Y-121370500D01*
X154017199Y-121367646D01*
X154017201Y-121367646D01*
X154081290Y-121345219D01*
X154145382Y-121322793D01*
X154254650Y-121242150D01*
X154335293Y-121132882D01*
X154361247Y-121058709D01*
X154380146Y-121004701D01*
X154380146Y-121004699D01*
X154382189Y-120982921D01*
X154408047Y-120918013D01*
X154464893Y-120877388D01*
X154505647Y-120870500D01*
X157003431Y-120870500D01*
X157003433Y-120870500D01*
X157024501Y-120863654D01*
X157043417Y-120859112D01*
X157065304Y-120855646D01*
X157085044Y-120845586D01*
X157103011Y-120838144D01*
X157124090Y-120831296D01*
X157142026Y-120818263D01*
X157158588Y-120808114D01*
X157178342Y-120798050D01*
X157193836Y-120782555D01*
X157193840Y-120782552D01*
X157200906Y-120775485D01*
X157200909Y-120775484D01*
X157457320Y-120519071D01*
X157518640Y-120485588D01*
X157588332Y-120490572D01*
X157632680Y-120519073D01*
X160199386Y-123085780D01*
X160199406Y-123085798D01*
X160220058Y-123106450D01*
X160239798Y-123116508D01*
X160256387Y-123126674D01*
X160274309Y-123139695D01*
X160274310Y-123139695D01*
X160274311Y-123139696D01*
X160295380Y-123146542D01*
X160313349Y-123153984D01*
X160333096Y-123164046D01*
X160354982Y-123167512D01*
X160373897Y-123172053D01*
X160394967Y-123178900D01*
X160426881Y-123178900D01*
X168613645Y-123178900D01*
X168680684Y-123198585D01*
X168701326Y-123215219D01*
X172328181Y-126842074D01*
X172361666Y-126903397D01*
X172364500Y-126929755D01*
X172364500Y-127509768D01*
X172367313Y-127539769D01*
X172367315Y-127539781D01*
X172411544Y-127666178D01*
X172411545Y-127666180D01*
X172491069Y-127773930D01*
X172598819Y-127853454D01*
X172598821Y-127853455D01*
X172725218Y-127897684D01*
X172725222Y-127897684D01*
X172725226Y-127897686D01*
X172740231Y-127899093D01*
X172755232Y-127900500D01*
X172755236Y-127900500D01*
X173349768Y-127900500D01*
X173363101Y-127899249D01*
X173379774Y-127897686D01*
X173379778Y-127897684D01*
X173379781Y-127897684D01*
X173450845Y-127872816D01*
X173506179Y-127853455D01*
X173613930Y-127773930D01*
X173693455Y-127666179D01*
X173712816Y-127610845D01*
X173737684Y-127539781D01*
X173737684Y-127539778D01*
X173737686Y-127539774D01*
X173740500Y-127509768D01*
X174239500Y-127509768D01*
X174242313Y-127539769D01*
X174242315Y-127539781D01*
X174286544Y-127666178D01*
X174286545Y-127666180D01*
X174366069Y-127773930D01*
X174473819Y-127853454D01*
X174473821Y-127853455D01*
X174600218Y-127897684D01*
X174600222Y-127897684D01*
X174600226Y-127897686D01*
X174615231Y-127899093D01*
X174630232Y-127900500D01*
X174630236Y-127900500D01*
X175224768Y-127900500D01*
X175238101Y-127899249D01*
X175254774Y-127897686D01*
X175254778Y-127897684D01*
X175254781Y-127897684D01*
X175325845Y-127872816D01*
X175381179Y-127853455D01*
X175488930Y-127773930D01*
X175568455Y-127666179D01*
X175587816Y-127610845D01*
X175612684Y-127539781D01*
X175612684Y-127539778D01*
X175612686Y-127539774D01*
X175615204Y-127512924D01*
X175641061Y-127448015D01*
X175697905Y-127407389D01*
X175738662Y-127400500D01*
X176051853Y-127400500D01*
X176118892Y-127420185D01*
X176164647Y-127472989D01*
X176175311Y-127512921D01*
X176177353Y-127534699D01*
X176177353Y-127534701D01*
X176221793Y-127661700D01*
X176222207Y-127662882D01*
X176302850Y-127772150D01*
X176412118Y-127852793D01*
X176454845Y-127867744D01*
X176540299Y-127897646D01*
X176570730Y-127900500D01*
X176570734Y-127900500D01*
X177204270Y-127900500D01*
X177234699Y-127897646D01*
X177234701Y-127897646D01*
X177298790Y-127875219D01*
X177362882Y-127852793D01*
X177472150Y-127772150D01*
X177552793Y-127662882D01*
X177578209Y-127590247D01*
X177597646Y-127534701D01*
X177597646Y-127534699D01*
X177600500Y-127504269D01*
X177600500Y-127250000D01*
X178000001Y-127250000D01*
X178000001Y-127504196D01*
X178002851Y-127534606D01*
X178047653Y-127662645D01*
X178128207Y-127771792D01*
X178237354Y-127852346D01*
X178365397Y-127897149D01*
X178395778Y-127899998D01*
X178395806Y-127899999D01*
X178462499Y-127899998D01*
X178462500Y-127899998D01*
X178462500Y-127250000D01*
X178962500Y-127250000D01*
X178962500Y-127899999D01*
X179029196Y-127899999D01*
X179059606Y-127897148D01*
X179187645Y-127852346D01*
X179296792Y-127771792D01*
X179377346Y-127662645D01*
X179422149Y-127534604D01*
X179422149Y-127534600D01*
X179425000Y-127504206D01*
X179425000Y-127250000D01*
X178962500Y-127250000D01*
X178462500Y-127250000D01*
X178000001Y-127250000D01*
X177600500Y-127250000D01*
X177600500Y-126750000D01*
X178000000Y-126750000D01*
X178462500Y-126750000D01*
X178462500Y-126100000D01*
X178962500Y-126100000D01*
X178962500Y-126750000D01*
X179424999Y-126750000D01*
X179424999Y-126495803D01*
X179422148Y-126465393D01*
X179377346Y-126337354D01*
X179296792Y-126228207D01*
X179187645Y-126147653D01*
X179059602Y-126102850D01*
X179029207Y-126100000D01*
X178962500Y-126100000D01*
X178462500Y-126100000D01*
X178462499Y-126099999D01*
X178395804Y-126100000D01*
X178365393Y-126102851D01*
X178237354Y-126147653D01*
X178128207Y-126228207D01*
X178047653Y-126337354D01*
X178002850Y-126465395D01*
X178002850Y-126465399D01*
X178000000Y-126495793D01*
X178000000Y-126750000D01*
X177600500Y-126750000D01*
X177600500Y-126495730D01*
X177597646Y-126465300D01*
X177597646Y-126465298D01*
X177556148Y-126346706D01*
X177552793Y-126337118D01*
X177472150Y-126227850D01*
X177362882Y-126147207D01*
X177362880Y-126147206D01*
X177234700Y-126102353D01*
X177204270Y-126099500D01*
X177204266Y-126099500D01*
X176570734Y-126099500D01*
X176570730Y-126099500D01*
X176540300Y-126102353D01*
X176540298Y-126102353D01*
X176412119Y-126147206D01*
X176412117Y-126147207D01*
X176302850Y-126227850D01*
X176222207Y-126337117D01*
X176222206Y-126337119D01*
X176177353Y-126465298D01*
X176177353Y-126465300D01*
X176175311Y-126487079D01*
X176149453Y-126551987D01*
X176092607Y-126592612D01*
X176051853Y-126599500D01*
X175738662Y-126599500D01*
X175671623Y-126579815D01*
X175625868Y-126527011D01*
X175615204Y-126487076D01*
X175613171Y-126465399D01*
X175612686Y-126460226D01*
X175612684Y-126460222D01*
X175612684Y-126460218D01*
X175568455Y-126333821D01*
X175568454Y-126333819D01*
X175488930Y-126226069D01*
X175381180Y-126146545D01*
X175381178Y-126146544D01*
X175254781Y-126102315D01*
X175254769Y-126102313D01*
X175224768Y-126099500D01*
X175224764Y-126099500D01*
X174630236Y-126099500D01*
X174630232Y-126099500D01*
X174600230Y-126102313D01*
X174600218Y-126102315D01*
X174473821Y-126146544D01*
X174473819Y-126146545D01*
X174366069Y-126226069D01*
X174286545Y-126333819D01*
X174286544Y-126333821D01*
X174242315Y-126460218D01*
X174242313Y-126460230D01*
X174239500Y-126490231D01*
X174239500Y-127509768D01*
X173740500Y-127509768D01*
X173740500Y-127509764D01*
X173740500Y-126490236D01*
X173740031Y-126485239D01*
X173738171Y-126465399D01*
X173737686Y-126460226D01*
X173737684Y-126460222D01*
X173737684Y-126460218D01*
X173693455Y-126333821D01*
X173693454Y-126333819D01*
X173613930Y-126226069D01*
X173506180Y-126146545D01*
X173506178Y-126146544D01*
X173379781Y-126102315D01*
X173379769Y-126102313D01*
X173349768Y-126099500D01*
X173349764Y-126099500D01*
X172769755Y-126099500D01*
X172702716Y-126079815D01*
X172682074Y-126063181D01*
X169090187Y-122471293D01*
X169090156Y-122471264D01*
X169069242Y-122450350D01*
X169069241Y-122450349D01*
X169049500Y-122440290D01*
X169032914Y-122430126D01*
X169014990Y-122417104D01*
X169014991Y-122417104D01*
X168993918Y-122410257D01*
X168975945Y-122402812D01*
X168956207Y-122392755D01*
X168956204Y-122392754D01*
X168934318Y-122389287D01*
X168915407Y-122384746D01*
X168894339Y-122377901D01*
X168894334Y-122377900D01*
X168894333Y-122377900D01*
X168894329Y-122377900D01*
X160675655Y-122377900D01*
X160608616Y-122358215D01*
X160587974Y-122341581D01*
X158685476Y-120439083D01*
X158651991Y-120377760D01*
X158656975Y-120308068D01*
X158670055Y-120282512D01*
X158689252Y-120253780D01*
X158716470Y-120213046D01*
X158730500Y-120142514D01*
X158730500Y-119587486D01*
X158730499Y-119587486D01*
X158730500Y-119587483D01*
X158716471Y-119516957D01*
X158716470Y-119516955D01*
X158716470Y-119516954D01*
X158663028Y-119436972D01*
X158655243Y-119431770D01*
X158583048Y-119383531D01*
X158583042Y-119383528D01*
X158512516Y-119369500D01*
X158512514Y-119369500D01*
X156577486Y-119369500D01*
X156577484Y-119369500D01*
X156506957Y-119383528D01*
X156506951Y-119383531D01*
X156426972Y-119436971D01*
X156426971Y-119436972D01*
X156373531Y-119516951D01*
X156373528Y-119516957D01*
X156359500Y-119587483D01*
X156359500Y-119945500D01*
X156339815Y-120012539D01*
X156287011Y-120058294D01*
X156235500Y-120069500D01*
X154505647Y-120069500D01*
X154438608Y-120049815D01*
X154392853Y-119997011D01*
X154382189Y-119957079D01*
X154380146Y-119935300D01*
X154380146Y-119935298D01*
X154335293Y-119807119D01*
X154335292Y-119807117D01*
X154254650Y-119697850D01*
X154145382Y-119617207D01*
X154145380Y-119617206D01*
X154017200Y-119572353D01*
X153986770Y-119569500D01*
X153986766Y-119569500D01*
X153387255Y-119569500D01*
X153320216Y-119549815D01*
X153299574Y-119533181D01*
X152721765Y-118955372D01*
X152696652Y-118919202D01*
X152656979Y-118832330D01*
X152656974Y-118832322D01*
X152562733Y-118723562D01*
X152562730Y-118723559D01*
X152562728Y-118723557D01*
X152562725Y-118723555D01*
X152559121Y-118720432D01*
X152521346Y-118661654D01*
X152521344Y-118591785D01*
X152523267Y-118585801D01*
X152555146Y-118494699D01*
X152556102Y-118484500D01*
X152558000Y-118464269D01*
X152558000Y-117713754D01*
X152577685Y-117646715D01*
X152630489Y-117600960D01*
X152699647Y-117591016D01*
X152763203Y-117620041D01*
X152769681Y-117626073D01*
X152920681Y-117777073D01*
X152954166Y-117838396D01*
X152957000Y-117864754D01*
X152957000Y-118464269D01*
X152959853Y-118494699D01*
X152959853Y-118494701D01*
X153004706Y-118622880D01*
X153004707Y-118622882D01*
X153085350Y-118732150D01*
X153194618Y-118812793D01*
X153237345Y-118827744D01*
X153322799Y-118857646D01*
X153353230Y-118860500D01*
X153353234Y-118860500D01*
X153986770Y-118860500D01*
X154017199Y-118857646D01*
X154017201Y-118857646D01*
X154089571Y-118832322D01*
X154145382Y-118812793D01*
X154254650Y-118732150D01*
X154335293Y-118622882D01*
X154369588Y-118524873D01*
X154380146Y-118494701D01*
X154380146Y-118494699D01*
X154382189Y-118472921D01*
X154408047Y-118408013D01*
X154464893Y-118367388D01*
X154505647Y-118360500D01*
X156235500Y-118360500D01*
X156302539Y-118380185D01*
X156348294Y-118432989D01*
X156359500Y-118484499D01*
X156359500Y-118872514D01*
X156359500Y-118872516D01*
X156359499Y-118872516D01*
X156373528Y-118943042D01*
X156373531Y-118943048D01*
X156425104Y-119020233D01*
X156426972Y-119023028D01*
X156506954Y-119076470D01*
X156506955Y-119076470D01*
X156506957Y-119076471D01*
X156577483Y-119090500D01*
X156577486Y-119090500D01*
X158512516Y-119090500D01*
X158583042Y-119076471D01*
X158583042Y-119076470D01*
X158583046Y-119076470D01*
X158663028Y-119023028D01*
X158716470Y-118943046D01*
X158717918Y-118935766D01*
X158730500Y-118872516D01*
X158730500Y-118317483D01*
X158716471Y-118246957D01*
X158716470Y-118246955D01*
X158716470Y-118246954D01*
X158663028Y-118166972D01*
X158661472Y-118165932D01*
X158583048Y-118113531D01*
X158583042Y-118113528D01*
X158512516Y-118099500D01*
X158512514Y-118099500D01*
X158073583Y-118099500D01*
X158006544Y-118079815D01*
X157960789Y-118027011D01*
X157952557Y-117969759D01*
X157950492Y-117969759D01*
X157950492Y-117950241D01*
X157952874Y-117950241D01*
X157960067Y-117894599D01*
X158005066Y-117841149D01*
X158071818Y-117820513D01*
X158073583Y-117820500D01*
X158512516Y-117820500D01*
X158583042Y-117806471D01*
X158583042Y-117806470D01*
X158583046Y-117806470D01*
X158663028Y-117753028D01*
X158716470Y-117673046D01*
X158723529Y-117637561D01*
X158730500Y-117602516D01*
X158730500Y-117047483D01*
X158716471Y-116976957D01*
X158716470Y-116976955D01*
X158716470Y-116976954D01*
X158663028Y-116896972D01*
X158663027Y-116896971D01*
X158583048Y-116843531D01*
X158583042Y-116843528D01*
X158512516Y-116829500D01*
X158512514Y-116829500D01*
X156577486Y-116829500D01*
X156577484Y-116829500D01*
X156506957Y-116843528D01*
X156506951Y-116843531D01*
X156426972Y-116896971D01*
X156426971Y-116896972D01*
X156373531Y-116976951D01*
X156373528Y-116976957D01*
X156359500Y-117047483D01*
X156359500Y-117435500D01*
X156339815Y-117502539D01*
X156287011Y-117548294D01*
X156235500Y-117559500D01*
X154505647Y-117559500D01*
X154438608Y-117539815D01*
X154392853Y-117487011D01*
X154382189Y-117447079D01*
X154380146Y-117425300D01*
X154380146Y-117425298D01*
X154340998Y-117313422D01*
X154335293Y-117297118D01*
X154254650Y-117187850D01*
X154145382Y-117107207D01*
X154145380Y-117107206D01*
X154017200Y-117062353D01*
X153986770Y-117059500D01*
X153986766Y-117059500D01*
X153387255Y-117059500D01*
X153320216Y-117039815D01*
X153299574Y-117023181D01*
X152533160Y-116256766D01*
X152499675Y-116195443D01*
X152504659Y-116125751D01*
X152509802Y-116114284D01*
X152510294Y-116112880D01*
X152530671Y-116054645D01*
X152555146Y-115984701D01*
X152555146Y-115984699D01*
X152558000Y-115954269D01*
X152558000Y-115354753D01*
X152577685Y-115287714D01*
X152594315Y-115267076D01*
X152745320Y-115116071D01*
X152806642Y-115082587D01*
X152876334Y-115087571D01*
X152932267Y-115129443D01*
X152956684Y-115194907D01*
X152957000Y-115203753D01*
X152957000Y-115954269D01*
X152959853Y-115984699D01*
X152959853Y-115984701D01*
X153000732Y-116101523D01*
X153004707Y-116112882D01*
X153085350Y-116222150D01*
X153194618Y-116302793D01*
X153230933Y-116315500D01*
X153322799Y-116347646D01*
X153353230Y-116350500D01*
X153353234Y-116350500D01*
X153986770Y-116350500D01*
X154017199Y-116347646D01*
X154017201Y-116347646D01*
X154081290Y-116325219D01*
X154145382Y-116302793D01*
X154254650Y-116222150D01*
X154335293Y-116112882D01*
X154361011Y-116039383D01*
X154380146Y-115984701D01*
X154380146Y-115984699D01*
X154382189Y-115962921D01*
X154408047Y-115898013D01*
X154464893Y-115857388D01*
X154505647Y-115850500D01*
X156235500Y-115850500D01*
X156302539Y-115870185D01*
X156348294Y-115922989D01*
X156359500Y-115974499D01*
X156359500Y-116332514D01*
X156359500Y-116332516D01*
X156359499Y-116332516D01*
X156373528Y-116403042D01*
X156373531Y-116403048D01*
X156426971Y-116483027D01*
X156426972Y-116483028D01*
X156506954Y-116536470D01*
X156506955Y-116536470D01*
X156506957Y-116536471D01*
X156577483Y-116550500D01*
X156577486Y-116550500D01*
X158512516Y-116550500D01*
X158583042Y-116536471D01*
X158583042Y-116536470D01*
X158583046Y-116536470D01*
X158663028Y-116483028D01*
X158663028Y-116483027D01*
X158672950Y-116476398D01*
X158739628Y-116455520D01*
X158741841Y-116455500D01*
X160309145Y-116455500D01*
X160376184Y-116475185D01*
X160396826Y-116491818D01*
X160724582Y-116819575D01*
X160758066Y-116880896D01*
X160760900Y-116907254D01*
X160760900Y-119062629D01*
X160760901Y-119062639D01*
X160767746Y-119083707D01*
X160772287Y-119102618D01*
X160775754Y-119124504D01*
X160775755Y-119124507D01*
X160785812Y-119144245D01*
X160793257Y-119162218D01*
X160800104Y-119183290D01*
X160813126Y-119201214D01*
X160823290Y-119217800D01*
X160828561Y-119228143D01*
X160833350Y-119237542D01*
X160854264Y-119258456D01*
X160854278Y-119258471D01*
X160855915Y-119260108D01*
X160855916Y-119260109D01*
X161064150Y-119468342D01*
X161153858Y-119558050D01*
X161173595Y-119568106D01*
X161190181Y-119578269D01*
X161208110Y-119591296D01*
X161223816Y-119596399D01*
X161281491Y-119635834D01*
X161308691Y-119700192D01*
X161309500Y-119714329D01*
X161309500Y-120142514D01*
X161309500Y-120142516D01*
X161309499Y-120142516D01*
X161323528Y-120213042D01*
X161323531Y-120213048D01*
X161376971Y-120293027D01*
X161376972Y-120293028D01*
X161456954Y-120346470D01*
X161456955Y-120346470D01*
X161456957Y-120346471D01*
X161527483Y-120360500D01*
X161527486Y-120360500D01*
X161970500Y-120360500D01*
X162037539Y-120380185D01*
X162083294Y-120432989D01*
X162094500Y-120484500D01*
X162094500Y-120912229D01*
X162094501Y-120912239D01*
X162101346Y-120933307D01*
X162105887Y-120952218D01*
X162109354Y-120974104D01*
X162109355Y-120974107D01*
X162119412Y-120993845D01*
X162126857Y-121011818D01*
X162133704Y-121032890D01*
X162146726Y-121050814D01*
X162156890Y-121067400D01*
X162165337Y-121083977D01*
X162166950Y-121087142D01*
X162187864Y-121108056D01*
X162187878Y-121108071D01*
X162189515Y-121109708D01*
X162189516Y-121109709D01*
X162452670Y-121372862D01*
X162486154Y-121434183D01*
X162487726Y-121442894D01*
X162492134Y-121473553D01*
X162492135Y-121473558D01*
X162537558Y-121573018D01*
X162551923Y-121604473D01*
X162646172Y-121713243D01*
X162767247Y-121791053D01*
X162767250Y-121791054D01*
X162767249Y-121791054D01*
X162905336Y-121831599D01*
X162905338Y-121831600D01*
X162905339Y-121831600D01*
X163049262Y-121831600D01*
X163049262Y-121831599D01*
X163187353Y-121791053D01*
X163308428Y-121713243D01*
X163402677Y-121604473D01*
X163462465Y-121473557D01*
X163482947Y-121331100D01*
X163462465Y-121188643D01*
X163402677Y-121057727D01*
X163308428Y-120948957D01*
X163264836Y-120920942D01*
X163187351Y-120871145D01*
X163071036Y-120836993D01*
X163018289Y-120805697D01*
X162931818Y-120719225D01*
X162898334Y-120657901D01*
X162895500Y-120631544D01*
X162895500Y-120484500D01*
X162915185Y-120417461D01*
X162967989Y-120371706D01*
X163019500Y-120360500D01*
X163462516Y-120360500D01*
X163533042Y-120346471D01*
X163533042Y-120346470D01*
X163533046Y-120346470D01*
X163613028Y-120293028D01*
X163666470Y-120213046D01*
X163680500Y-120142514D01*
X163680500Y-119754500D01*
X163700185Y-119687461D01*
X163752989Y-119641706D01*
X163804500Y-119630500D01*
X163884945Y-119630500D01*
X163951984Y-119650185D01*
X163972626Y-119666819D01*
X165053925Y-120748119D01*
X165053947Y-120748139D01*
X165074358Y-120768550D01*
X165094089Y-120778603D01*
X165110676Y-120788766D01*
X165128611Y-120801797D01*
X165149685Y-120808644D01*
X165167653Y-120816086D01*
X165187396Y-120826146D01*
X165209282Y-120829612D01*
X165228189Y-120834151D01*
X165249267Y-120841000D01*
X165281181Y-120841000D01*
X166646079Y-120841000D01*
X166713118Y-120860685D01*
X166758873Y-120913489D01*
X166768817Y-120982647D01*
X166763120Y-121005952D01*
X166758777Y-121018367D01*
X166742353Y-121065301D01*
X166739500Y-121095730D01*
X166739500Y-121729269D01*
X166742353Y-121759699D01*
X166742353Y-121759701D01*
X166787206Y-121887880D01*
X166787207Y-121887882D01*
X166867850Y-121997150D01*
X166977118Y-122077793D01*
X167019845Y-122092744D01*
X167105299Y-122122646D01*
X167135730Y-122125500D01*
X167135734Y-122125500D01*
X168144270Y-122125500D01*
X168174699Y-122122646D01*
X168174701Y-122122646D01*
X168238790Y-122100219D01*
X168302882Y-122077793D01*
X168412150Y-121997150D01*
X168412151Y-121997148D01*
X168413802Y-121995930D01*
X168479431Y-121971959D01*
X168487436Y-121971700D01*
X169015426Y-121971700D01*
X169082464Y-121991384D01*
X169125450Y-122019009D01*
X169141577Y-122029373D01*
X169144349Y-122031154D01*
X169282436Y-122071699D01*
X169282438Y-122071700D01*
X169282439Y-122071700D01*
X169426362Y-122071700D01*
X169426362Y-122071699D01*
X169564453Y-122031153D01*
X169685528Y-121953343D01*
X169779777Y-121844573D01*
X169839565Y-121713657D01*
X169860047Y-121571200D01*
X169839565Y-121428743D01*
X169779777Y-121297827D01*
X169685528Y-121189057D01*
X169564453Y-121111247D01*
X169564451Y-121111246D01*
X169564449Y-121111245D01*
X169564450Y-121111245D01*
X169471581Y-121083977D01*
X169412802Y-121046203D01*
X169383777Y-120982648D01*
X169393720Y-120913489D01*
X169439475Y-120860685D01*
X169506515Y-120841000D01*
X171355745Y-120841000D01*
X171422784Y-120860685D01*
X171443426Y-120877319D01*
X172328181Y-121762074D01*
X172361666Y-121823397D01*
X172364500Y-121849755D01*
X172364500Y-122429768D01*
X172367313Y-122459769D01*
X172367315Y-122459781D01*
X172411544Y-122586178D01*
X172411545Y-122586180D01*
X172491069Y-122693930D01*
X172598819Y-122773454D01*
X172598821Y-122773455D01*
X172725218Y-122817684D01*
X172725222Y-122817684D01*
X172725226Y-122817686D01*
X172740231Y-122819093D01*
X172755232Y-122820500D01*
X172755236Y-122820500D01*
X173349768Y-122820500D01*
X173363101Y-122819249D01*
X173379774Y-122817686D01*
X173379778Y-122817684D01*
X173379781Y-122817684D01*
X173460325Y-122789500D01*
X173506179Y-122773455D01*
X173613930Y-122693930D01*
X173693455Y-122586179D01*
X173716044Y-122521623D01*
X173737684Y-122459781D01*
X173737684Y-122459778D01*
X173737686Y-122459774D01*
X173740500Y-122429768D01*
X174239500Y-122429768D01*
X174242313Y-122459769D01*
X174242315Y-122459781D01*
X174286544Y-122586178D01*
X174286545Y-122586180D01*
X174366069Y-122693930D01*
X174473819Y-122773454D01*
X174473821Y-122773455D01*
X174600218Y-122817684D01*
X174600222Y-122817684D01*
X174600226Y-122817686D01*
X174615231Y-122819093D01*
X174630232Y-122820500D01*
X174630236Y-122820500D01*
X175224768Y-122820500D01*
X175238101Y-122819249D01*
X175254774Y-122817686D01*
X175254778Y-122817684D01*
X175254781Y-122817684D01*
X175335325Y-122789500D01*
X175381179Y-122773455D01*
X175488930Y-122693930D01*
X175568455Y-122586179D01*
X175591044Y-122521623D01*
X175612684Y-122459781D01*
X175612684Y-122459778D01*
X175612686Y-122459774D01*
X175615204Y-122432924D01*
X175641061Y-122368015D01*
X175697905Y-122327389D01*
X175738662Y-122320500D01*
X176051853Y-122320500D01*
X176118892Y-122340185D01*
X176164647Y-122392989D01*
X176175311Y-122432921D01*
X176177353Y-122454699D01*
X176177353Y-122454701D01*
X176222124Y-122582645D01*
X176222207Y-122582882D01*
X176302850Y-122692150D01*
X176412118Y-122772793D01*
X176454845Y-122787744D01*
X176540299Y-122817646D01*
X176570730Y-122820500D01*
X176570734Y-122820500D01*
X177204270Y-122820500D01*
X177234699Y-122817646D01*
X177234701Y-122817646D01*
X177298790Y-122795219D01*
X177362882Y-122772793D01*
X177472150Y-122692150D01*
X177552793Y-122582882D01*
X177595868Y-122459781D01*
X177597646Y-122454701D01*
X177597646Y-122454699D01*
X177600500Y-122424269D01*
X177600500Y-122170000D01*
X178000001Y-122170000D01*
X178000001Y-122424196D01*
X178002851Y-122454606D01*
X178047653Y-122582645D01*
X178128207Y-122691792D01*
X178237354Y-122772346D01*
X178365397Y-122817149D01*
X178395778Y-122819998D01*
X178395806Y-122819999D01*
X178462499Y-122819998D01*
X178462500Y-122819998D01*
X178462500Y-122170000D01*
X178962500Y-122170000D01*
X178962500Y-122819999D01*
X179029196Y-122819999D01*
X179059606Y-122817148D01*
X179187645Y-122772346D01*
X179296792Y-122691792D01*
X179377346Y-122582645D01*
X179422149Y-122454604D01*
X179422149Y-122454600D01*
X179425000Y-122424206D01*
X179425000Y-122170000D01*
X178962500Y-122170000D01*
X178462500Y-122170000D01*
X178000001Y-122170000D01*
X177600500Y-122170000D01*
X177600500Y-121670000D01*
X178000000Y-121670000D01*
X178462500Y-121670000D01*
X178462500Y-121020000D01*
X178962500Y-121020000D01*
X178962500Y-121670000D01*
X179424999Y-121670000D01*
X179424999Y-121415803D01*
X179422148Y-121385393D01*
X179377346Y-121257354D01*
X179296792Y-121148207D01*
X179187645Y-121067653D01*
X179059602Y-121022850D01*
X179029207Y-121020000D01*
X178962500Y-121020000D01*
X178462500Y-121020000D01*
X178462499Y-121019999D01*
X178395804Y-121020000D01*
X178365393Y-121022851D01*
X178237354Y-121067653D01*
X178128207Y-121148207D01*
X178047653Y-121257354D01*
X178002850Y-121385395D01*
X178002850Y-121385399D01*
X178000000Y-121415793D01*
X178000000Y-121670000D01*
X177600500Y-121670000D01*
X177600500Y-121415730D01*
X177597646Y-121385298D01*
X177557789Y-121271397D01*
X177552793Y-121257118D01*
X177472150Y-121147850D01*
X177362882Y-121067207D01*
X177362880Y-121067206D01*
X177234700Y-121022353D01*
X177204270Y-121019500D01*
X177204266Y-121019500D01*
X176570734Y-121019500D01*
X176570730Y-121019500D01*
X176540300Y-121022353D01*
X176540298Y-121022353D01*
X176412119Y-121067206D01*
X176412117Y-121067207D01*
X176302850Y-121147850D01*
X176222207Y-121257117D01*
X176222206Y-121257119D01*
X176177354Y-121385298D01*
X176175311Y-121407079D01*
X176149453Y-121471987D01*
X176092607Y-121512612D01*
X176051853Y-121519500D01*
X175738662Y-121519500D01*
X175671623Y-121499815D01*
X175625868Y-121447011D01*
X175615204Y-121407076D01*
X175613171Y-121385399D01*
X175612686Y-121380226D01*
X175612684Y-121380222D01*
X175612684Y-121380218D01*
X175568455Y-121253821D01*
X175568454Y-121253819D01*
X175488930Y-121146069D01*
X175381180Y-121066545D01*
X175381178Y-121066544D01*
X175254781Y-121022315D01*
X175254769Y-121022313D01*
X175224768Y-121019500D01*
X175224764Y-121019500D01*
X174630236Y-121019500D01*
X174630232Y-121019500D01*
X174600230Y-121022313D01*
X174600218Y-121022315D01*
X174473821Y-121066544D01*
X174473819Y-121066545D01*
X174366069Y-121146069D01*
X174286545Y-121253819D01*
X174286544Y-121253821D01*
X174242315Y-121380218D01*
X174242313Y-121380230D01*
X174239500Y-121410231D01*
X174239500Y-122429768D01*
X173740500Y-122429768D01*
X173740500Y-122429764D01*
X173740500Y-121410236D01*
X173740041Y-121405345D01*
X173738171Y-121385399D01*
X173737686Y-121380226D01*
X173737684Y-121380222D01*
X173737684Y-121380218D01*
X173693455Y-121253821D01*
X173693454Y-121253819D01*
X173613930Y-121146069D01*
X173506180Y-121066545D01*
X173506178Y-121066544D01*
X173379781Y-121022315D01*
X173379769Y-121022313D01*
X173349768Y-121019500D01*
X173349764Y-121019500D01*
X172769755Y-121019500D01*
X172702716Y-120999815D01*
X172682074Y-120983181D01*
X171898575Y-120199681D01*
X171865090Y-120138358D01*
X171870074Y-120068666D01*
X171911946Y-120012733D01*
X171977410Y-119988316D01*
X171986256Y-119988000D01*
X184920245Y-119988000D01*
X184987284Y-120007685D01*
X185007926Y-120024319D01*
X185434749Y-120451142D01*
X185835428Y-120851820D01*
X185868913Y-120913143D01*
X185863929Y-120982834D01*
X185853477Y-121004286D01*
X185844848Y-121018367D01*
X185844842Y-121018379D01*
X185745427Y-121258389D01*
X185684778Y-121511009D01*
X185664396Y-121769999D01*
X185684778Y-122028990D01*
X185745427Y-122281610D01*
X185844843Y-122521623D01*
X185844845Y-122521627D01*
X185844846Y-122521628D01*
X185980588Y-122743140D01*
X186149311Y-122940689D01*
X186346860Y-123109412D01*
X186568372Y-123245154D01*
X186568374Y-123245154D01*
X186568376Y-123245156D01*
X186604213Y-123260000D01*
X186808390Y-123344573D01*
X187061006Y-123405221D01*
X187320000Y-123425604D01*
X187578994Y-123405221D01*
X187831610Y-123344573D01*
X188071628Y-123245154D01*
X188293140Y-123109412D01*
X188490689Y-122940689D01*
X188659412Y-122743140D01*
X188795154Y-122521628D01*
X188894573Y-122281610D01*
X188955221Y-122028994D01*
X188975604Y-121770000D01*
X188972153Y-121726153D01*
X188986517Y-121657778D01*
X189035568Y-121608021D01*
X189103734Y-121592682D01*
X189169371Y-121616631D01*
X189183452Y-121628745D01*
X190698181Y-123143474D01*
X190731666Y-123204797D01*
X190734500Y-123231155D01*
X190734500Y-123622248D01*
X190714815Y-123689287D01*
X190662011Y-123735042D01*
X190636860Y-123743414D01*
X190598205Y-123751823D01*
X190598200Y-123751824D01*
X190598199Y-123751825D01*
X190576281Y-123760000D01*
X190343480Y-123846830D01*
X190104892Y-123977109D01*
X190104891Y-123977110D01*
X189887259Y-124140028D01*
X189887247Y-124140038D01*
X189695038Y-124332247D01*
X189695028Y-124332259D01*
X189532110Y-124549891D01*
X189532109Y-124549892D01*
X189401830Y-124788480D01*
X189363176Y-124892117D01*
X189306825Y-125043199D01*
X189306824Y-125043202D01*
X189306823Y-125043206D01*
X189249040Y-125308832D01*
X189249039Y-125308839D01*
X189229645Y-125579998D01*
X189229645Y-125580001D01*
X189249039Y-125851160D01*
X189249040Y-125851167D01*
X189305454Y-126110500D01*
X189306825Y-126116801D01*
X189370602Y-126287792D01*
X189401830Y-126371519D01*
X189532109Y-126610107D01*
X189532110Y-126610108D01*
X189532113Y-126610113D01*
X189695029Y-126827742D01*
X189695033Y-126827746D01*
X189695038Y-126827752D01*
X189887247Y-127019961D01*
X189887253Y-127019966D01*
X189887258Y-127019971D01*
X190104887Y-127182887D01*
X190104891Y-127182889D01*
X190104892Y-127182890D01*
X190343481Y-127313169D01*
X190343480Y-127313169D01*
X190343484Y-127313170D01*
X190343487Y-127313172D01*
X190598199Y-127408175D01*
X190863840Y-127465961D01*
X191115604Y-127483967D01*
X191134999Y-127485355D01*
X191135000Y-127485355D01*
X191135001Y-127485355D01*
X191153100Y-127484060D01*
X191406160Y-127465961D01*
X191671801Y-127408175D01*
X191926513Y-127313172D01*
X191926517Y-127313169D01*
X191926519Y-127313169D01*
X192128698Y-127202771D01*
X192165113Y-127182887D01*
X192382742Y-127019971D01*
X192574971Y-126827742D01*
X192737887Y-126610113D01*
X192821120Y-126457682D01*
X192868169Y-126371519D01*
X192868169Y-126371517D01*
X192868172Y-126371513D01*
X192963175Y-126116801D01*
X193020961Y-125851160D01*
X193040355Y-125580000D01*
X194524417Y-125580000D01*
X194544699Y-125785932D01*
X194552152Y-125810500D01*
X194604768Y-125983954D01*
X194702315Y-126166450D01*
X194702317Y-126166452D01*
X194833589Y-126326410D01*
X194895416Y-126377149D01*
X194993550Y-126457685D01*
X195176046Y-126555232D01*
X195374066Y-126615300D01*
X195374065Y-126615300D01*
X195412647Y-126619100D01*
X195528392Y-126630500D01*
X195528395Y-126630500D01*
X195631605Y-126630500D01*
X195631608Y-126630500D01*
X195785934Y-126615300D01*
X195983954Y-126555232D01*
X196166450Y-126457685D01*
X196326410Y-126326410D01*
X196457685Y-126166450D01*
X196555232Y-125983954D01*
X196615300Y-125785934D01*
X196635583Y-125580000D01*
X196615300Y-125374066D01*
X196555232Y-125176046D01*
X196457685Y-124993550D01*
X196405702Y-124930209D01*
X196326410Y-124833589D01*
X196208677Y-124736969D01*
X196166450Y-124702315D01*
X195983954Y-124604768D01*
X195785934Y-124544700D01*
X195785932Y-124544699D01*
X195785934Y-124544699D01*
X195659092Y-124532207D01*
X195631608Y-124529500D01*
X195528392Y-124529500D01*
X195490298Y-124533251D01*
X195374067Y-124544699D01*
X195176043Y-124604769D01*
X195077667Y-124657353D01*
X194993550Y-124702315D01*
X194993548Y-124702316D01*
X194993547Y-124702317D01*
X194833589Y-124833589D01*
X194702317Y-124993547D01*
X194702315Y-124993550D01*
X194675777Y-125043199D01*
X194604769Y-125176043D01*
X194544699Y-125374067D01*
X194524417Y-125580000D01*
X193040355Y-125580000D01*
X193020961Y-125308840D01*
X192963175Y-125043199D01*
X192868172Y-124788487D01*
X192868170Y-124788484D01*
X192868169Y-124788480D01*
X192737890Y-124549892D01*
X192737889Y-124549891D01*
X192737887Y-124549887D01*
X192574971Y-124332258D01*
X192574966Y-124332253D01*
X192574961Y-124332247D01*
X192382752Y-124140038D01*
X192382746Y-124140033D01*
X192382742Y-124140029D01*
X192165113Y-123977113D01*
X192165108Y-123977110D01*
X192165107Y-123977109D01*
X191926518Y-123846830D01*
X191926519Y-123846830D01*
X191839050Y-123814206D01*
X191671801Y-123751825D01*
X191671797Y-123751824D01*
X191671794Y-123751823D01*
X191633140Y-123743414D01*
X191571817Y-123709928D01*
X191538333Y-123648604D01*
X191535500Y-123622248D01*
X191535500Y-123304091D01*
X191535500Y-122982381D01*
X191535500Y-122950467D01*
X191528653Y-122929397D01*
X191524111Y-122910477D01*
X191520646Y-122888596D01*
X191510584Y-122868849D01*
X191503140Y-122850876D01*
X191496295Y-122829809D01*
X191483274Y-122811887D01*
X191473108Y-122795298D01*
X191463050Y-122775558D01*
X191442398Y-122754906D01*
X191442380Y-122754886D01*
X187090920Y-118403426D01*
X187057435Y-118342103D01*
X187062419Y-118272411D01*
X187104291Y-118216478D01*
X187143665Y-118196768D01*
X187187653Y-118183853D01*
X187308728Y-118106043D01*
X187402977Y-117997273D01*
X187419999Y-117960001D01*
X189864645Y-117960001D01*
X189884039Y-118231160D01*
X189884040Y-118231167D01*
X189941368Y-118494701D01*
X189941825Y-118496801D01*
X190003312Y-118661654D01*
X190036830Y-118751519D01*
X190167109Y-118990107D01*
X190167110Y-118990108D01*
X190167113Y-118990113D01*
X190330029Y-119207742D01*
X190330033Y-119207746D01*
X190330038Y-119207752D01*
X190522247Y-119399961D01*
X190522253Y-119399966D01*
X190522258Y-119399971D01*
X190739887Y-119562887D01*
X190739891Y-119562889D01*
X190739892Y-119562890D01*
X190978481Y-119693169D01*
X190978480Y-119693169D01*
X190978484Y-119693170D01*
X190978487Y-119693172D01*
X191233199Y-119788175D01*
X191498840Y-119845961D01*
X191750605Y-119863967D01*
X191769999Y-119865355D01*
X191770000Y-119865355D01*
X191770001Y-119865355D01*
X191788100Y-119864060D01*
X192041160Y-119845961D01*
X192306801Y-119788175D01*
X192561513Y-119693172D01*
X192561517Y-119693169D01*
X192561519Y-119693169D01*
X192738742Y-119596398D01*
X192800113Y-119562887D01*
X193017742Y-119399971D01*
X193209971Y-119207742D01*
X193372887Y-118990113D01*
X193503172Y-118751513D01*
X193598175Y-118496801D01*
X193655961Y-118231160D01*
X193675355Y-117960000D01*
X199604417Y-117960000D01*
X199624699Y-118165932D01*
X199649208Y-118246726D01*
X199683720Y-118360500D01*
X199684769Y-118363956D01*
X199690594Y-118374853D01*
X199782315Y-118546450D01*
X199782317Y-118546452D01*
X199913589Y-118706410D01*
X200005641Y-118781954D01*
X200073550Y-118837685D01*
X200256046Y-118935232D01*
X200454066Y-118995300D01*
X200454065Y-118995300D01*
X200492647Y-118999100D01*
X200608392Y-119010500D01*
X200608395Y-119010500D01*
X200711605Y-119010500D01*
X200711608Y-119010500D01*
X200865934Y-118995300D01*
X201063954Y-118935232D01*
X201246450Y-118837685D01*
X201406410Y-118706410D01*
X201537685Y-118546450D01*
X201635232Y-118363954D01*
X201695300Y-118165934D01*
X201715583Y-117960000D01*
X201695300Y-117754066D01*
X201635232Y-117556046D01*
X201537685Y-117373550D01*
X201474959Y-117297118D01*
X201406410Y-117213589D01*
X201246452Y-117082317D01*
X201246453Y-117082317D01*
X201246450Y-117082315D01*
X201076554Y-116991502D01*
X201063956Y-116984769D01*
X201063955Y-116984768D01*
X201063954Y-116984768D01*
X200865934Y-116924700D01*
X200865932Y-116924699D01*
X200865934Y-116924699D01*
X200746805Y-116912966D01*
X200711608Y-116909500D01*
X200608392Y-116909500D01*
X200570298Y-116913251D01*
X200454067Y-116924699D01*
X200256043Y-116984769D01*
X200184181Y-117023181D01*
X200073550Y-117082315D01*
X200073548Y-117082316D01*
X200073547Y-117082317D01*
X199913589Y-117213589D01*
X199789742Y-117364500D01*
X199782315Y-117373550D01*
X199749202Y-117435500D01*
X199684769Y-117556043D01*
X199684768Y-117556045D01*
X199684768Y-117556046D01*
X199681332Y-117567374D01*
X199624699Y-117754067D01*
X199604417Y-117960000D01*
X193675355Y-117960000D01*
X193655961Y-117688840D01*
X193598175Y-117423199D01*
X193503172Y-117168487D01*
X193503170Y-117168484D01*
X193503169Y-117168480D01*
X193372890Y-116929892D01*
X193372889Y-116929891D01*
X193372887Y-116929887D01*
X193209971Y-116712258D01*
X193209966Y-116712253D01*
X193209961Y-116712247D01*
X193017752Y-116520038D01*
X193017746Y-116520033D01*
X193017742Y-116520029D01*
X192800113Y-116357113D01*
X192800108Y-116357110D01*
X192800107Y-116357109D01*
X192561518Y-116226830D01*
X192561519Y-116226830D01*
X192484088Y-116197950D01*
X192306801Y-116131825D01*
X192306794Y-116131823D01*
X192306793Y-116131823D01*
X192041167Y-116074040D01*
X192041160Y-116074039D01*
X191770001Y-116054645D01*
X191769999Y-116054645D01*
X191498839Y-116074039D01*
X191498832Y-116074040D01*
X191233206Y-116131823D01*
X191233202Y-116131824D01*
X191233199Y-116131825D01*
X191136216Y-116167998D01*
X190978480Y-116226830D01*
X190739892Y-116357109D01*
X190739891Y-116357110D01*
X190522259Y-116520028D01*
X190522247Y-116520038D01*
X190330038Y-116712247D01*
X190330028Y-116712259D01*
X190167110Y-116929891D01*
X190167109Y-116929892D01*
X190036830Y-117168480D01*
X189991357Y-117290398D01*
X189941825Y-117423199D01*
X189941824Y-117423202D01*
X189941823Y-117423206D01*
X189884040Y-117688832D01*
X189884039Y-117688839D01*
X189864645Y-117959998D01*
X189864645Y-117960001D01*
X187419999Y-117960001D01*
X187462765Y-117866357D01*
X187483247Y-117723900D01*
X187462765Y-117581443D01*
X187402977Y-117450527D01*
X187395157Y-117441502D01*
X187366396Y-117379694D01*
X187363246Y-117359796D01*
X187353186Y-117340052D01*
X187345740Y-117322074D01*
X187338897Y-117301013D01*
X187338896Y-117301012D01*
X187338896Y-117301010D01*
X187325869Y-117283081D01*
X187315704Y-117266492D01*
X187305650Y-117246758D01*
X187215942Y-117157050D01*
X183816819Y-113757926D01*
X183783334Y-113696603D01*
X183780500Y-113670245D01*
X183780500Y-113519999D01*
X195834396Y-113519999D01*
X195854778Y-113778990D01*
X195915427Y-114031610D01*
X196014843Y-114271623D01*
X196014845Y-114271627D01*
X196014846Y-114271628D01*
X196150588Y-114493140D01*
X196319311Y-114690689D01*
X196516860Y-114859412D01*
X196738372Y-114995154D01*
X196738374Y-114995154D01*
X196738376Y-114995156D01*
X196778187Y-115011646D01*
X196978390Y-115094573D01*
X197231006Y-115155221D01*
X197490000Y-115175604D01*
X197748994Y-115155221D01*
X198001610Y-115094573D01*
X198241628Y-114995154D01*
X198463140Y-114859412D01*
X198660689Y-114690689D01*
X198829412Y-114493140D01*
X198965154Y-114271628D01*
X199064573Y-114031610D01*
X199125221Y-113778994D01*
X199145604Y-113520000D01*
X199125221Y-113261006D01*
X199064573Y-113008390D01*
X199001879Y-112857035D01*
X198965156Y-112768376D01*
X198963933Y-112766381D01*
X198829412Y-112546860D01*
X198660689Y-112349311D01*
X198463140Y-112180588D01*
X198241628Y-112044846D01*
X198241627Y-112044845D01*
X198241623Y-112044843D01*
X198075627Y-111976086D01*
X198001610Y-111945427D01*
X198001611Y-111945427D01*
X197863921Y-111912370D01*
X197748994Y-111884779D01*
X197748992Y-111884778D01*
X197748991Y-111884778D01*
X197490000Y-111864396D01*
X197231009Y-111884778D01*
X196978389Y-111945427D01*
X196738376Y-112044843D01*
X196516859Y-112180588D01*
X196319311Y-112349311D01*
X196150588Y-112546859D01*
X196014843Y-112768376D01*
X195915427Y-113008389D01*
X195854778Y-113261009D01*
X195834396Y-113519999D01*
X183780500Y-113519999D01*
X183780500Y-113070730D01*
X183777646Y-113040300D01*
X183777646Y-113040298D01*
X183732793Y-112912119D01*
X183732792Y-112912117D01*
X183710395Y-112881770D01*
X183652150Y-112802850D01*
X183542882Y-112722207D01*
X183542880Y-112722206D01*
X183414700Y-112677353D01*
X183384270Y-112674500D01*
X183384266Y-112674500D01*
X182375734Y-112674500D01*
X182375730Y-112674500D01*
X182345300Y-112677353D01*
X182345298Y-112677353D01*
X182217119Y-112722206D01*
X182217117Y-112722207D01*
X182107850Y-112802850D01*
X182027207Y-112912117D01*
X182027206Y-112912119D01*
X181982353Y-113040298D01*
X181982353Y-113040300D01*
X181979500Y-113070730D01*
X181979500Y-113704269D01*
X181982353Y-113734699D01*
X181982353Y-113734701D01*
X182027206Y-113862880D01*
X182027207Y-113862882D01*
X182107850Y-113972150D01*
X182217118Y-114052793D01*
X182259845Y-114067743D01*
X182345299Y-114097646D01*
X182375730Y-114100500D01*
X182375734Y-114100500D01*
X182975245Y-114100500D01*
X183042284Y-114120185D01*
X183062926Y-114136819D01*
X183213926Y-114287819D01*
X183247411Y-114349142D01*
X183242427Y-114418834D01*
X183200555Y-114474767D01*
X183135091Y-114499184D01*
X183126245Y-114499500D01*
X182375730Y-114499500D01*
X182345300Y-114502353D01*
X182345298Y-114502353D01*
X182217119Y-114547206D01*
X182217117Y-114547207D01*
X182107850Y-114627850D01*
X182027207Y-114737117D01*
X182027206Y-114737119D01*
X181982353Y-114865298D01*
X181982353Y-114865300D01*
X181979500Y-114895730D01*
X181979500Y-115495244D01*
X181959815Y-115562283D01*
X181943181Y-115582925D01*
X181630426Y-115895681D01*
X181569103Y-115929166D01*
X181542745Y-115932000D01*
X168629755Y-115932000D01*
X168562716Y-115912315D01*
X168516961Y-115859511D01*
X168507017Y-115790353D01*
X168536042Y-115726797D01*
X168542074Y-115720319D01*
X169000952Y-115261441D01*
X169000957Y-115261434D01*
X169016450Y-115245942D01*
X169026509Y-115226198D01*
X169036669Y-115209618D01*
X169049696Y-115191689D01*
X169056542Y-115170617D01*
X169063988Y-115152643D01*
X169068129Y-115144516D01*
X169074046Y-115132904D01*
X169077512Y-115111016D01*
X169082051Y-115092110D01*
X169088900Y-115071033D01*
X169088900Y-114944167D01*
X169088900Y-114944166D01*
X169088900Y-113945281D01*
X169088900Y-113945280D01*
X169088900Y-113913367D01*
X169082051Y-113892289D01*
X169077512Y-113873382D01*
X169074046Y-113851496D01*
X169063986Y-113831753D01*
X169056544Y-113813785D01*
X169049697Y-113792711D01*
X169036666Y-113774776D01*
X169026503Y-113758189D01*
X169026369Y-113757926D01*
X169016450Y-113738458D01*
X168996039Y-113718047D01*
X168996019Y-113718025D01*
X159981987Y-104703993D01*
X159981956Y-104703964D01*
X159961042Y-104683050D01*
X159961041Y-104683049D01*
X159941300Y-104672990D01*
X159924714Y-104662826D01*
X159906790Y-104649804D01*
X159906791Y-104649804D01*
X159885718Y-104642957D01*
X159867745Y-104635512D01*
X159848007Y-104625455D01*
X159848004Y-104625454D01*
X159826118Y-104621987D01*
X159807207Y-104617446D01*
X159786139Y-104610601D01*
X159786134Y-104610600D01*
X159786133Y-104610600D01*
X159786129Y-104610600D01*
X129618355Y-104610600D01*
X129551316Y-104590915D01*
X129530674Y-104574281D01*
X128831382Y-103874989D01*
X128797897Y-103813666D01*
X128802881Y-103743974D01*
X128844753Y-103688041D01*
X128850147Y-103684222D01*
X128866110Y-103673556D01*
X128932785Y-103652679D01*
X129000166Y-103671163D01*
X129003892Y-103673558D01*
X129041768Y-103698867D01*
X129041770Y-103698868D01*
X129100247Y-103710499D01*
X129100250Y-103710500D01*
X129100252Y-103710500D01*
X130039750Y-103710500D01*
X130039751Y-103710499D01*
X130054568Y-103707552D01*
X130098229Y-103698868D01*
X130098231Y-103698867D01*
X130136108Y-103673558D01*
X130202785Y-103652679D01*
X130270165Y-103671163D01*
X130273892Y-103673558D01*
X130311767Y-103698866D01*
X130311769Y-103698867D01*
X130339690Y-103704421D01*
X130401601Y-103736804D01*
X130436176Y-103797519D01*
X130439500Y-103826038D01*
X130439500Y-103868724D01*
X130437973Y-103888121D01*
X130434508Y-103910000D01*
X130439128Y-103939170D01*
X130439131Y-103939194D01*
X130454352Y-104035301D01*
X130468842Y-104063738D01*
X130511950Y-104148342D01*
X130511952Y-104148344D01*
X130511954Y-104148347D01*
X130601652Y-104238045D01*
X130601654Y-104238046D01*
X130601658Y-104238050D01*
X130714696Y-104295646D01*
X130714697Y-104295646D01*
X130714699Y-104295647D01*
X130839997Y-104315492D01*
X130840000Y-104315492D01*
X130861879Y-104312026D01*
X130881275Y-104310500D01*
X152058431Y-104310500D01*
X152058433Y-104310500D01*
X152079501Y-104303654D01*
X152098417Y-104299112D01*
X152120304Y-104295646D01*
X152140044Y-104285586D01*
X152158011Y-104278144D01*
X152179090Y-104271296D01*
X152197026Y-104258263D01*
X152213588Y-104248114D01*
X152233342Y-104238050D01*
X152248834Y-104222557D01*
X152248841Y-104222552D01*
X152772527Y-103698866D01*
X153007123Y-103464269D01*
X166739500Y-103464269D01*
X166742353Y-103494699D01*
X166742353Y-103494701D01*
X166787206Y-103622880D01*
X166787207Y-103622882D01*
X166867850Y-103732150D01*
X166977118Y-103812793D01*
X167004302Y-103822305D01*
X167105295Y-103857645D01*
X167105299Y-103857645D01*
X167105301Y-103857646D01*
X167127078Y-103859688D01*
X167191984Y-103885544D01*
X167232610Y-103942388D01*
X167239500Y-103983146D01*
X167239500Y-104053829D01*
X167239501Y-104053839D01*
X167246346Y-104074907D01*
X167250887Y-104093818D01*
X167254354Y-104115704D01*
X167254355Y-104115707D01*
X167264412Y-104135445D01*
X167271857Y-104153418D01*
X167278704Y-104174490D01*
X167291726Y-104192414D01*
X167301890Y-104209000D01*
X167311570Y-104227997D01*
X167311950Y-104228742D01*
X167332864Y-104249656D01*
X167332893Y-104249687D01*
X167351669Y-104268463D01*
X167385154Y-104329786D01*
X167386726Y-104338495D01*
X167391134Y-104369154D01*
X167391135Y-104369156D01*
X167391135Y-104369157D01*
X167450923Y-104500073D01*
X167545172Y-104608843D01*
X167666247Y-104686653D01*
X167666250Y-104686654D01*
X167666249Y-104686654D01*
X167804336Y-104727199D01*
X167804338Y-104727200D01*
X167804339Y-104727200D01*
X167948262Y-104727200D01*
X167948262Y-104727199D01*
X168086353Y-104686653D01*
X168207428Y-104608843D01*
X168301677Y-104500073D01*
X168361465Y-104369157D01*
X168381947Y-104226700D01*
X168361465Y-104084243D01*
X168324720Y-104003784D01*
X168297993Y-103945260D01*
X168300094Y-103944300D01*
X168283963Y-103889343D01*
X168303653Y-103822305D01*
X168334325Y-103789586D01*
X168412150Y-103732150D01*
X168492793Y-103622882D01*
X168515219Y-103558790D01*
X168537646Y-103494701D01*
X168537646Y-103494699D01*
X168540500Y-103464269D01*
X168540500Y-102830730D01*
X168537646Y-102800300D01*
X168537646Y-102800298D01*
X168492793Y-102672119D01*
X168492792Y-102672117D01*
X168470851Y-102642388D01*
X168412150Y-102562850D01*
X168302882Y-102482207D01*
X168302880Y-102482206D01*
X168174700Y-102437353D01*
X168144270Y-102434500D01*
X168144266Y-102434500D01*
X167135734Y-102434500D01*
X167135730Y-102434500D01*
X167105300Y-102437353D01*
X167105298Y-102437353D01*
X166977119Y-102482206D01*
X166977117Y-102482207D01*
X166867850Y-102562850D01*
X166787207Y-102672117D01*
X166787206Y-102672119D01*
X166742353Y-102800298D01*
X166742353Y-102800300D01*
X166739500Y-102830730D01*
X166739500Y-103464269D01*
X153007123Y-103464269D01*
X153299573Y-103171818D01*
X153360896Y-103138334D01*
X153387254Y-103135500D01*
X153986770Y-103135500D01*
X154017199Y-103132646D01*
X154017201Y-103132646D01*
X154081290Y-103110219D01*
X154145382Y-103087793D01*
X154254650Y-103007150D01*
X154335293Y-102897882D01*
X154369438Y-102800301D01*
X154380146Y-102769701D01*
X154380146Y-102769699D01*
X154382189Y-102747921D01*
X154408047Y-102683013D01*
X154464893Y-102642388D01*
X154505647Y-102635500D01*
X156973431Y-102635500D01*
X156973433Y-102635500D01*
X156994501Y-102628654D01*
X157013417Y-102624112D01*
X157035304Y-102620646D01*
X157055044Y-102610586D01*
X157073011Y-102603144D01*
X157094090Y-102596296D01*
X157112026Y-102583263D01*
X157128588Y-102573114D01*
X157148342Y-102563050D01*
X157163834Y-102547557D01*
X157163841Y-102547552D01*
X157579574Y-102131819D01*
X157640897Y-102098334D01*
X157667255Y-102095500D01*
X158512516Y-102095500D01*
X158583042Y-102081471D01*
X158583042Y-102081470D01*
X158583046Y-102081470D01*
X158663028Y-102028028D01*
X158716470Y-101948046D01*
X158730500Y-101877514D01*
X158730500Y-101666154D01*
X158750185Y-101599116D01*
X158766819Y-101578474D01*
X161097819Y-99247474D01*
X161159142Y-99213989D01*
X161228834Y-99218973D01*
X161284767Y-99260845D01*
X161309184Y-99326309D01*
X161309500Y-99335154D01*
X161309500Y-99337514D01*
X161309500Y-99337516D01*
X161309499Y-99337516D01*
X161323528Y-99408042D01*
X161323531Y-99408048D01*
X161372542Y-99481398D01*
X161376972Y-99488028D01*
X161456954Y-99541470D01*
X161456955Y-99541470D01*
X161456957Y-99541471D01*
X161527483Y-99555500D01*
X161527486Y-99555500D01*
X163462516Y-99555500D01*
X163533042Y-99541471D01*
X163533042Y-99541470D01*
X163533046Y-99541470D01*
X163613028Y-99488028D01*
X163613028Y-99488027D01*
X163622950Y-99481398D01*
X163689628Y-99460520D01*
X163691841Y-99460500D01*
X166710931Y-99460500D01*
X166710933Y-99460500D01*
X166732001Y-99453654D01*
X166750917Y-99449112D01*
X166772804Y-99445646D01*
X166792544Y-99435586D01*
X166810511Y-99428144D01*
X166831590Y-99421296D01*
X166849526Y-99408263D01*
X166866088Y-99398114D01*
X166885842Y-99388050D01*
X166901334Y-99372557D01*
X166901341Y-99372552D01*
X167457074Y-98816819D01*
X167518397Y-98783334D01*
X167544755Y-98780500D01*
X168144270Y-98780500D01*
X168174699Y-98777646D01*
X168174701Y-98777646D01*
X168238790Y-98755219D01*
X168302882Y-98732793D01*
X168412150Y-98652150D01*
X168492793Y-98542882D01*
X168492794Y-98542879D01*
X168497137Y-98534663D01*
X168500445Y-98536411D01*
X168530601Y-98494314D01*
X168595539Y-98468529D01*
X168606978Y-98468000D01*
X173095331Y-98468000D01*
X173095333Y-98468000D01*
X173116401Y-98461154D01*
X173135317Y-98456612D01*
X173157204Y-98453146D01*
X173176944Y-98443086D01*
X173194911Y-98435644D01*
X173215990Y-98428796D01*
X173233926Y-98415763D01*
X173250488Y-98405614D01*
X173270242Y-98395550D01*
X173285734Y-98380057D01*
X173285741Y-98380052D01*
X173486293Y-98179500D01*
X174293947Y-97371844D01*
X174355268Y-97338361D01*
X174424959Y-97343345D01*
X174455259Y-97359757D01*
X174473815Y-97373452D01*
X174473821Y-97373455D01*
X174600218Y-97417684D01*
X174600222Y-97417684D01*
X174600226Y-97417686D01*
X174615231Y-97419093D01*
X174630232Y-97420500D01*
X174630236Y-97420500D01*
X175224768Y-97420500D01*
X175238101Y-97419249D01*
X175254774Y-97417686D01*
X175254778Y-97417684D01*
X175254781Y-97417684D01*
X175335382Y-97389480D01*
X175381179Y-97373455D01*
X175488930Y-97293930D01*
X175568455Y-97186179D01*
X175597824Y-97102248D01*
X175612684Y-97059781D01*
X175612684Y-97059778D01*
X175612686Y-97059774D01*
X175614203Y-97043593D01*
X175615204Y-97032924D01*
X175641061Y-96968015D01*
X175697905Y-96927389D01*
X175738662Y-96920500D01*
X176051853Y-96920500D01*
X176118892Y-96940185D01*
X176164647Y-96992989D01*
X176175311Y-97032921D01*
X176177353Y-97054699D01*
X176177353Y-97054701D01*
X176217493Y-97169410D01*
X176222207Y-97182882D01*
X176302850Y-97292150D01*
X176412118Y-97372793D01*
X176454845Y-97387744D01*
X176540299Y-97417646D01*
X176570730Y-97420500D01*
X176570734Y-97420500D01*
X177204270Y-97420500D01*
X177234699Y-97417646D01*
X177234701Y-97417646D01*
X177302007Y-97394094D01*
X177362882Y-97372793D01*
X177472150Y-97292150D01*
X177552793Y-97182882D01*
X177595868Y-97059781D01*
X177597646Y-97054701D01*
X177597646Y-97054699D01*
X177600500Y-97024269D01*
X177600500Y-96770000D01*
X178000001Y-96770000D01*
X178000001Y-97024196D01*
X178002851Y-97054606D01*
X178047653Y-97182645D01*
X178128207Y-97291792D01*
X178237354Y-97372346D01*
X178365397Y-97417149D01*
X178395778Y-97419998D01*
X178395806Y-97419999D01*
X178462499Y-97419998D01*
X178462500Y-97419998D01*
X178462500Y-96770000D01*
X178962500Y-96770000D01*
X178962500Y-97419999D01*
X179029196Y-97419999D01*
X179059606Y-97417148D01*
X179187645Y-97372346D01*
X179296792Y-97291792D01*
X179377346Y-97182645D01*
X179422149Y-97054604D01*
X179422149Y-97054600D01*
X179425000Y-97024206D01*
X179425000Y-96770000D01*
X178962500Y-96770000D01*
X178462500Y-96770000D01*
X178000001Y-96770000D01*
X177600500Y-96770000D01*
X177600500Y-96270000D01*
X178000000Y-96270000D01*
X178462500Y-96270000D01*
X178462500Y-95620000D01*
X178962500Y-95620000D01*
X178962500Y-96270000D01*
X179424999Y-96270000D01*
X179424999Y-96015803D01*
X179422148Y-95985393D01*
X179377346Y-95857354D01*
X179296792Y-95748207D01*
X179187645Y-95667653D01*
X179059602Y-95622850D01*
X179029207Y-95620000D01*
X178962500Y-95620000D01*
X178462500Y-95620000D01*
X178462499Y-95619999D01*
X178395804Y-95620000D01*
X178365393Y-95622851D01*
X178237354Y-95667653D01*
X178128207Y-95748207D01*
X178047653Y-95857354D01*
X178002850Y-95985395D01*
X178002850Y-95985399D01*
X178000000Y-96015793D01*
X178000000Y-96270000D01*
X177600500Y-96270000D01*
X177600500Y-96015730D01*
X177597646Y-95985300D01*
X177597646Y-95985298D01*
X177553609Y-95859450D01*
X177552793Y-95857118D01*
X177472150Y-95747850D01*
X177362882Y-95667207D01*
X177362880Y-95667206D01*
X177234700Y-95622353D01*
X177204270Y-95619500D01*
X177204266Y-95619500D01*
X176570734Y-95619500D01*
X176570730Y-95619500D01*
X176540300Y-95622353D01*
X176540298Y-95622353D01*
X176412119Y-95667206D01*
X176412117Y-95667207D01*
X176302850Y-95747850D01*
X176222207Y-95857117D01*
X176222206Y-95857119D01*
X176177353Y-95985298D01*
X176177353Y-95985300D01*
X176175311Y-96007079D01*
X176149453Y-96071987D01*
X176092607Y-96112612D01*
X176051853Y-96119500D01*
X175738662Y-96119500D01*
X175671623Y-96099815D01*
X175625868Y-96047011D01*
X175615204Y-96007076D01*
X175613171Y-95985399D01*
X175612686Y-95980226D01*
X175612684Y-95980222D01*
X175612684Y-95980218D01*
X175568455Y-95853821D01*
X175568454Y-95853819D01*
X175488930Y-95746069D01*
X175381180Y-95666545D01*
X175381178Y-95666544D01*
X175254781Y-95622315D01*
X175254769Y-95622313D01*
X175224768Y-95619500D01*
X175224764Y-95619500D01*
X175119355Y-95619500D01*
X175052316Y-95599815D01*
X175006561Y-95547011D01*
X174996617Y-95477853D01*
X175025642Y-95414297D01*
X175031674Y-95407819D01*
X176530074Y-93909419D01*
X176591397Y-93875934D01*
X176617755Y-93873100D01*
X178318131Y-93873100D01*
X178318133Y-93873100D01*
X178339201Y-93866254D01*
X178358117Y-93861712D01*
X178380004Y-93858246D01*
X178399744Y-93848186D01*
X178417711Y-93840744D01*
X178438790Y-93833896D01*
X178456726Y-93820863D01*
X178473288Y-93810714D01*
X178493042Y-93800650D01*
X178508534Y-93785157D01*
X178508541Y-93785152D01*
X179025518Y-93268175D01*
X181916235Y-90377455D01*
X181977556Y-90343972D01*
X182047248Y-90348956D01*
X182103181Y-90390828D01*
X182103594Y-90391384D01*
X182107850Y-90397150D01*
X182217118Y-90477793D01*
X182255199Y-90491118D01*
X182345299Y-90522646D01*
X182375730Y-90525500D01*
X182375734Y-90525500D01*
X183384270Y-90525500D01*
X183414699Y-90522646D01*
X183414701Y-90522646D01*
X183504798Y-90491119D01*
X183542882Y-90477793D01*
X183652150Y-90397150D01*
X183732793Y-90287882D01*
X183766253Y-90192259D01*
X183777646Y-90159701D01*
X183777646Y-90159699D01*
X183780500Y-90129269D01*
X183780500Y-89753754D01*
X183800185Y-89686715D01*
X183852989Y-89640960D01*
X183922147Y-89631016D01*
X183985703Y-89660041D01*
X183992167Y-89666060D01*
X185345923Y-91019815D01*
X186883181Y-92557073D01*
X186916666Y-92618396D01*
X186919500Y-92644754D01*
X186919500Y-93550998D01*
X186899815Y-93618037D01*
X186847011Y-93663792D01*
X186824450Y-93671571D01*
X186808392Y-93675426D01*
X186808390Y-93675427D01*
X186568376Y-93774843D01*
X186346859Y-93910588D01*
X186149311Y-94079311D01*
X185980588Y-94276859D01*
X185844843Y-94498376D01*
X185745427Y-94738389D01*
X185684778Y-94991009D01*
X185664396Y-95250000D01*
X185684778Y-95508990D01*
X185745427Y-95761610D01*
X185844845Y-96001626D01*
X185853474Y-96015708D01*
X185871718Y-96083154D01*
X185850601Y-96149756D01*
X185835427Y-96168178D01*
X181117926Y-100885681D01*
X181056603Y-100919166D01*
X181030245Y-100922000D01*
X168606978Y-100922000D01*
X168539939Y-100902315D01*
X168498574Y-100854577D01*
X168497137Y-100855337D01*
X168492793Y-100847118D01*
X168466484Y-100811471D01*
X168412150Y-100737850D01*
X168302882Y-100657207D01*
X168302880Y-100657206D01*
X168174700Y-100612353D01*
X168144270Y-100609500D01*
X168144266Y-100609500D01*
X167544755Y-100609500D01*
X167477716Y-100589815D01*
X167457074Y-100573181D01*
X166906787Y-100022893D01*
X166906756Y-100022864D01*
X166885842Y-100001950D01*
X166885841Y-100001949D01*
X166866100Y-99991890D01*
X166849514Y-99981726D01*
X166831590Y-99968704D01*
X166831591Y-99968704D01*
X166810518Y-99961857D01*
X166792545Y-99954412D01*
X166772807Y-99944355D01*
X166772804Y-99944354D01*
X166750918Y-99940887D01*
X166732007Y-99936346D01*
X166710939Y-99929501D01*
X166710934Y-99929500D01*
X166710933Y-99929500D01*
X166710929Y-99929500D01*
X163691841Y-99929500D01*
X163624802Y-99909815D01*
X163622950Y-99908602D01*
X163613028Y-99901972D01*
X163533046Y-99848530D01*
X163533044Y-99848529D01*
X163533042Y-99848528D01*
X163462516Y-99834500D01*
X163462514Y-99834500D01*
X161527486Y-99834500D01*
X161527484Y-99834500D01*
X161456957Y-99848528D01*
X161456951Y-99848531D01*
X161376972Y-99901971D01*
X161376971Y-99901972D01*
X161323531Y-99981951D01*
X161323528Y-99981957D01*
X161309500Y-100052483D01*
X161309500Y-100052486D01*
X161309500Y-100607514D01*
X161309500Y-100607516D01*
X161309499Y-100607516D01*
X161323528Y-100678042D01*
X161323531Y-100678048D01*
X161376971Y-100758027D01*
X161376972Y-100758028D01*
X161456954Y-100811470D01*
X161456955Y-100811470D01*
X161456957Y-100811471D01*
X161527483Y-100825500D01*
X162403746Y-100825500D01*
X162470785Y-100845185D01*
X162516540Y-100897989D01*
X162526484Y-100967147D01*
X162497459Y-101030703D01*
X162491427Y-101037181D01*
X162460427Y-101068181D01*
X162399104Y-101101666D01*
X162372746Y-101104500D01*
X161527484Y-101104500D01*
X161456957Y-101118528D01*
X161456951Y-101118531D01*
X161376972Y-101171971D01*
X161376971Y-101171972D01*
X161323531Y-101251951D01*
X161323528Y-101251957D01*
X161309500Y-101322483D01*
X161309500Y-101322486D01*
X161309500Y-101877514D01*
X161309500Y-101877516D01*
X161309499Y-101877516D01*
X161323528Y-101948042D01*
X161323531Y-101948048D01*
X161351729Y-101990249D01*
X161376972Y-102028028D01*
X161456954Y-102081470D01*
X161456955Y-102081470D01*
X161456957Y-102081471D01*
X161527483Y-102095500D01*
X161527486Y-102095500D01*
X163462516Y-102095500D01*
X163533042Y-102081471D01*
X163533042Y-102081470D01*
X163533046Y-102081470D01*
X163613028Y-102028028D01*
X163666470Y-101948046D01*
X163680500Y-101877514D01*
X163680500Y-101835915D01*
X163700185Y-101768876D01*
X163752989Y-101723121D01*
X163822147Y-101713177D01*
X163839425Y-101716935D01*
X163895839Y-101733500D01*
X164039762Y-101733500D01*
X164039762Y-101733499D01*
X164174420Y-101693961D01*
X164177850Y-101692954D01*
X164177850Y-101692953D01*
X164177853Y-101692953D01*
X164298928Y-101615143D01*
X164393177Y-101506373D01*
X164452965Y-101375457D01*
X164473447Y-101233000D01*
X164452965Y-101090543D01*
X164393177Y-100959627D01*
X164372445Y-100935701D01*
X164343422Y-100872146D01*
X164353366Y-100802988D01*
X164399121Y-100750184D01*
X164466160Y-100730500D01*
X166430245Y-100730500D01*
X166497284Y-100750185D01*
X166517926Y-100766819D01*
X166703181Y-100952074D01*
X166736666Y-101013397D01*
X166739500Y-101039755D01*
X166739500Y-101639269D01*
X166742353Y-101669699D01*
X166742353Y-101669701D01*
X166787206Y-101797880D01*
X166787207Y-101797882D01*
X166867850Y-101907150D01*
X166977118Y-101987793D01*
X167019845Y-102002743D01*
X167105299Y-102032646D01*
X167135730Y-102035500D01*
X167135734Y-102035500D01*
X168144270Y-102035500D01*
X168174699Y-102032646D01*
X168174701Y-102032646D01*
X168238790Y-102010219D01*
X168302882Y-101987793D01*
X168412150Y-101907150D01*
X168492793Y-101797882D01*
X168492794Y-101797879D01*
X168497137Y-101789663D01*
X168500445Y-101791411D01*
X168530601Y-101749314D01*
X168595539Y-101723529D01*
X168606978Y-101723000D01*
X181310931Y-101723000D01*
X181310933Y-101723000D01*
X181332001Y-101716154D01*
X181350917Y-101711612D01*
X181372804Y-101708146D01*
X181392544Y-101698086D01*
X181410511Y-101690644D01*
X181431590Y-101683796D01*
X181449526Y-101670763D01*
X181466088Y-101660614D01*
X181485842Y-101650550D01*
X181501334Y-101635057D01*
X181501341Y-101635052D01*
X182704178Y-100432215D01*
X186401822Y-96734569D01*
X186463143Y-96701086D01*
X186532835Y-96706070D01*
X186554290Y-96716524D01*
X186568372Y-96725154D01*
X186808390Y-96824573D01*
X187061006Y-96885221D01*
X187320000Y-96905604D01*
X187578994Y-96885221D01*
X187831610Y-96824573D01*
X188071628Y-96725154D01*
X188293140Y-96589412D01*
X188490689Y-96420689D01*
X188659412Y-96223140D01*
X188795154Y-96001628D01*
X188894573Y-95761610D01*
X188955221Y-95508994D01*
X188975604Y-95250000D01*
X188955221Y-94991006D01*
X188894573Y-94738390D01*
X188826301Y-94573567D01*
X188795156Y-94498376D01*
X188791219Y-94491952D01*
X188659412Y-94276860D01*
X188490689Y-94079311D01*
X188293140Y-93910588D01*
X188071628Y-93774846D01*
X188071627Y-93774845D01*
X188071623Y-93774843D01*
X187905627Y-93706086D01*
X187831610Y-93675427D01*
X187831608Y-93675426D01*
X187831607Y-93675426D01*
X187815550Y-93671571D01*
X187754959Y-93636779D01*
X187722796Y-93574752D01*
X187720500Y-93550998D01*
X187720500Y-92393659D01*
X187720499Y-92393629D01*
X187720499Y-92364068D01*
X187720499Y-92364067D01*
X187713653Y-92343001D01*
X187709111Y-92324080D01*
X187705646Y-92302196D01*
X187695586Y-92282452D01*
X187688140Y-92264474D01*
X187681297Y-92243413D01*
X187681296Y-92243412D01*
X187681296Y-92243410D01*
X187668269Y-92225481D01*
X187658104Y-92208892D01*
X187648050Y-92189158D01*
X187558342Y-92099450D01*
X183816819Y-88357926D01*
X183783334Y-88296603D01*
X183780500Y-88270245D01*
X183780500Y-88148254D01*
X183800185Y-88081215D01*
X183852989Y-88035460D01*
X183922147Y-88025516D01*
X183985703Y-88054541D01*
X183992181Y-88060573D01*
X190698181Y-94766573D01*
X190731666Y-94827896D01*
X190734500Y-94854254D01*
X190734500Y-97102248D01*
X190714815Y-97169287D01*
X190662011Y-97215042D01*
X190636860Y-97223414D01*
X190598205Y-97231823D01*
X190598200Y-97231824D01*
X190598199Y-97231825D01*
X190527536Y-97258181D01*
X190343480Y-97326830D01*
X190104892Y-97457109D01*
X190104891Y-97457110D01*
X189887259Y-97620028D01*
X189887247Y-97620038D01*
X189695038Y-97812247D01*
X189695028Y-97812259D01*
X189532110Y-98029891D01*
X189532109Y-98029892D01*
X189401830Y-98268480D01*
X189356497Y-98390024D01*
X189306825Y-98523199D01*
X189306824Y-98523202D01*
X189306823Y-98523206D01*
X189249040Y-98788832D01*
X189249039Y-98788839D01*
X189229645Y-99059998D01*
X189229645Y-99060001D01*
X189249039Y-99331160D01*
X189249040Y-99331167D01*
X189306823Y-99596793D01*
X189306825Y-99596801D01*
X189373520Y-99775616D01*
X189401830Y-99851519D01*
X189532109Y-100090107D01*
X189532110Y-100090108D01*
X189532113Y-100090113D01*
X189695029Y-100307742D01*
X189695033Y-100307746D01*
X189695038Y-100307752D01*
X189887247Y-100499961D01*
X189887253Y-100499966D01*
X189887258Y-100499971D01*
X190104887Y-100662887D01*
X190104891Y-100662889D01*
X190104892Y-100662890D01*
X190343481Y-100793169D01*
X190343480Y-100793169D01*
X190343484Y-100793170D01*
X190343487Y-100793172D01*
X190598199Y-100888175D01*
X190863840Y-100945961D01*
X191115604Y-100963967D01*
X191134999Y-100965355D01*
X191135000Y-100965355D01*
X191135001Y-100965355D01*
X191153100Y-100964060D01*
X191406160Y-100945961D01*
X191671801Y-100888175D01*
X191926513Y-100793172D01*
X191926517Y-100793169D01*
X191926519Y-100793169D01*
X192045812Y-100728029D01*
X192165113Y-100662887D01*
X192382742Y-100499971D01*
X192574971Y-100307742D01*
X192737887Y-100090113D01*
X192821850Y-99936346D01*
X192868169Y-99851519D01*
X192868169Y-99851517D01*
X192868172Y-99851513D01*
X192963175Y-99596801D01*
X193020961Y-99331160D01*
X193040355Y-99060000D01*
X194524417Y-99060000D01*
X194544699Y-99265932D01*
X194544700Y-99265934D01*
X194604768Y-99463954D01*
X194702315Y-99646450D01*
X194712685Y-99659086D01*
X194833589Y-99806410D01*
X194890678Y-99853261D01*
X194993550Y-99937685D01*
X195176046Y-100035232D01*
X195374066Y-100095300D01*
X195374065Y-100095300D01*
X195412647Y-100099100D01*
X195528392Y-100110500D01*
X195528395Y-100110500D01*
X195631605Y-100110500D01*
X195631608Y-100110500D01*
X195785934Y-100095300D01*
X195983954Y-100035232D01*
X196166450Y-99937685D01*
X196326410Y-99806410D01*
X196457685Y-99646450D01*
X196555232Y-99463954D01*
X196615300Y-99265934D01*
X196635583Y-99060000D01*
X196615300Y-98854066D01*
X196555232Y-98656046D01*
X196457685Y-98473550D01*
X196405058Y-98409423D01*
X196326410Y-98313589D01*
X196200410Y-98210185D01*
X196166450Y-98182315D01*
X195983954Y-98084768D01*
X195785934Y-98024700D01*
X195785932Y-98024699D01*
X195785934Y-98024699D01*
X195666805Y-98012966D01*
X195631608Y-98009500D01*
X195528392Y-98009500D01*
X195490298Y-98013251D01*
X195374067Y-98024699D01*
X195176043Y-98084769D01*
X195095186Y-98127989D01*
X194993550Y-98182315D01*
X194993548Y-98182316D01*
X194993547Y-98182317D01*
X194833589Y-98313589D01*
X194703115Y-98472575D01*
X194702315Y-98473550D01*
X194678634Y-98517853D01*
X194604769Y-98656043D01*
X194604768Y-98656045D01*
X194604768Y-98656046D01*
X194597898Y-98678692D01*
X194544699Y-98854067D01*
X194524417Y-99060000D01*
X193040355Y-99060000D01*
X193020961Y-98788840D01*
X192963175Y-98523199D01*
X192868172Y-98268487D01*
X192868170Y-98268484D01*
X192868169Y-98268480D01*
X192737890Y-98029892D01*
X192737889Y-98029891D01*
X192737887Y-98029887D01*
X192574971Y-97812258D01*
X192574966Y-97812253D01*
X192574961Y-97812247D01*
X192382752Y-97620038D01*
X192382746Y-97620033D01*
X192382742Y-97620029D01*
X192165113Y-97457113D01*
X192165108Y-97457110D01*
X192165107Y-97457109D01*
X191926518Y-97326830D01*
X191926519Y-97326830D01*
X191844903Y-97296389D01*
X191671801Y-97231825D01*
X191671797Y-97231824D01*
X191671794Y-97231823D01*
X191633140Y-97223414D01*
X191571817Y-97189928D01*
X191538333Y-97128604D01*
X191535500Y-97102248D01*
X191535500Y-94603159D01*
X191535499Y-94603129D01*
X191535499Y-94573568D01*
X191535499Y-94573567D01*
X191528653Y-94552501D01*
X191524111Y-94533580D01*
X191523554Y-94530062D01*
X191520646Y-94511696D01*
X191510586Y-94491952D01*
X191503140Y-94473974D01*
X191496297Y-94452913D01*
X191496296Y-94452912D01*
X191496296Y-94452910D01*
X191483269Y-94434981D01*
X191473104Y-94418392D01*
X191463050Y-94398658D01*
X191373342Y-94308950D01*
X188504394Y-91440001D01*
X189864645Y-91440001D01*
X189884039Y-91711160D01*
X189884040Y-91711167D01*
X189941368Y-91974701D01*
X189941825Y-91976801D01*
X190018330Y-92181920D01*
X190036830Y-92231519D01*
X190167109Y-92470107D01*
X190167110Y-92470108D01*
X190167113Y-92470113D01*
X190330029Y-92687742D01*
X190330033Y-92687746D01*
X190330038Y-92687752D01*
X190522247Y-92879961D01*
X190522253Y-92879966D01*
X190522258Y-92879971D01*
X190739887Y-93042887D01*
X190739891Y-93042889D01*
X190739892Y-93042890D01*
X190978481Y-93173169D01*
X190978480Y-93173169D01*
X190978484Y-93173170D01*
X190978487Y-93173172D01*
X191233199Y-93268175D01*
X191498840Y-93325961D01*
X191750605Y-93343967D01*
X191769999Y-93345355D01*
X191770000Y-93345355D01*
X191770001Y-93345355D01*
X191788100Y-93344060D01*
X192041160Y-93325961D01*
X192306801Y-93268175D01*
X192561513Y-93173172D01*
X192561517Y-93173169D01*
X192561519Y-93173169D01*
X192751803Y-93069266D01*
X192800113Y-93042887D01*
X193017742Y-92879971D01*
X193209971Y-92687742D01*
X193372887Y-92470113D01*
X193464576Y-92302196D01*
X193503169Y-92231519D01*
X193503169Y-92231517D01*
X193503172Y-92231513D01*
X193598175Y-91976801D01*
X193655961Y-91711160D01*
X193675355Y-91440000D01*
X199604417Y-91440000D01*
X199624699Y-91645932D01*
X199624700Y-91645934D01*
X199684768Y-91843954D01*
X199782315Y-92026450D01*
X199808088Y-92057855D01*
X199913589Y-92186410D01*
X200008712Y-92264474D01*
X200073550Y-92317685D01*
X200256046Y-92415232D01*
X200454066Y-92475300D01*
X200454065Y-92475300D01*
X200492647Y-92479100D01*
X200608392Y-92490500D01*
X200608395Y-92490500D01*
X200711605Y-92490500D01*
X200711608Y-92490500D01*
X200865934Y-92475300D01*
X201063954Y-92415232D01*
X201246450Y-92317685D01*
X201406410Y-92186410D01*
X201537685Y-92026450D01*
X201635232Y-91843954D01*
X201695300Y-91645934D01*
X201715583Y-91440000D01*
X201695300Y-91234066D01*
X201635232Y-91036046D01*
X201537685Y-90853550D01*
X201474959Y-90777118D01*
X201406410Y-90693589D01*
X201276780Y-90587206D01*
X201246450Y-90562315D01*
X201063954Y-90464768D01*
X200865934Y-90404700D01*
X200865932Y-90404699D01*
X200865934Y-90404699D01*
X200746805Y-90392966D01*
X200711608Y-90389500D01*
X200608392Y-90389500D01*
X200570298Y-90393251D01*
X200454067Y-90404699D01*
X200256043Y-90464769D01*
X200206747Y-90491119D01*
X200073550Y-90562315D01*
X200073548Y-90562316D01*
X200073547Y-90562317D01*
X199913589Y-90693589D01*
X199782317Y-90853547D01*
X199684769Y-91036043D01*
X199624699Y-91234067D01*
X199604417Y-91440000D01*
X193675355Y-91440000D01*
X193655961Y-91168840D01*
X193598175Y-90903199D01*
X193503172Y-90648487D01*
X193503170Y-90648484D01*
X193503169Y-90648480D01*
X193372890Y-90409892D01*
X193372889Y-90409891D01*
X193372887Y-90409887D01*
X193209971Y-90192258D01*
X193209966Y-90192253D01*
X193209961Y-90192247D01*
X193017752Y-90000038D01*
X193017746Y-90000033D01*
X193017742Y-90000029D01*
X192800113Y-89837113D01*
X192800108Y-89837110D01*
X192800107Y-89837109D01*
X192561518Y-89706830D01*
X192561519Y-89706830D01*
X192507588Y-89686715D01*
X192306801Y-89611825D01*
X192306794Y-89611823D01*
X192306793Y-89611823D01*
X192041167Y-89554040D01*
X192041160Y-89554039D01*
X191770001Y-89534645D01*
X191769999Y-89534645D01*
X191498839Y-89554039D01*
X191498832Y-89554040D01*
X191233206Y-89611823D01*
X191233202Y-89611824D01*
X191233199Y-89611825D01*
X191138058Y-89647311D01*
X190978480Y-89706830D01*
X190739892Y-89837109D01*
X190739891Y-89837110D01*
X190522259Y-90000028D01*
X190522247Y-90000038D01*
X190330038Y-90192247D01*
X190330028Y-90192259D01*
X190167110Y-90409891D01*
X190167109Y-90409892D01*
X190036830Y-90648480D01*
X190020005Y-90693590D01*
X189941825Y-90903199D01*
X189941824Y-90903202D01*
X189941823Y-90903206D01*
X189884040Y-91168832D01*
X189884039Y-91168839D01*
X189864645Y-91439998D01*
X189864645Y-91440001D01*
X188504394Y-91440001D01*
X184064394Y-87000000D01*
X195834396Y-87000000D01*
X195854778Y-87258990D01*
X195915427Y-87511610D01*
X196014843Y-87751623D01*
X196014845Y-87751627D01*
X196014846Y-87751628D01*
X196150588Y-87973140D01*
X196319311Y-88170689D01*
X196516860Y-88339412D01*
X196738372Y-88475154D01*
X196738374Y-88475154D01*
X196738376Y-88475156D01*
X196799693Y-88500554D01*
X196978390Y-88574573D01*
X197231006Y-88635221D01*
X197490000Y-88655604D01*
X197748994Y-88635221D01*
X198001610Y-88574573D01*
X198241628Y-88475154D01*
X198463140Y-88339412D01*
X198660689Y-88170689D01*
X198829412Y-87973140D01*
X198965154Y-87751628D01*
X199064573Y-87511610D01*
X199125221Y-87258994D01*
X199145604Y-87000000D01*
X199125221Y-86741006D01*
X199064573Y-86488390D01*
X198965154Y-86248372D01*
X198829412Y-86026860D01*
X198660689Y-85829311D01*
X198463140Y-85660588D01*
X198241628Y-85524846D01*
X198241627Y-85524845D01*
X198241623Y-85524843D01*
X198075627Y-85456086D01*
X198001610Y-85425427D01*
X198001611Y-85425427D01*
X197832254Y-85384768D01*
X197748994Y-85364779D01*
X197748992Y-85364778D01*
X197748991Y-85364778D01*
X197490000Y-85344396D01*
X197231009Y-85364778D01*
X196978389Y-85425427D01*
X196738376Y-85524843D01*
X196516859Y-85660588D01*
X196319311Y-85829311D01*
X196150588Y-86026859D01*
X196014843Y-86248376D01*
X195915427Y-86488389D01*
X195854778Y-86741009D01*
X195834396Y-87000000D01*
X184064394Y-87000000D01*
X183895587Y-86831193D01*
X183895556Y-86831164D01*
X183874642Y-86810250D01*
X183874641Y-86810249D01*
X183854900Y-86800190D01*
X183838314Y-86790026D01*
X183820390Y-86777004D01*
X183820391Y-86777004D01*
X183799318Y-86770157D01*
X183781345Y-86762712D01*
X183761607Y-86752655D01*
X183761604Y-86752654D01*
X183739718Y-86749187D01*
X183720807Y-86744646D01*
X183699739Y-86737801D01*
X183699734Y-86737800D01*
X183699733Y-86737800D01*
X183667819Y-86737800D01*
X182227533Y-86737800D01*
X182100667Y-86737800D01*
X182100664Y-86737800D01*
X182100662Y-86737801D01*
X182079590Y-86744647D01*
X182060682Y-86749186D01*
X182038798Y-86752653D01*
X182038794Y-86752654D01*
X182019051Y-86762713D01*
X182001087Y-86770154D01*
X181980011Y-86777003D01*
X181962085Y-86790027D01*
X181945500Y-86800190D01*
X181925759Y-86810248D01*
X181925759Y-86810249D01*
X181903194Y-86832813D01*
X181469713Y-87266294D01*
X181447149Y-87288859D01*
X181447148Y-87288860D01*
X181437091Y-87308597D01*
X181426931Y-87325177D01*
X181413906Y-87343105D01*
X181413903Y-87343110D01*
X181407054Y-87364188D01*
X181399613Y-87382152D01*
X181389554Y-87401895D01*
X181386087Y-87423782D01*
X181381547Y-87442691D01*
X181374700Y-87463767D01*
X181374700Y-88774529D01*
X181374701Y-88774539D01*
X181381546Y-88795607D01*
X181386087Y-88814518D01*
X181389554Y-88836404D01*
X181389555Y-88836407D01*
X181399612Y-88856145D01*
X181407057Y-88874118D01*
X181413904Y-88895190D01*
X181426926Y-88913114D01*
X181437090Y-88929700D01*
X181447150Y-88949442D01*
X181468064Y-88970356D01*
X181468093Y-88970387D01*
X181741625Y-89243919D01*
X181775110Y-89305242D01*
X181770126Y-89374934D01*
X181741625Y-89419281D01*
X179507225Y-91653681D01*
X179445902Y-91687166D01*
X179419544Y-91690000D01*
X178000001Y-91690000D01*
X178000001Y-91944196D01*
X178002851Y-91974606D01*
X178047653Y-92102645D01*
X178128207Y-92211792D01*
X178237354Y-92292346D01*
X178365397Y-92337149D01*
X178395792Y-92339999D01*
X178521543Y-92339999D01*
X178588583Y-92359683D01*
X178634338Y-92412487D01*
X178644282Y-92481645D01*
X178615258Y-92545201D01*
X178609225Y-92551680D01*
X178125126Y-93035781D01*
X178063803Y-93069266D01*
X178037445Y-93072100D01*
X176463933Y-93072100D01*
X176337067Y-93072100D01*
X176337064Y-93072100D01*
X176337062Y-93072101D01*
X176315990Y-93078947D01*
X176297082Y-93083486D01*
X176275198Y-93086953D01*
X176275194Y-93086954D01*
X176255451Y-93097013D01*
X176237487Y-93104454D01*
X176216411Y-93111303D01*
X176198485Y-93124327D01*
X176181900Y-93134490D01*
X176162159Y-93144548D01*
X176162159Y-93144549D01*
X176139594Y-93167113D01*
X173745313Y-95561394D01*
X173722749Y-95583959D01*
X173722748Y-95583960D01*
X173712691Y-95603697D01*
X173702530Y-95620279D01*
X173685549Y-95643653D01*
X173630220Y-95686321D01*
X173560607Y-95692302D01*
X173511594Y-95670541D01*
X173506180Y-95666545D01*
X173506178Y-95666544D01*
X173379781Y-95622315D01*
X173379769Y-95622313D01*
X173349768Y-95619500D01*
X173349764Y-95619500D01*
X172755236Y-95619500D01*
X172755232Y-95619500D01*
X172725230Y-95622313D01*
X172725218Y-95622315D01*
X172598821Y-95666544D01*
X172598819Y-95666545D01*
X172491069Y-95746069D01*
X172411545Y-95853819D01*
X172411544Y-95853821D01*
X172367315Y-95980218D01*
X172367313Y-95980230D01*
X172364500Y-96010231D01*
X172364500Y-96590245D01*
X172344815Y-96657284D01*
X172328181Y-96677926D01*
X172287926Y-96718181D01*
X172226603Y-96751666D01*
X172200245Y-96754500D01*
X168654742Y-96754500D01*
X168587703Y-96734815D01*
X168541948Y-96682011D01*
X168532004Y-96612853D01*
X168537513Y-96590307D01*
X168537646Y-96589699D01*
X168540500Y-96559269D01*
X168540500Y-95925730D01*
X168537646Y-95895300D01*
X168537646Y-95895298D01*
X168492793Y-95767119D01*
X168492792Y-95767117D01*
X168488728Y-95761610D01*
X168412150Y-95657850D01*
X168302882Y-95577207D01*
X168302880Y-95577206D01*
X168174700Y-95532353D01*
X168144270Y-95529500D01*
X168144266Y-95529500D01*
X167135734Y-95529500D01*
X167135730Y-95529500D01*
X167105300Y-95532353D01*
X167105298Y-95532353D01*
X166977119Y-95577206D01*
X166977117Y-95577207D01*
X166867850Y-95657850D01*
X166787206Y-95767118D01*
X166782863Y-95775337D01*
X166779554Y-95773588D01*
X166749399Y-95815686D01*
X166684461Y-95841471D01*
X166673022Y-95842000D01*
X164008448Y-95842000D01*
X164008424Y-95842001D01*
X163979064Y-95842001D01*
X163957999Y-95848846D01*
X163939082Y-95853387D01*
X163917200Y-95856852D01*
X163917195Y-95856854D01*
X163897450Y-95866914D01*
X163879486Y-95874355D01*
X163858407Y-95881205D01*
X163840484Y-95894227D01*
X163823898Y-95904391D01*
X163804159Y-95914449D01*
X163804156Y-95914451D01*
X163764153Y-95954452D01*
X163764149Y-95954458D01*
X162460426Y-97258181D01*
X162399103Y-97291666D01*
X162372745Y-97294500D01*
X161527484Y-97294500D01*
X161456957Y-97308528D01*
X161456954Y-97308530D01*
X161404850Y-97343345D01*
X161367050Y-97368602D01*
X161300372Y-97389480D01*
X161298159Y-97389500D01*
X159429367Y-97389500D01*
X159408291Y-97396347D01*
X159389382Y-97400887D01*
X159367496Y-97404354D01*
X159347755Y-97414412D01*
X159329787Y-97421854D01*
X159308712Y-97428702D01*
X159308708Y-97428704D01*
X159290784Y-97441727D01*
X159274198Y-97451891D01*
X159254459Y-97461949D01*
X159254456Y-97461951D01*
X159173330Y-97543073D01*
X159173304Y-97543103D01*
X158942181Y-97774226D01*
X158880858Y-97807711D01*
X158811166Y-97802727D01*
X158755233Y-97760855D01*
X158730816Y-97695391D01*
X158730500Y-97686545D01*
X158730500Y-97512483D01*
X158716471Y-97441957D01*
X158716470Y-97441955D01*
X158716470Y-97441954D01*
X158670053Y-97372486D01*
X158649176Y-97305810D01*
X158667661Y-97238430D01*
X158685471Y-97215920D01*
X164024573Y-91876818D01*
X164085896Y-91843334D01*
X164112254Y-91840500D01*
X172241338Y-91840500D01*
X172308377Y-91860185D01*
X172354132Y-91912989D01*
X172364796Y-91952924D01*
X172367313Y-91979769D01*
X172367315Y-91979781D01*
X172411544Y-92106178D01*
X172411545Y-92106180D01*
X172491069Y-92213930D01*
X172598819Y-92293454D01*
X172598821Y-92293455D01*
X172725218Y-92337684D01*
X172725222Y-92337684D01*
X172725226Y-92337686D01*
X172740231Y-92339093D01*
X172755232Y-92340500D01*
X172755236Y-92340500D01*
X173349768Y-92340500D01*
X173363101Y-92339249D01*
X173379774Y-92337686D01*
X173379778Y-92337684D01*
X173379781Y-92337684D01*
X173450845Y-92312816D01*
X173506179Y-92293455D01*
X173613930Y-92213930D01*
X173693455Y-92106179D01*
X173721353Y-92026452D01*
X173737684Y-91979781D01*
X173737684Y-91979778D01*
X173737686Y-91979774D01*
X173740500Y-91949768D01*
X174239500Y-91949768D01*
X174242313Y-91979769D01*
X174242315Y-91979781D01*
X174286544Y-92106178D01*
X174286545Y-92106180D01*
X174366069Y-92213930D01*
X174473819Y-92293454D01*
X174473821Y-92293455D01*
X174600218Y-92337684D01*
X174600222Y-92337684D01*
X174600226Y-92337686D01*
X174615231Y-92339093D01*
X174630232Y-92340500D01*
X174630236Y-92340500D01*
X175224768Y-92340500D01*
X175238101Y-92339249D01*
X175254774Y-92337686D01*
X175254778Y-92337684D01*
X175254781Y-92337684D01*
X175325845Y-92312816D01*
X175381179Y-92293455D01*
X175488930Y-92213930D01*
X175568455Y-92106179D01*
X175596353Y-92026452D01*
X175612684Y-91979781D01*
X175612684Y-91979778D01*
X175612686Y-91979774D01*
X175615204Y-91952924D01*
X175641061Y-91888015D01*
X175697905Y-91847389D01*
X175738662Y-91840500D01*
X176051853Y-91840500D01*
X176118892Y-91860185D01*
X176164647Y-91912989D01*
X176175311Y-91952921D01*
X176177353Y-91974699D01*
X176177353Y-91974701D01*
X176221006Y-92099450D01*
X176222207Y-92102882D01*
X176302850Y-92212150D01*
X176412118Y-92292793D01*
X176454845Y-92307744D01*
X176540299Y-92337646D01*
X176570730Y-92340500D01*
X176570734Y-92340500D01*
X177204270Y-92340500D01*
X177234699Y-92337646D01*
X177234701Y-92337646D01*
X177298790Y-92315219D01*
X177362882Y-92292793D01*
X177472150Y-92212150D01*
X177552793Y-92102882D01*
X177580635Y-92023315D01*
X177597646Y-91974701D01*
X177597646Y-91974699D01*
X177600500Y-91944269D01*
X177600500Y-91190000D01*
X178000000Y-91190000D01*
X178462500Y-91190000D01*
X178462500Y-90540000D01*
X178962500Y-90540000D01*
X178962500Y-91190000D01*
X179424999Y-91190000D01*
X179424999Y-90935803D01*
X179422148Y-90905393D01*
X179377346Y-90777354D01*
X179296792Y-90668207D01*
X179187645Y-90587653D01*
X179059602Y-90542850D01*
X179029207Y-90540000D01*
X178962500Y-90540000D01*
X178462500Y-90540000D01*
X178462499Y-90539999D01*
X178395804Y-90540000D01*
X178365393Y-90542851D01*
X178237354Y-90587653D01*
X178128207Y-90668207D01*
X178047653Y-90777354D01*
X178002850Y-90905395D01*
X178002850Y-90905399D01*
X178000000Y-90935793D01*
X178000000Y-91190000D01*
X177600500Y-91190000D01*
X177600500Y-90935730D01*
X177597646Y-90905300D01*
X177597646Y-90905298D01*
X177560853Y-90800153D01*
X177552793Y-90777118D01*
X177472150Y-90667850D01*
X177362882Y-90587207D01*
X177362880Y-90587206D01*
X177234700Y-90542353D01*
X177204270Y-90539500D01*
X177204266Y-90539500D01*
X176570734Y-90539500D01*
X176570730Y-90539500D01*
X176540300Y-90542353D01*
X176540298Y-90542353D01*
X176412119Y-90587206D01*
X176412117Y-90587207D01*
X176302850Y-90667850D01*
X176222207Y-90777117D01*
X176222206Y-90777119D01*
X176177353Y-90905298D01*
X176177353Y-90905300D01*
X176175311Y-90927079D01*
X176149453Y-90991987D01*
X176092607Y-91032612D01*
X176051853Y-91039500D01*
X175738662Y-91039500D01*
X175671623Y-91019815D01*
X175625868Y-90967011D01*
X175615204Y-90927076D01*
X175613171Y-90905399D01*
X175612686Y-90900226D01*
X175612684Y-90900222D01*
X175612684Y-90900218D01*
X175568455Y-90773821D01*
X175568454Y-90773819D01*
X175488930Y-90666069D01*
X175381180Y-90586545D01*
X175381178Y-90586544D01*
X175254781Y-90542315D01*
X175254769Y-90542313D01*
X175224768Y-90539500D01*
X175224764Y-90539500D01*
X174630236Y-90539500D01*
X174630232Y-90539500D01*
X174600230Y-90542313D01*
X174600218Y-90542315D01*
X174473821Y-90586544D01*
X174473819Y-90586545D01*
X174366069Y-90666069D01*
X174286545Y-90773819D01*
X174286544Y-90773821D01*
X174242315Y-90900218D01*
X174242313Y-90900230D01*
X174239500Y-90930231D01*
X174239500Y-91949768D01*
X173740500Y-91949768D01*
X173740500Y-91949764D01*
X173740500Y-90930236D01*
X173737686Y-90900226D01*
X173737684Y-90900222D01*
X173737684Y-90900218D01*
X173693455Y-90773821D01*
X173693454Y-90773819D01*
X173613930Y-90666069D01*
X173506180Y-90586545D01*
X173506178Y-90586544D01*
X173379781Y-90542315D01*
X173379769Y-90542313D01*
X173349768Y-90539500D01*
X173349764Y-90539500D01*
X172755236Y-90539500D01*
X172755232Y-90539500D01*
X172725230Y-90542313D01*
X172725218Y-90542315D01*
X172598821Y-90586544D01*
X172598819Y-90586545D01*
X172491069Y-90666069D01*
X172411545Y-90773819D01*
X172411544Y-90773821D01*
X172367315Y-90900218D01*
X172367313Y-90900230D01*
X172364796Y-90927076D01*
X172338939Y-90991985D01*
X172282095Y-91032611D01*
X172241338Y-91039500D01*
X163831567Y-91039500D01*
X163810491Y-91046347D01*
X163791582Y-91050887D01*
X163769696Y-91054354D01*
X163749955Y-91064412D01*
X163731987Y-91071854D01*
X163710912Y-91078702D01*
X163710909Y-91078704D01*
X163692984Y-91091727D01*
X163676399Y-91101890D01*
X163656659Y-91111948D01*
X163650715Y-91117893D01*
X163634091Y-91134517D01*
X162632258Y-92136350D01*
X157632681Y-97135925D01*
X157571358Y-97169410D01*
X157501666Y-97164426D01*
X157457319Y-97135925D01*
X157169287Y-96847893D01*
X157169256Y-96847864D01*
X157148342Y-96826950D01*
X157148341Y-96826949D01*
X157128600Y-96816890D01*
X157112014Y-96806726D01*
X157094090Y-96793704D01*
X157094091Y-96793704D01*
X157073018Y-96786857D01*
X157055045Y-96779412D01*
X157035307Y-96769355D01*
X157035304Y-96769354D01*
X157013418Y-96765887D01*
X156994507Y-96761346D01*
X156973439Y-96754501D01*
X156973434Y-96754500D01*
X156973433Y-96754500D01*
X156973429Y-96754500D01*
X154505647Y-96754500D01*
X154438608Y-96734815D01*
X154392853Y-96682011D01*
X154382189Y-96642079D01*
X154380146Y-96620300D01*
X154380146Y-96620298D01*
X154335293Y-96492119D01*
X154335292Y-96492117D01*
X154282576Y-96420689D01*
X154254650Y-96382850D01*
X154145382Y-96302207D01*
X154145380Y-96302206D01*
X154017200Y-96257353D01*
X153986770Y-96254500D01*
X153986766Y-96254500D01*
X153387255Y-96254500D01*
X153320216Y-96234815D01*
X153299574Y-96218181D01*
X149217787Y-92136393D01*
X149217756Y-92136364D01*
X149196842Y-92115450D01*
X149196841Y-92115449D01*
X149177100Y-92105390D01*
X149160514Y-92095226D01*
X149142590Y-92082204D01*
X149142591Y-92082204D01*
X149121518Y-92075357D01*
X149103545Y-92067912D01*
X149083807Y-92057855D01*
X149083804Y-92057854D01*
X149061918Y-92054387D01*
X149043007Y-92049846D01*
X149021939Y-92043001D01*
X149021934Y-92043000D01*
X149021933Y-92043000D01*
X148990019Y-92043000D01*
X145771117Y-92043000D01*
X145704078Y-92023315D01*
X145658323Y-91970511D01*
X145648379Y-91901353D01*
X145654076Y-91878045D01*
X145677148Y-91812109D01*
X145677149Y-91812100D01*
X145680000Y-91781706D01*
X145680000Y-91715000D01*
X143880001Y-91715000D01*
X143880001Y-91781696D01*
X143882851Y-91812106D01*
X143905925Y-91878046D01*
X143909486Y-91947825D01*
X143874757Y-92008452D01*
X143812764Y-92040679D01*
X143788883Y-92043000D01*
X140691117Y-92043000D01*
X140624078Y-92023315D01*
X140578323Y-91970511D01*
X140568379Y-91901353D01*
X140574076Y-91878045D01*
X140597148Y-91812109D01*
X140597149Y-91812100D01*
X140600000Y-91781706D01*
X140600000Y-91715000D01*
X138800001Y-91715000D01*
X138800001Y-91781696D01*
X138802851Y-91812106D01*
X138825925Y-91878046D01*
X138829486Y-91947825D01*
X138794757Y-92008452D01*
X138732764Y-92040679D01*
X138708883Y-92043000D01*
X138348867Y-92043000D01*
X138327791Y-92049847D01*
X138308882Y-92054387D01*
X138286995Y-92057854D01*
X138267252Y-92067913D01*
X138249288Y-92075354D01*
X138228210Y-92082203D01*
X138228205Y-92082206D01*
X138210277Y-92095231D01*
X138193697Y-92105391D01*
X138173960Y-92115448D01*
X138173959Y-92115449D01*
X138151394Y-92138013D01*
X138151391Y-92138016D01*
X136326509Y-93962897D01*
X136273763Y-93994193D01*
X136157449Y-94028345D01*
X136036373Y-94106156D01*
X135942123Y-94214926D01*
X135942122Y-94214928D01*
X135882334Y-94345843D01*
X135861853Y-94488300D01*
X135882334Y-94630756D01*
X135913985Y-94700060D01*
X135942123Y-94761673D01*
X136036372Y-94870443D01*
X136157447Y-94948253D01*
X136157450Y-94948254D01*
X136157449Y-94948254D01*
X136295536Y-94988799D01*
X136295538Y-94988800D01*
X136295539Y-94988800D01*
X136439462Y-94988800D01*
X136439462Y-94988799D01*
X136577553Y-94948253D01*
X136698628Y-94870443D01*
X136792877Y-94761673D01*
X136852665Y-94630757D01*
X136857073Y-94600095D01*
X136886094Y-94536544D01*
X136892115Y-94530076D01*
X138541873Y-92880319D01*
X138603197Y-92846834D01*
X138629555Y-92844000D01*
X138675609Y-92844000D01*
X138742648Y-92863685D01*
X138788403Y-92916489D01*
X138798808Y-92970335D01*
X138799500Y-92970335D01*
X138799500Y-93606769D01*
X138802353Y-93637199D01*
X138802353Y-93637201D01*
X138847206Y-93765380D01*
X138847207Y-93765382D01*
X138927850Y-93874650D01*
X139037118Y-93955293D01*
X139058849Y-93962897D01*
X139165295Y-94000145D01*
X139165299Y-94000145D01*
X139165301Y-94000146D01*
X139187078Y-94002188D01*
X139251984Y-94028044D01*
X139292610Y-94084888D01*
X139299500Y-94125646D01*
X139299500Y-94438837D01*
X139279815Y-94505876D01*
X139227011Y-94551631D01*
X139187079Y-94562295D01*
X139160230Y-94564813D01*
X139160218Y-94564815D01*
X139033821Y-94609044D01*
X139033819Y-94609045D01*
X138926069Y-94688569D01*
X138846545Y-94796319D01*
X138846544Y-94796321D01*
X138802315Y-94922718D01*
X138802313Y-94922730D01*
X138799500Y-94952731D01*
X138799500Y-95547268D01*
X138802313Y-95577269D01*
X138802314Y-95577277D01*
X138817980Y-95622046D01*
X138821541Y-95691825D01*
X138786812Y-95752452D01*
X138724819Y-95784679D01*
X138700938Y-95787000D01*
X134554754Y-95787000D01*
X134487715Y-95767315D01*
X134467073Y-95750681D01*
X132389287Y-93672893D01*
X132389256Y-93672864D01*
X132368342Y-93651950D01*
X132368341Y-93651949D01*
X132348600Y-93641890D01*
X132332014Y-93631726D01*
X132314090Y-93618704D01*
X132314091Y-93618704D01*
X132293018Y-93611857D01*
X132275045Y-93604412D01*
X132255307Y-93594355D01*
X132255304Y-93594354D01*
X132233418Y-93590887D01*
X132214507Y-93586346D01*
X132193439Y-93579501D01*
X132193434Y-93579500D01*
X132193433Y-93579500D01*
X132193429Y-93579500D01*
X132054500Y-93579500D01*
X131987461Y-93559815D01*
X131941706Y-93507011D01*
X131930500Y-93455500D01*
X131930500Y-92660249D01*
X131930499Y-92660247D01*
X131918868Y-92601770D01*
X131918867Y-92601769D01*
X131874552Y-92535447D01*
X131808230Y-92491132D01*
X131808229Y-92491131D01*
X131749752Y-92479500D01*
X131749748Y-92479500D01*
X129406254Y-92479500D01*
X129339215Y-92459815D01*
X129293460Y-92407011D01*
X129283516Y-92337853D01*
X129312541Y-92274297D01*
X129318573Y-92267819D01*
X130371393Y-91215000D01*
X138800000Y-91215000D01*
X139450000Y-91215000D01*
X139450000Y-90752500D01*
X139950000Y-90752500D01*
X139950000Y-91215000D01*
X140599999Y-91215000D01*
X143880000Y-91215000D01*
X144530000Y-91215000D01*
X144530000Y-90752500D01*
X145030000Y-90752500D01*
X145030000Y-91215000D01*
X145679999Y-91215000D01*
X145679999Y-91148303D01*
X145677148Y-91117893D01*
X145632346Y-90989854D01*
X145551792Y-90880707D01*
X145442645Y-90800153D01*
X145314602Y-90755350D01*
X145284207Y-90752500D01*
X145030000Y-90752500D01*
X144530000Y-90752500D01*
X144275804Y-90752500D01*
X144245393Y-90755351D01*
X144117354Y-90800153D01*
X144008207Y-90880707D01*
X143927653Y-90989854D01*
X143882850Y-91117895D01*
X143882850Y-91117899D01*
X143880000Y-91148293D01*
X143880000Y-91215000D01*
X140599999Y-91215000D01*
X140599999Y-91148303D01*
X140597148Y-91117893D01*
X140552346Y-90989854D01*
X140471792Y-90880707D01*
X140362645Y-90800153D01*
X140234602Y-90755350D01*
X140204207Y-90752500D01*
X139950000Y-90752500D01*
X139450000Y-90752500D01*
X139195804Y-90752500D01*
X139165393Y-90755351D01*
X139037354Y-90800153D01*
X138928207Y-90880707D01*
X138847653Y-90989854D01*
X138802850Y-91117895D01*
X138802850Y-91117899D01*
X138800000Y-91148293D01*
X138800000Y-91215000D01*
X130371393Y-91215000D01*
X131196893Y-90389500D01*
X133249473Y-88336919D01*
X133310797Y-88303434D01*
X133337155Y-88300600D01*
X155141831Y-88300600D01*
X155141833Y-88300600D01*
X155162901Y-88293754D01*
X155181817Y-88289212D01*
X155203704Y-88285746D01*
X155223444Y-88275686D01*
X155241411Y-88268244D01*
X155262490Y-88261396D01*
X155280426Y-88248363D01*
X155296988Y-88238214D01*
X155316742Y-88228150D01*
X155332234Y-88212657D01*
X155332241Y-88212652D01*
X155571753Y-87973140D01*
X156503829Y-87041062D01*
X156565150Y-87007579D01*
X156634841Y-87012563D01*
X156687362Y-87050081D01*
X156733589Y-87106410D01*
X156830209Y-87185702D01*
X156893550Y-87237685D01*
X157076046Y-87335232D01*
X157274066Y-87395300D01*
X157274065Y-87395300D01*
X157294348Y-87397297D01*
X157480000Y-87415583D01*
X157685934Y-87395300D01*
X157883954Y-87335232D01*
X158066450Y-87237685D01*
X158226410Y-87106410D01*
X158357685Y-86946450D01*
X158455232Y-86763954D01*
X158515300Y-86565934D01*
X158535583Y-86360000D01*
X158535583Y-86359999D01*
X158964417Y-86359999D01*
X158984699Y-86565932D01*
X158984700Y-86565934D01*
X159044768Y-86763954D01*
X159142315Y-86946450D01*
X159142316Y-86946451D01*
X159142317Y-86946452D01*
X159273589Y-87106410D01*
X159370209Y-87185702D01*
X159433550Y-87237685D01*
X159616046Y-87335232D01*
X159814066Y-87395300D01*
X159814065Y-87395300D01*
X159834348Y-87397297D01*
X160020000Y-87415583D01*
X160225934Y-87395300D01*
X160423954Y-87335232D01*
X160606450Y-87237685D01*
X160766410Y-87106410D01*
X160897685Y-86946450D01*
X160995232Y-86763954D01*
X161055300Y-86565934D01*
X161075583Y-86360000D01*
X161075583Y-86359999D01*
X161504417Y-86359999D01*
X161524699Y-86565932D01*
X161524700Y-86565934D01*
X161584768Y-86763954D01*
X161682315Y-86946450D01*
X161682316Y-86946451D01*
X161682317Y-86946452D01*
X161813589Y-87106410D01*
X161910209Y-87185702D01*
X161973550Y-87237685D01*
X162156046Y-87335232D01*
X162354066Y-87395300D01*
X162354065Y-87395300D01*
X162372529Y-87397118D01*
X162560000Y-87415583D01*
X162765934Y-87395300D01*
X162963954Y-87335232D01*
X163146450Y-87237685D01*
X163306410Y-87106410D01*
X163437685Y-86946450D01*
X163535232Y-86763954D01*
X163595300Y-86565934D01*
X163615583Y-86360000D01*
X163595300Y-86154066D01*
X163535232Y-85956046D01*
X163437685Y-85773550D01*
X163368910Y-85689747D01*
X163306410Y-85613589D01*
X163146452Y-85482317D01*
X163146453Y-85482317D01*
X163146450Y-85482315D01*
X162963954Y-85384768D01*
X162765934Y-85324700D01*
X162765932Y-85324699D01*
X162765934Y-85324699D01*
X162560000Y-85304417D01*
X162354067Y-85324699D01*
X162156043Y-85384769D01*
X162092852Y-85418546D01*
X161973550Y-85482315D01*
X161973548Y-85482316D01*
X161973547Y-85482317D01*
X161813589Y-85613589D01*
X161682317Y-85773547D01*
X161584769Y-85956043D01*
X161584768Y-85956045D01*
X161584768Y-85956046D01*
X161583720Y-85959500D01*
X161524699Y-86154067D01*
X161504417Y-86359999D01*
X161075583Y-86359999D01*
X161055300Y-86154066D01*
X160995232Y-85956046D01*
X160897685Y-85773550D01*
X160828910Y-85689747D01*
X160766410Y-85613589D01*
X160606452Y-85482317D01*
X160606453Y-85482317D01*
X160606450Y-85482315D01*
X160423954Y-85384768D01*
X160225934Y-85324700D01*
X160225932Y-85324699D01*
X160225934Y-85324699D01*
X160020000Y-85304417D01*
X159814067Y-85324699D01*
X159616043Y-85384769D01*
X159552852Y-85418546D01*
X159433550Y-85482315D01*
X159433548Y-85482316D01*
X159433547Y-85482317D01*
X159273589Y-85613589D01*
X159142317Y-85773547D01*
X159044769Y-85956043D01*
X159044768Y-85956045D01*
X159044768Y-85956046D01*
X159043720Y-85959500D01*
X158984699Y-86154067D01*
X158964417Y-86359999D01*
X158535583Y-86359999D01*
X158515300Y-86154066D01*
X158455232Y-85956046D01*
X158357685Y-85773550D01*
X158288910Y-85689747D01*
X158226410Y-85613589D01*
X158066452Y-85482317D01*
X158066453Y-85482317D01*
X158066450Y-85482315D01*
X157883954Y-85384768D01*
X157685934Y-85324700D01*
X157685932Y-85324699D01*
X157685934Y-85324699D01*
X157498463Y-85306235D01*
X157480000Y-85304417D01*
X157479999Y-85304417D01*
X157274067Y-85324699D01*
X157076043Y-85384769D01*
X157012852Y-85418546D01*
X156893550Y-85482315D01*
X156893548Y-85482316D01*
X156893547Y-85482317D01*
X156733589Y-85613589D01*
X156602317Y-85773547D01*
X156537957Y-85893954D01*
X156488994Y-85943798D01*
X156428599Y-85959500D01*
X156271275Y-85959500D01*
X156251879Y-85957973D01*
X156230000Y-85954508D01*
X156229997Y-85954508D01*
X156104699Y-85974352D01*
X156104695Y-85974354D01*
X156071813Y-85991108D01*
X156003143Y-86004004D01*
X155938403Y-85977727D01*
X155906161Y-85939076D01*
X155817684Y-85773548D01*
X155686410Y-85613589D01*
X155526452Y-85482317D01*
X155526453Y-85482317D01*
X155526450Y-85482315D01*
X155343954Y-85384768D01*
X155145934Y-85324700D01*
X155145932Y-85324699D01*
X155145934Y-85324699D01*
X154958463Y-85306235D01*
X154940000Y-85304417D01*
X154939999Y-85304417D01*
X154734067Y-85324699D01*
X154536043Y-85384769D01*
X154472852Y-85418546D01*
X154353550Y-85482315D01*
X154353548Y-85482316D01*
X154353547Y-85482317D01*
X154193589Y-85613589D01*
X154062317Y-85773547D01*
X153964769Y-85956043D01*
X153964768Y-85956045D01*
X153964768Y-85956046D01*
X153963720Y-85959500D01*
X153904699Y-86154067D01*
X153884417Y-86359999D01*
X153904699Y-86565932D01*
X153904700Y-86565934D01*
X153964768Y-86763954D01*
X154062315Y-86946450D01*
X154062316Y-86946451D01*
X154062317Y-86946452D01*
X154193589Y-87106410D01*
X154290209Y-87185702D01*
X154353550Y-87237685D01*
X154406978Y-87266243D01*
X154456821Y-87315205D01*
X154472281Y-87383342D01*
X154448449Y-87449022D01*
X154392891Y-87491391D01*
X154348523Y-87499600D01*
X152991477Y-87499600D01*
X152924438Y-87479915D01*
X152878683Y-87427111D01*
X152868739Y-87357953D01*
X152897764Y-87294397D01*
X152933020Y-87266243D01*
X152986450Y-87237685D01*
X153146410Y-87106410D01*
X153277685Y-86946450D01*
X153375232Y-86763954D01*
X153435300Y-86565934D01*
X153455583Y-86360000D01*
X153435300Y-86154066D01*
X153375232Y-85956046D01*
X153277685Y-85773550D01*
X153208910Y-85689747D01*
X153146410Y-85613589D01*
X152986452Y-85482317D01*
X152986453Y-85482317D01*
X152986450Y-85482315D01*
X152803954Y-85384768D01*
X152605934Y-85324700D01*
X152605932Y-85324699D01*
X152605934Y-85324699D01*
X152400000Y-85304417D01*
X152194067Y-85324699D01*
X151996043Y-85384769D01*
X151932852Y-85418546D01*
X151813550Y-85482315D01*
X151813548Y-85482316D01*
X151813547Y-85482317D01*
X151653589Y-85613589D01*
X151522317Y-85773547D01*
X151424769Y-85956043D01*
X151424768Y-85956045D01*
X151424768Y-85956046D01*
X151423720Y-85959500D01*
X151364699Y-86154067D01*
X151344417Y-86359999D01*
X151364699Y-86565932D01*
X151364700Y-86565934D01*
X151424768Y-86763954D01*
X151522315Y-86946450D01*
X151522316Y-86946451D01*
X151522317Y-86946452D01*
X151653589Y-87106410D01*
X151750209Y-87185702D01*
X151813550Y-87237685D01*
X151866978Y-87266243D01*
X151916821Y-87315205D01*
X151932281Y-87383342D01*
X151908449Y-87449022D01*
X151852891Y-87491391D01*
X151808523Y-87499600D01*
X150451477Y-87499600D01*
X150384438Y-87479915D01*
X150338683Y-87427111D01*
X150328739Y-87357953D01*
X150357764Y-87294397D01*
X150393020Y-87266243D01*
X150446450Y-87237685D01*
X150606410Y-87106410D01*
X150737685Y-86946450D01*
X150835232Y-86763954D01*
X150895300Y-86565934D01*
X150915583Y-86360000D01*
X150895300Y-86154066D01*
X150835232Y-85956046D01*
X150737685Y-85773550D01*
X150668910Y-85689747D01*
X150606410Y-85613589D01*
X150446452Y-85482317D01*
X150446453Y-85482317D01*
X150446450Y-85482315D01*
X150263954Y-85384768D01*
X150065934Y-85324700D01*
X150065932Y-85324699D01*
X150065934Y-85324699D01*
X149860000Y-85304417D01*
X149654067Y-85324699D01*
X149456043Y-85384769D01*
X149392852Y-85418546D01*
X149273550Y-85482315D01*
X149273548Y-85482316D01*
X149273547Y-85482317D01*
X149113589Y-85613589D01*
X148982317Y-85773547D01*
X148884769Y-85956043D01*
X148884768Y-85956045D01*
X148884768Y-85956046D01*
X148883720Y-85959500D01*
X148824699Y-86154067D01*
X148804417Y-86359999D01*
X148824699Y-86565932D01*
X148824700Y-86565934D01*
X148884768Y-86763954D01*
X148982315Y-86946450D01*
X148982316Y-86946451D01*
X148982317Y-86946452D01*
X149113589Y-87106410D01*
X149210209Y-87185702D01*
X149273550Y-87237685D01*
X149326978Y-87266243D01*
X149376821Y-87315205D01*
X149392281Y-87383342D01*
X149368449Y-87449022D01*
X149312891Y-87491391D01*
X149268523Y-87499600D01*
X147911477Y-87499600D01*
X147844438Y-87479915D01*
X147798683Y-87427111D01*
X147788739Y-87357953D01*
X147817764Y-87294397D01*
X147853020Y-87266243D01*
X147906450Y-87237685D01*
X148066410Y-87106410D01*
X148197685Y-86946450D01*
X148295232Y-86763954D01*
X148355300Y-86565934D01*
X148375583Y-86360000D01*
X148355300Y-86154066D01*
X148295232Y-85956046D01*
X148197685Y-85773550D01*
X148128910Y-85689747D01*
X148066410Y-85613589D01*
X147906452Y-85482317D01*
X147906453Y-85482317D01*
X147906450Y-85482315D01*
X147723954Y-85384768D01*
X147525934Y-85324700D01*
X147525932Y-85324699D01*
X147525934Y-85324699D01*
X147320000Y-85304417D01*
X147114067Y-85324699D01*
X146916043Y-85384769D01*
X146852852Y-85418546D01*
X146733550Y-85482315D01*
X146733548Y-85482316D01*
X146733547Y-85482317D01*
X146573588Y-85613591D01*
X146550890Y-85641248D01*
X146493144Y-85680582D01*
X146423299Y-85682451D01*
X146367357Y-85650263D01*
X145557587Y-84840493D01*
X145557556Y-84840464D01*
X145536642Y-84819550D01*
X145536641Y-84819549D01*
X145516900Y-84809490D01*
X145500314Y-84799326D01*
X145482390Y-84786304D01*
X145482391Y-84786304D01*
X145461318Y-84779457D01*
X145443345Y-84772012D01*
X145423607Y-84761955D01*
X145423604Y-84761954D01*
X145401718Y-84758487D01*
X145382807Y-84753946D01*
X145361739Y-84747101D01*
X145361734Y-84747100D01*
X145361733Y-84747100D01*
X145329819Y-84747100D01*
X141714081Y-84747100D01*
X141711548Y-84747100D01*
X141711524Y-84747101D01*
X141682164Y-84747101D01*
X141661099Y-84753946D01*
X141642182Y-84758487D01*
X141620300Y-84761952D01*
X141620295Y-84761954D01*
X141600550Y-84772014D01*
X141582586Y-84779455D01*
X141561507Y-84786305D01*
X141543584Y-84799327D01*
X141526999Y-84809490D01*
X141507259Y-84819548D01*
X141484693Y-84842115D01*
X141484691Y-84842117D01*
X140908260Y-85418546D01*
X140846937Y-85452031D01*
X140777245Y-85447047D01*
X140721312Y-85405175D01*
X140717478Y-85399757D01*
X140694553Y-85365448D01*
X140628230Y-85321132D01*
X140628229Y-85321131D01*
X140569752Y-85309500D01*
X140569748Y-85309500D01*
X138830252Y-85309500D01*
X138830247Y-85309500D01*
X138771770Y-85321131D01*
X138771769Y-85321132D01*
X138705447Y-85365447D01*
X138661132Y-85431769D01*
X138661131Y-85431770D01*
X138649500Y-85490247D01*
X138649500Y-87229752D01*
X138661131Y-87288229D01*
X138661132Y-87288231D01*
X138673479Y-87306708D01*
X138694358Y-87373385D01*
X138675875Y-87440765D01*
X138623896Y-87487456D01*
X138570378Y-87499600D01*
X133183333Y-87499600D01*
X133056467Y-87499600D01*
X133038525Y-87505428D01*
X133035391Y-87506447D01*
X133016487Y-87510985D01*
X132994596Y-87514453D01*
X132974856Y-87524511D01*
X132956887Y-87531954D01*
X132935812Y-87538802D01*
X132935811Y-87538802D01*
X132917881Y-87551829D01*
X132901297Y-87561991D01*
X132881560Y-87572047D01*
X132881560Y-87572048D01*
X132858994Y-87594613D01*
X132858991Y-87594616D01*
X132126230Y-88327376D01*
X132064907Y-88360861D01*
X131995215Y-88355877D01*
X131939282Y-88314005D01*
X131914865Y-88248541D01*
X131914973Y-88229455D01*
X131935643Y-87980005D01*
X131935643Y-87979994D01*
X131915109Y-87732187D01*
X131915107Y-87732175D01*
X131854063Y-87491118D01*
X131754173Y-87263393D01*
X131618166Y-87055217D01*
X131578900Y-87012563D01*
X131449744Y-86872262D01*
X131253509Y-86719526D01*
X131253507Y-86719525D01*
X131253506Y-86719524D01*
X131034811Y-86601172D01*
X131034802Y-86601169D01*
X130799616Y-86520429D01*
X130554335Y-86479500D01*
X130305665Y-86479500D01*
X130060383Y-86520429D01*
X129825197Y-86601169D01*
X129825188Y-86601172D01*
X129606493Y-86719524D01*
X129410257Y-86872261D01*
X129241833Y-87055217D01*
X129105826Y-87263393D01*
X129005936Y-87491118D01*
X128944892Y-87732175D01*
X128944890Y-87732187D01*
X128924357Y-87979994D01*
X128924357Y-87980005D01*
X128944890Y-88227812D01*
X128944892Y-88227824D01*
X129005936Y-88468881D01*
X129105826Y-88696606D01*
X129241833Y-88904782D01*
X129241836Y-88904785D01*
X129410256Y-89087738D01*
X129606491Y-89240474D01*
X129825190Y-89358828D01*
X130060386Y-89439571D01*
X130305665Y-89480500D01*
X130554334Y-89480500D01*
X130554335Y-89480500D01*
X130675195Y-89460332D01*
X130744557Y-89468714D01*
X130798379Y-89513266D01*
X130819570Y-89579845D01*
X130801403Y-89647311D01*
X130783283Y-89670322D01*
X119104516Y-101349091D01*
X119104513Y-101349094D01*
X119081949Y-101371659D01*
X119081948Y-101371660D01*
X119071891Y-101391397D01*
X119061731Y-101407977D01*
X119048706Y-101425905D01*
X119048703Y-101425910D01*
X119041854Y-101446988D01*
X119034413Y-101464952D01*
X119024354Y-101484696D01*
X119024352Y-101484699D01*
X119020886Y-101506582D01*
X119016347Y-101525490D01*
X119009499Y-101546566D01*
X119009499Y-101546567D01*
X119009498Y-101603137D01*
X119009500Y-101603146D01*
X119009500Y-101693961D01*
X118989815Y-101761000D01*
X118937011Y-101806755D01*
X118909692Y-101815578D01*
X118881770Y-101821132D01*
X118881769Y-101821132D01*
X118843891Y-101846442D01*
X118777213Y-101867320D01*
X118709833Y-101848835D01*
X118706109Y-101846442D01*
X118668230Y-101821132D01*
X118668229Y-101821131D01*
X118609752Y-101809500D01*
X118609748Y-101809500D01*
X117670252Y-101809500D01*
X117670247Y-101809500D01*
X117611770Y-101821131D01*
X117611769Y-101821132D01*
X117545447Y-101865447D01*
X117501132Y-101931769D01*
X117501131Y-101931770D01*
X117489500Y-101990247D01*
X117489500Y-103529752D01*
X117501131Y-103588229D01*
X117501132Y-103588230D01*
X117538775Y-103644566D01*
X117559653Y-103711243D01*
X117541169Y-103778623D01*
X117529387Y-103794659D01*
X117457323Y-103877827D01*
X117457322Y-103877828D01*
X117397534Y-104008743D01*
X117377053Y-104151200D01*
X116840000Y-104151200D01*
X116840000Y-90980005D01*
X124224357Y-90980005D01*
X124244890Y-91227812D01*
X124244892Y-91227824D01*
X124305936Y-91468881D01*
X124405826Y-91696606D01*
X124541833Y-91904782D01*
X124541836Y-91904785D01*
X124710256Y-92087738D01*
X124906491Y-92240474D01*
X124906493Y-92240475D01*
X125095953Y-92343006D01*
X125125190Y-92358828D01*
X125360386Y-92439571D01*
X125605665Y-92480500D01*
X125854335Y-92480500D01*
X126099614Y-92439571D01*
X126334810Y-92358828D01*
X126553509Y-92240474D01*
X126749744Y-92087738D01*
X126918164Y-91904785D01*
X127054173Y-91696607D01*
X127154063Y-91468881D01*
X127215108Y-91227821D01*
X127215109Y-91227812D01*
X127235643Y-90980005D01*
X127235643Y-90979994D01*
X127215109Y-90732187D01*
X127215107Y-90732175D01*
X127154063Y-90491118D01*
X127054173Y-90263393D01*
X126918166Y-90055217D01*
X126867361Y-90000028D01*
X126749744Y-89872262D01*
X126553509Y-89719526D01*
X126553507Y-89719525D01*
X126553506Y-89719524D01*
X126334811Y-89601172D01*
X126334802Y-89601169D01*
X126099616Y-89520429D01*
X125854335Y-89479500D01*
X125605665Y-89479500D01*
X125360383Y-89520429D01*
X125125197Y-89601169D01*
X125125188Y-89601172D01*
X124906493Y-89719524D01*
X124710257Y-89872261D01*
X124541833Y-90055217D01*
X124405826Y-90263393D01*
X124305936Y-90491118D01*
X124244892Y-90732175D01*
X124244890Y-90732187D01*
X124224357Y-90979994D01*
X124224357Y-90980005D01*
X116840000Y-90980005D01*
X116840000Y-87510000D01*
X114424500Y-87510000D01*
X114357461Y-87490315D01*
X114311706Y-87437511D01*
X114300500Y-87386000D01*
X114300500Y-81404500D01*
X114320185Y-81337461D01*
X114372989Y-81291706D01*
X114424500Y-81280500D01*
X205615500Y-81280500D01*
X205682539Y-81300185D01*
G37*
%TD.AperFunction*%
%TD*%
M02*
