M48
; DRILL file {KiCad 7.0.7} date 2023 September 08, Friday 15:18:39
; FORMAT={-:-/ absolute / inch / decimal}
; #@! TF.CreationDate,2023-09-08T15:18:39+02:00
; #@! TF.GenerationSoftware,Kicad,Pcbnew,7.0.7
; #@! TF.FileFunction,Plated,1,2,PTH
FMAT,2
INCH
; #@! TA.AperFunction,Plated,PTH,ViaDrill
T1C0.0118
; #@! TA.AperFunction,Plated,PTH,ComponentDrill
T2C0.0300
; #@! TA.AperFunction,Plated,PTH,ComponentDrill
T3C0.0394
; #@! TA.AperFunction,Plated,PTH,ComponentDrill
T4C0.0472
; #@! TA.AperFunction,Plated,PTH,ComponentDrill
T5C0.0630
%
G90
G05
T1
X5.7114Y-3.6403
X5.9011Y-3.8482
X5.9547Y-3.9628
X5.9556Y-4.2953
X6.0367Y-4.6892
X6.0985Y-3.975
X6.1683Y-4.5324
X6.2989Y-4.2812
X6.3095Y-3.9994
X6.3764Y-3.9427
X6.3764Y-3.9856
X6.3815Y-4.9972
X6.383Y-5.2
X6.516Y-4.7246
X6.528Y-4.7649
X6.6093Y-4.1034
X6.9538Y-3.8604
X7.1147Y-5.2296
T2
X4.6466Y-3.475
X4.6466Y-3.575
X4.6466Y-3.675
X4.6466Y-3.775
X4.6466Y-3.875
X4.6466Y-3.975
X4.6466Y-4.075
X4.6466Y-4.175
X4.6466Y-4.275
X4.6466Y-4.375
X4.6466Y-4.475
X4.6466Y-4.575
X5.5466Y-3.475
X5.5466Y-3.575
X5.5466Y-3.675
X5.5466Y-3.775
X5.5466Y-3.875
X5.5466Y-3.975
X5.5466Y-4.075
X5.5466Y-4.175
X5.5466Y-4.275
X5.5466Y-4.375
X5.5466Y-4.475
X5.5466Y-4.575
T3
X6.1Y-3.4
X6.2Y-3.4
X6.3Y-3.4
X6.4Y-3.4
X6.5Y-3.4
X6.6Y-3.4
X6.7Y-3.4
X6.8Y-3.4
X6.9Y-3.4
X7.0Y-3.4
T4
X7.3748Y-3.75
X7.3748Y-4.7941
X7.7752Y-3.4252
X7.7752Y-4.4693
T5
X7.525Y-3.9
X7.525Y-4.9441
X7.55Y-3.6
X7.55Y-4.6441
T0
M30
