%TF.GenerationSoftware,KiCad,Pcbnew,7.0.7*%
%TF.CreationDate,2023-09-08T00:35:22+02:00*%
%TF.ProjectId,DMX-ArtNET-Gateway,444d582d-4172-4744-9e45-542d47617465,v01*%
%TF.SameCoordinates,Original*%
%TF.FileFunction,Legend,Top*%
%TF.FilePolarity,Positive*%
%FSLAX46Y46*%
G04 Gerber Fmt 4.6, Leading zero omitted, Abs format (unit mm)*
G04 Created by KiCad (PCBNEW 7.0.7) date 2023-09-08 00:35:22*
%MOMM*%
%LPD*%
G01*
G04 APERTURE LIST*
%ADD10C,0.150000*%
%ADD11C,0.120000*%
%ADD12C,0.127000*%
%ADD13C,0.200000*%
G04 APERTURE END LIST*
D10*
X149104819Y-117173333D02*
X149819104Y-117173333D01*
X149819104Y-117173333D02*
X149961961Y-117220952D01*
X149961961Y-117220952D02*
X150057200Y-117316190D01*
X150057200Y-117316190D02*
X150104819Y-117459047D01*
X150104819Y-117459047D02*
X150104819Y-117554285D01*
X149104819Y-116220952D02*
X149104819Y-116697142D01*
X149104819Y-116697142D02*
X149581009Y-116744761D01*
X149581009Y-116744761D02*
X149533390Y-116697142D01*
X149533390Y-116697142D02*
X149485771Y-116601904D01*
X149485771Y-116601904D02*
X149485771Y-116363809D01*
X149485771Y-116363809D02*
X149533390Y-116268571D01*
X149533390Y-116268571D02*
X149581009Y-116220952D01*
X149581009Y-116220952D02*
X149676247Y-116173333D01*
X149676247Y-116173333D02*
X149914342Y-116173333D01*
X149914342Y-116173333D02*
X150009580Y-116220952D01*
X150009580Y-116220952D02*
X150057200Y-116268571D01*
X150057200Y-116268571D02*
X150104819Y-116363809D01*
X150104819Y-116363809D02*
X150104819Y-116601904D01*
X150104819Y-116601904D02*
X150057200Y-116697142D01*
X150057200Y-116697142D02*
X150009580Y-116744761D01*
X141014819Y-86803333D02*
X141729104Y-86803333D01*
X141729104Y-86803333D02*
X141871961Y-86850952D01*
X141871961Y-86850952D02*
X141967200Y-86946190D01*
X141967200Y-86946190D02*
X142014819Y-87089047D01*
X142014819Y-87089047D02*
X142014819Y-87184285D01*
X142014819Y-85803333D02*
X142014819Y-86374761D01*
X142014819Y-86089047D02*
X141014819Y-86089047D01*
X141014819Y-86089047D02*
X141157676Y-86184285D01*
X141157676Y-86184285D02*
X141252914Y-86279523D01*
X141252914Y-86279523D02*
X141300533Y-86374761D01*
X153568095Y-134614819D02*
X153568095Y-135424342D01*
X153568095Y-135424342D02*
X153615714Y-135519580D01*
X153615714Y-135519580D02*
X153663333Y-135567200D01*
X153663333Y-135567200D02*
X153758571Y-135614819D01*
X153758571Y-135614819D02*
X153949047Y-135614819D01*
X153949047Y-135614819D02*
X154044285Y-135567200D01*
X154044285Y-135567200D02*
X154091904Y-135519580D01*
X154091904Y-135519580D02*
X154139523Y-135424342D01*
X154139523Y-135424342D02*
X154139523Y-134614819D01*
X155139523Y-135614819D02*
X154568095Y-135614819D01*
X154853809Y-135614819D02*
X154853809Y-134614819D01*
X154853809Y-134614819D02*
X154758571Y-134757676D01*
X154758571Y-134757676D02*
X154663333Y-134852914D01*
X154663333Y-134852914D02*
X154568095Y-134900533D01*
X134058095Y-121574819D02*
X134058095Y-122384342D01*
X134058095Y-122384342D02*
X134105714Y-122479580D01*
X134105714Y-122479580D02*
X134153333Y-122527200D01*
X134153333Y-122527200D02*
X134248571Y-122574819D01*
X134248571Y-122574819D02*
X134439047Y-122574819D01*
X134439047Y-122574819D02*
X134534285Y-122527200D01*
X134534285Y-122527200D02*
X134581904Y-122479580D01*
X134581904Y-122479580D02*
X134629523Y-122384342D01*
X134629523Y-122384342D02*
X134629523Y-121574819D01*
X135058095Y-121670057D02*
X135105714Y-121622438D01*
X135105714Y-121622438D02*
X135200952Y-121574819D01*
X135200952Y-121574819D02*
X135439047Y-121574819D01*
X135439047Y-121574819D02*
X135534285Y-121622438D01*
X135534285Y-121622438D02*
X135581904Y-121670057D01*
X135581904Y-121670057D02*
X135629523Y-121765295D01*
X135629523Y-121765295D02*
X135629523Y-121860533D01*
X135629523Y-121860533D02*
X135581904Y-122003390D01*
X135581904Y-122003390D02*
X135010476Y-122574819D01*
X135010476Y-122574819D02*
X135629523Y-122574819D01*
X163424405Y-130929819D02*
X163424405Y-129929819D01*
X163424405Y-129929819D02*
X163662500Y-129929819D01*
X163662500Y-129929819D02*
X163805357Y-129977438D01*
X163805357Y-129977438D02*
X163900595Y-130072676D01*
X163900595Y-130072676D02*
X163948214Y-130167914D01*
X163948214Y-130167914D02*
X163995833Y-130358390D01*
X163995833Y-130358390D02*
X163995833Y-130501247D01*
X163995833Y-130501247D02*
X163948214Y-130691723D01*
X163948214Y-130691723D02*
X163900595Y-130786961D01*
X163900595Y-130786961D02*
X163805357Y-130882200D01*
X163805357Y-130882200D02*
X163662500Y-130929819D01*
X163662500Y-130929819D02*
X163424405Y-130929819D01*
X164329167Y-129929819D02*
X164948214Y-129929819D01*
X164948214Y-129929819D02*
X164614881Y-130310771D01*
X164614881Y-130310771D02*
X164757738Y-130310771D01*
X164757738Y-130310771D02*
X164852976Y-130358390D01*
X164852976Y-130358390D02*
X164900595Y-130406009D01*
X164900595Y-130406009D02*
X164948214Y-130501247D01*
X164948214Y-130501247D02*
X164948214Y-130739342D01*
X164948214Y-130739342D02*
X164900595Y-130834580D01*
X164900595Y-130834580D02*
X164852976Y-130882200D01*
X164852976Y-130882200D02*
X164757738Y-130929819D01*
X164757738Y-130929819D02*
X164472024Y-130929819D01*
X164472024Y-130929819D02*
X164376786Y-130882200D01*
X164376786Y-130882200D02*
X164329167Y-130834580D01*
X201786666Y-121224819D02*
X201786666Y-121939104D01*
X201786666Y-121939104D02*
X201739047Y-122081961D01*
X201739047Y-122081961D02*
X201643809Y-122177200D01*
X201643809Y-122177200D02*
X201500952Y-122224819D01*
X201500952Y-122224819D02*
X201405714Y-122224819D01*
X202167619Y-121224819D02*
X202786666Y-121224819D01*
X202786666Y-121224819D02*
X202453333Y-121605771D01*
X202453333Y-121605771D02*
X202596190Y-121605771D01*
X202596190Y-121605771D02*
X202691428Y-121653390D01*
X202691428Y-121653390D02*
X202739047Y-121701009D01*
X202739047Y-121701009D02*
X202786666Y-121796247D01*
X202786666Y-121796247D02*
X202786666Y-122034342D01*
X202786666Y-122034342D02*
X202739047Y-122129580D01*
X202739047Y-122129580D02*
X202691428Y-122177200D01*
X202691428Y-122177200D02*
X202596190Y-122224819D01*
X202596190Y-122224819D02*
X202310476Y-122224819D01*
X202310476Y-122224819D02*
X202215238Y-122177200D01*
X202215238Y-122177200D02*
X202167619Y-122129580D01*
X173251905Y-125804819D02*
X173251905Y-124804819D01*
X173251905Y-124804819D02*
X173490000Y-124804819D01*
X173490000Y-124804819D02*
X173632857Y-124852438D01*
X173632857Y-124852438D02*
X173728095Y-124947676D01*
X173728095Y-124947676D02*
X173775714Y-125042914D01*
X173775714Y-125042914D02*
X173823333Y-125233390D01*
X173823333Y-125233390D02*
X173823333Y-125376247D01*
X173823333Y-125376247D02*
X173775714Y-125566723D01*
X173775714Y-125566723D02*
X173728095Y-125661961D01*
X173728095Y-125661961D02*
X173632857Y-125757200D01*
X173632857Y-125757200D02*
X173490000Y-125804819D01*
X173490000Y-125804819D02*
X173251905Y-125804819D01*
X174394762Y-125233390D02*
X174299524Y-125185771D01*
X174299524Y-125185771D02*
X174251905Y-125138152D01*
X174251905Y-125138152D02*
X174204286Y-125042914D01*
X174204286Y-125042914D02*
X174204286Y-124995295D01*
X174204286Y-124995295D02*
X174251905Y-124900057D01*
X174251905Y-124900057D02*
X174299524Y-124852438D01*
X174299524Y-124852438D02*
X174394762Y-124804819D01*
X174394762Y-124804819D02*
X174585238Y-124804819D01*
X174585238Y-124804819D02*
X174680476Y-124852438D01*
X174680476Y-124852438D02*
X174728095Y-124900057D01*
X174728095Y-124900057D02*
X174775714Y-124995295D01*
X174775714Y-124995295D02*
X174775714Y-125042914D01*
X174775714Y-125042914D02*
X174728095Y-125138152D01*
X174728095Y-125138152D02*
X174680476Y-125185771D01*
X174680476Y-125185771D02*
X174585238Y-125233390D01*
X174585238Y-125233390D02*
X174394762Y-125233390D01*
X174394762Y-125233390D02*
X174299524Y-125281009D01*
X174299524Y-125281009D02*
X174251905Y-125328628D01*
X174251905Y-125328628D02*
X174204286Y-125423866D01*
X174204286Y-125423866D02*
X174204286Y-125614342D01*
X174204286Y-125614342D02*
X174251905Y-125709580D01*
X174251905Y-125709580D02*
X174299524Y-125757200D01*
X174299524Y-125757200D02*
X174394762Y-125804819D01*
X174394762Y-125804819D02*
X174585238Y-125804819D01*
X174585238Y-125804819D02*
X174680476Y-125757200D01*
X174680476Y-125757200D02*
X174728095Y-125709580D01*
X174728095Y-125709580D02*
X174775714Y-125614342D01*
X174775714Y-125614342D02*
X174775714Y-125423866D01*
X174775714Y-125423866D02*
X174728095Y-125328628D01*
X174728095Y-125328628D02*
X174680476Y-125281009D01*
X174680476Y-125281009D02*
X174585238Y-125233390D01*
X158463095Y-95817819D02*
X158463095Y-96627342D01*
X158463095Y-96627342D02*
X158510714Y-96722580D01*
X158510714Y-96722580D02*
X158558333Y-96770200D01*
X158558333Y-96770200D02*
X158653571Y-96817819D01*
X158653571Y-96817819D02*
X158844047Y-96817819D01*
X158844047Y-96817819D02*
X158939285Y-96770200D01*
X158939285Y-96770200D02*
X158986904Y-96722580D01*
X158986904Y-96722580D02*
X159034523Y-96627342D01*
X159034523Y-96627342D02*
X159034523Y-95817819D01*
X159415476Y-95817819D02*
X160034523Y-95817819D01*
X160034523Y-95817819D02*
X159701190Y-96198771D01*
X159701190Y-96198771D02*
X159844047Y-96198771D01*
X159844047Y-96198771D02*
X159939285Y-96246390D01*
X159939285Y-96246390D02*
X159986904Y-96294009D01*
X159986904Y-96294009D02*
X160034523Y-96389247D01*
X160034523Y-96389247D02*
X160034523Y-96627342D01*
X160034523Y-96627342D02*
X159986904Y-96722580D01*
X159986904Y-96722580D02*
X159939285Y-96770200D01*
X159939285Y-96770200D02*
X159844047Y-96817819D01*
X159844047Y-96817819D02*
X159558333Y-96817819D01*
X159558333Y-96817819D02*
X159463095Y-96770200D01*
X159463095Y-96770200D02*
X159415476Y-96722580D01*
X138504819Y-96925594D02*
X137504819Y-96925594D01*
X137504819Y-96925594D02*
X137504819Y-96687499D01*
X137504819Y-96687499D02*
X137552438Y-96544642D01*
X137552438Y-96544642D02*
X137647676Y-96449404D01*
X137647676Y-96449404D02*
X137742914Y-96401785D01*
X137742914Y-96401785D02*
X137933390Y-96354166D01*
X137933390Y-96354166D02*
X138076247Y-96354166D01*
X138076247Y-96354166D02*
X138266723Y-96401785D01*
X138266723Y-96401785D02*
X138361961Y-96449404D01*
X138361961Y-96449404D02*
X138457200Y-96544642D01*
X138457200Y-96544642D02*
X138504819Y-96687499D01*
X138504819Y-96687499D02*
X138504819Y-96925594D01*
X137838152Y-95497023D02*
X138504819Y-95497023D01*
X137457200Y-95735118D02*
X138171485Y-95973213D01*
X138171485Y-95973213D02*
X138171485Y-95354166D01*
X124134819Y-85863333D02*
X124849104Y-85863333D01*
X124849104Y-85863333D02*
X124991961Y-85910952D01*
X124991961Y-85910952D02*
X125087200Y-86006190D01*
X125087200Y-86006190D02*
X125134819Y-86149047D01*
X125134819Y-86149047D02*
X125134819Y-86244285D01*
X124468152Y-84958571D02*
X125134819Y-84958571D01*
X124087200Y-85196666D02*
X124801485Y-85434761D01*
X124801485Y-85434761D02*
X124801485Y-84815714D01*
X173251905Y-134184819D02*
X173251905Y-133184819D01*
X173251905Y-133184819D02*
X173490000Y-133184819D01*
X173490000Y-133184819D02*
X173632857Y-133232438D01*
X173632857Y-133232438D02*
X173728095Y-133327676D01*
X173728095Y-133327676D02*
X173775714Y-133422914D01*
X173775714Y-133422914D02*
X173823333Y-133613390D01*
X173823333Y-133613390D02*
X173823333Y-133756247D01*
X173823333Y-133756247D02*
X173775714Y-133946723D01*
X173775714Y-133946723D02*
X173728095Y-134041961D01*
X173728095Y-134041961D02*
X173632857Y-134137200D01*
X173632857Y-134137200D02*
X173490000Y-134184819D01*
X173490000Y-134184819D02*
X173251905Y-134184819D01*
X174775714Y-134184819D02*
X174204286Y-134184819D01*
X174490000Y-134184819D02*
X174490000Y-133184819D01*
X174490000Y-133184819D02*
X174394762Y-133327676D01*
X174394762Y-133327676D02*
X174299524Y-133422914D01*
X174299524Y-133422914D02*
X174204286Y-133470533D01*
X158463095Y-114082819D02*
X158463095Y-114892342D01*
X158463095Y-114892342D02*
X158510714Y-114987580D01*
X158510714Y-114987580D02*
X158558333Y-115035200D01*
X158558333Y-115035200D02*
X158653571Y-115082819D01*
X158653571Y-115082819D02*
X158844047Y-115082819D01*
X158844047Y-115082819D02*
X158939285Y-115035200D01*
X158939285Y-115035200D02*
X158986904Y-114987580D01*
X158986904Y-114987580D02*
X159034523Y-114892342D01*
X159034523Y-114892342D02*
X159034523Y-114082819D01*
X159939285Y-114416152D02*
X159939285Y-115082819D01*
X159701190Y-114035200D02*
X159463095Y-114749485D01*
X159463095Y-114749485D02*
X160082142Y-114749485D01*
X173251905Y-120724819D02*
X173251905Y-119724819D01*
X173251905Y-119724819D02*
X173490000Y-119724819D01*
X173490000Y-119724819D02*
X173632857Y-119772438D01*
X173632857Y-119772438D02*
X173728095Y-119867676D01*
X173728095Y-119867676D02*
X173775714Y-119962914D01*
X173775714Y-119962914D02*
X173823333Y-120153390D01*
X173823333Y-120153390D02*
X173823333Y-120296247D01*
X173823333Y-120296247D02*
X173775714Y-120486723D01*
X173775714Y-120486723D02*
X173728095Y-120581961D01*
X173728095Y-120581961D02*
X173632857Y-120677200D01*
X173632857Y-120677200D02*
X173490000Y-120724819D01*
X173490000Y-120724819D02*
X173251905Y-120724819D01*
X174299524Y-120724819D02*
X174490000Y-120724819D01*
X174490000Y-120724819D02*
X174585238Y-120677200D01*
X174585238Y-120677200D02*
X174632857Y-120629580D01*
X174632857Y-120629580D02*
X174728095Y-120486723D01*
X174728095Y-120486723D02*
X174775714Y-120296247D01*
X174775714Y-120296247D02*
X174775714Y-119915295D01*
X174775714Y-119915295D02*
X174728095Y-119820057D01*
X174728095Y-119820057D02*
X174680476Y-119772438D01*
X174680476Y-119772438D02*
X174585238Y-119724819D01*
X174585238Y-119724819D02*
X174394762Y-119724819D01*
X174394762Y-119724819D02*
X174299524Y-119772438D01*
X174299524Y-119772438D02*
X174251905Y-119820057D01*
X174251905Y-119820057D02*
X174204286Y-119915295D01*
X174204286Y-119915295D02*
X174204286Y-120153390D01*
X174204286Y-120153390D02*
X174251905Y-120248628D01*
X174251905Y-120248628D02*
X174299524Y-120296247D01*
X174299524Y-120296247D02*
X174394762Y-120343866D01*
X174394762Y-120343866D02*
X174585238Y-120343866D01*
X174585238Y-120343866D02*
X174680476Y-120296247D01*
X174680476Y-120296247D02*
X174728095Y-120248628D01*
X174728095Y-120248628D02*
X174775714Y-120153390D01*
X173251905Y-95324819D02*
X173251905Y-94324819D01*
X173251905Y-94324819D02*
X173490000Y-94324819D01*
X173490000Y-94324819D02*
X173632857Y-94372438D01*
X173632857Y-94372438D02*
X173728095Y-94467676D01*
X173728095Y-94467676D02*
X173775714Y-94562914D01*
X173775714Y-94562914D02*
X173823333Y-94753390D01*
X173823333Y-94753390D02*
X173823333Y-94896247D01*
X173823333Y-94896247D02*
X173775714Y-95086723D01*
X173775714Y-95086723D02*
X173728095Y-95181961D01*
X173728095Y-95181961D02*
X173632857Y-95277200D01*
X173632857Y-95277200D02*
X173490000Y-95324819D01*
X173490000Y-95324819D02*
X173251905Y-95324819D01*
X174680476Y-94324819D02*
X174490000Y-94324819D01*
X174490000Y-94324819D02*
X174394762Y-94372438D01*
X174394762Y-94372438D02*
X174347143Y-94420057D01*
X174347143Y-94420057D02*
X174251905Y-94562914D01*
X174251905Y-94562914D02*
X174204286Y-94753390D01*
X174204286Y-94753390D02*
X174204286Y-95134342D01*
X174204286Y-95134342D02*
X174251905Y-95229580D01*
X174251905Y-95229580D02*
X174299524Y-95277200D01*
X174299524Y-95277200D02*
X174394762Y-95324819D01*
X174394762Y-95324819D02*
X174585238Y-95324819D01*
X174585238Y-95324819D02*
X174680476Y-95277200D01*
X174680476Y-95277200D02*
X174728095Y-95229580D01*
X174728095Y-95229580D02*
X174775714Y-95134342D01*
X174775714Y-95134342D02*
X174775714Y-94896247D01*
X174775714Y-94896247D02*
X174728095Y-94801009D01*
X174728095Y-94801009D02*
X174680476Y-94753390D01*
X174680476Y-94753390D02*
X174585238Y-94705771D01*
X174585238Y-94705771D02*
X174394762Y-94705771D01*
X174394762Y-94705771D02*
X174299524Y-94753390D01*
X174299524Y-94753390D02*
X174251905Y-94801009D01*
X174251905Y-94801009D02*
X174204286Y-94896247D01*
X163369405Y-125804819D02*
X163369405Y-124804819D01*
X163369405Y-124804819D02*
X163607500Y-124804819D01*
X163607500Y-124804819D02*
X163750357Y-124852438D01*
X163750357Y-124852438D02*
X163845595Y-124947676D01*
X163845595Y-124947676D02*
X163893214Y-125042914D01*
X163893214Y-125042914D02*
X163940833Y-125233390D01*
X163940833Y-125233390D02*
X163940833Y-125376247D01*
X163940833Y-125376247D02*
X163893214Y-125566723D01*
X163893214Y-125566723D02*
X163845595Y-125661961D01*
X163845595Y-125661961D02*
X163750357Y-125757200D01*
X163750357Y-125757200D02*
X163607500Y-125804819D01*
X163607500Y-125804819D02*
X163369405Y-125804819D01*
X164321786Y-124900057D02*
X164369405Y-124852438D01*
X164369405Y-124852438D02*
X164464643Y-124804819D01*
X164464643Y-124804819D02*
X164702738Y-124804819D01*
X164702738Y-124804819D02*
X164797976Y-124852438D01*
X164797976Y-124852438D02*
X164845595Y-124900057D01*
X164845595Y-124900057D02*
X164893214Y-124995295D01*
X164893214Y-124995295D02*
X164893214Y-125090533D01*
X164893214Y-125090533D02*
X164845595Y-125233390D01*
X164845595Y-125233390D02*
X164274167Y-125804819D01*
X164274167Y-125804819D02*
X164893214Y-125804819D01*
X143584819Y-96925594D02*
X142584819Y-96925594D01*
X142584819Y-96925594D02*
X142584819Y-96687499D01*
X142584819Y-96687499D02*
X142632438Y-96544642D01*
X142632438Y-96544642D02*
X142727676Y-96449404D01*
X142727676Y-96449404D02*
X142822914Y-96401785D01*
X142822914Y-96401785D02*
X143013390Y-96354166D01*
X143013390Y-96354166D02*
X143156247Y-96354166D01*
X143156247Y-96354166D02*
X143346723Y-96401785D01*
X143346723Y-96401785D02*
X143441961Y-96449404D01*
X143441961Y-96449404D02*
X143537200Y-96544642D01*
X143537200Y-96544642D02*
X143584819Y-96687499D01*
X143584819Y-96687499D02*
X143584819Y-96925594D01*
X142584819Y-95449404D02*
X142584819Y-95925594D01*
X142584819Y-95925594D02*
X143061009Y-95973213D01*
X143061009Y-95973213D02*
X143013390Y-95925594D01*
X143013390Y-95925594D02*
X142965771Y-95830356D01*
X142965771Y-95830356D02*
X142965771Y-95592261D01*
X142965771Y-95592261D02*
X143013390Y-95497023D01*
X143013390Y-95497023D02*
X143061009Y-95449404D01*
X143061009Y-95449404D02*
X143156247Y-95401785D01*
X143156247Y-95401785D02*
X143394342Y-95401785D01*
X143394342Y-95401785D02*
X143489580Y-95449404D01*
X143489580Y-95449404D02*
X143537200Y-95497023D01*
X143537200Y-95497023D02*
X143584819Y-95592261D01*
X143584819Y-95592261D02*
X143584819Y-95830356D01*
X143584819Y-95830356D02*
X143537200Y-95925594D01*
X143537200Y-95925594D02*
X143489580Y-95973213D01*
X173251905Y-90244819D02*
X173251905Y-89244819D01*
X173251905Y-89244819D02*
X173490000Y-89244819D01*
X173490000Y-89244819D02*
X173632857Y-89292438D01*
X173632857Y-89292438D02*
X173728095Y-89387676D01*
X173728095Y-89387676D02*
X173775714Y-89482914D01*
X173775714Y-89482914D02*
X173823333Y-89673390D01*
X173823333Y-89673390D02*
X173823333Y-89816247D01*
X173823333Y-89816247D02*
X173775714Y-90006723D01*
X173775714Y-90006723D02*
X173728095Y-90101961D01*
X173728095Y-90101961D02*
X173632857Y-90197200D01*
X173632857Y-90197200D02*
X173490000Y-90244819D01*
X173490000Y-90244819D02*
X173251905Y-90244819D01*
X174156667Y-89244819D02*
X174823333Y-89244819D01*
X174823333Y-89244819D02*
X174394762Y-90244819D01*
X201786666Y-94704819D02*
X201786666Y-95419104D01*
X201786666Y-95419104D02*
X201739047Y-95561961D01*
X201739047Y-95561961D02*
X201643809Y-95657200D01*
X201643809Y-95657200D02*
X201500952Y-95704819D01*
X201500952Y-95704819D02*
X201405714Y-95704819D01*
X202215238Y-94800057D02*
X202262857Y-94752438D01*
X202262857Y-94752438D02*
X202358095Y-94704819D01*
X202358095Y-94704819D02*
X202596190Y-94704819D01*
X202596190Y-94704819D02*
X202691428Y-94752438D01*
X202691428Y-94752438D02*
X202739047Y-94800057D01*
X202739047Y-94800057D02*
X202786666Y-94895295D01*
X202786666Y-94895295D02*
X202786666Y-94990533D01*
X202786666Y-94990533D02*
X202739047Y-95133390D01*
X202739047Y-95133390D02*
X202167619Y-95704819D01*
X202167619Y-95704819D02*
X202786666Y-95704819D01*
D11*
%TO.C,J5*%
X146050000Y-118170000D02*
X138370000Y-118170000D01*
X147320000Y-115510000D02*
X148650000Y-115510000D01*
X138370000Y-115510000D02*
X138370000Y-118170000D01*
X146050000Y-115510000D02*
X146050000Y-118170000D01*
X148650000Y-115510000D02*
X148650000Y-116840000D01*
X146050000Y-115510000D02*
X138370000Y-115510000D01*
%TO.C,C5*%
X118845000Y-124198748D02*
X118845000Y-124721252D01*
X117375000Y-124198748D02*
X117375000Y-124721252D01*
%TO.C,C2*%
X146585000Y-131071252D02*
X146585000Y-130548748D01*
X148055000Y-131071252D02*
X148055000Y-130548748D01*
%TO.C,C1*%
X154251252Y-126315000D02*
X153728748Y-126315000D01*
X154251252Y-124845000D02*
X153728748Y-124845000D01*
%TO.C,J1*%
X138370000Y-87690000D02*
X138370000Y-86360000D01*
X139700000Y-87690000D02*
X138370000Y-87690000D01*
X140970000Y-87690000D02*
X163890000Y-87690000D01*
X140970000Y-87690000D02*
X140970000Y-85030000D01*
X163890000Y-87690000D02*
X163890000Y-85030000D01*
X140970000Y-85030000D02*
X163890000Y-85030000D01*
%TO.C,R11*%
X182145000Y-89127064D02*
X182145000Y-88672936D01*
X183615000Y-89127064D02*
X183615000Y-88672936D01*
%TO.C,R22*%
X152530436Y-119735000D02*
X152984564Y-119735000D01*
X152530436Y-121205000D02*
X152984564Y-121205000D01*
%TO.C,R21*%
X152530436Y-117225000D02*
X152984564Y-117225000D01*
X152530436Y-118695000D02*
X152984564Y-118695000D01*
%TO.C,R15*%
X168375000Y-115192936D02*
X168375000Y-115647064D01*
X166905000Y-115192936D02*
X166905000Y-115647064D01*
%TO.C,R1*%
X177572936Y-131345000D02*
X178027064Y-131345000D01*
X177572936Y-132815000D02*
X178027064Y-132815000D01*
%TO.C,R13*%
X168375000Y-96927936D02*
X168375000Y-97382064D01*
X166905000Y-96927936D02*
X166905000Y-97382064D01*
%TO.C,U1*%
X158430000Y-134070000D02*
X152420000Y-134070000D01*
X156180000Y-127250000D02*
X152420000Y-127250000D01*
X152420000Y-134070000D02*
X152420000Y-132810000D01*
X152420000Y-127250000D02*
X152420000Y-128510000D01*
%TO.C,U2*%
X110530000Y-120630000D02*
X116945000Y-120630000D01*
X110530000Y-120630000D02*
X110530000Y-102390000D01*
X116945000Y-120630000D02*
X116945000Y-121010000D01*
X135490000Y-120630000D02*
X136270000Y-120630000D01*
X136270000Y-120630000D02*
X136270000Y-119630000D01*
X110530000Y-102390000D02*
X116945000Y-102390000D01*
X135490000Y-102390000D02*
X136270000Y-102390000D01*
X136270000Y-102390000D02*
X136270000Y-103390000D01*
%TO.C,D3*%
X162477500Y-131165000D02*
X162477500Y-133085000D01*
X162477500Y-133085000D02*
X165162500Y-133085000D01*
X165162500Y-131165000D02*
X162477500Y-131165000D01*
%TO.C,R2*%
X168724564Y-127735000D02*
X168270436Y-127735000D01*
X168724564Y-126265000D02*
X168270436Y-126265000D01*
%TO.C,R3*%
X168724564Y-132815000D02*
X168270436Y-132815000D01*
X168724564Y-131345000D02*
X168270436Y-131345000D01*
%TO.C,J3*%
X184850000Y-113650000D02*
X184850000Y-129890000D01*
X192350000Y-110900000D02*
X192350000Y-113650000D01*
X192350000Y-113650000D02*
X184850000Y-113650000D01*
X192350000Y-129890000D02*
X184850000Y-129890000D01*
X192350000Y-129890000D02*
X192350000Y-132640000D01*
X197850000Y-110900000D02*
X192350000Y-110900000D01*
X197850000Y-110900000D02*
X197850000Y-109150000D01*
X197850000Y-132640000D02*
X192350000Y-132640000D01*
X197850000Y-134690000D02*
X197850000Y-132640000D01*
X204590000Y-109150000D02*
X197850000Y-109150000D01*
X204590000Y-109150000D02*
X204590000Y-110650000D01*
X204590000Y-110650000D02*
X207290000Y-110650000D01*
X204590000Y-132890000D02*
X204590000Y-134690000D01*
X204590000Y-132890000D02*
X207290000Y-132890000D01*
X204590000Y-134690000D02*
X197850000Y-134690000D01*
X207290000Y-110650000D02*
X207290000Y-132890000D01*
%TO.C,D8*%
X172305000Y-126040000D02*
X172305000Y-127960000D01*
X172305000Y-127960000D02*
X174990000Y-127960000D01*
X174990000Y-126040000D02*
X172305000Y-126040000D01*
%TO.C,R16*%
X168375000Y-120272936D02*
X168375000Y-120727064D01*
X166905000Y-120272936D02*
X166905000Y-120727064D01*
D12*
%TO.C,U3*%
X158020000Y-97175000D02*
X162020000Y-97175000D01*
X158020000Y-102215000D02*
X162020000Y-102215000D01*
D13*
X155675000Y-97200000D02*
G75*
G03*
X155675000Y-97200000I-100000J0D01*
G01*
D11*
%TO.C,D4*%
X138740000Y-97872500D02*
X140660000Y-97872500D01*
X140660000Y-97872500D02*
X140660000Y-95187500D01*
X138740000Y-95187500D02*
X138740000Y-97872500D01*
%TO.C,R8*%
X178027064Y-127735000D02*
X177572936Y-127735000D01*
X178027064Y-126265000D02*
X177572936Y-126265000D01*
%TO.C,R14*%
X168375000Y-102007936D02*
X168375000Y-102462064D01*
X166905000Y-102007936D02*
X166905000Y-102462064D01*
%TO.C,R9*%
X178027064Y-122655000D02*
X177572936Y-122655000D01*
X178027064Y-121185000D02*
X177572936Y-121185000D01*
%TO.C,R5*%
X145515000Y-92150436D02*
X145515000Y-92604564D01*
X144045000Y-92150436D02*
X144045000Y-92604564D01*
%TO.C,R19*%
X152530436Y-96420000D02*
X152984564Y-96420000D01*
X152530436Y-97890000D02*
X152984564Y-97890000D01*
%TO.C,R4*%
X140435000Y-92150436D02*
X140435000Y-92604564D01*
X138965000Y-92150436D02*
X138965000Y-92604564D01*
%TO.C,R20*%
X152530436Y-114715000D02*
X152984564Y-114715000D01*
X152530436Y-116185000D02*
X152984564Y-116185000D01*
%TO.C,C4*%
X158488748Y-124675000D02*
X159011252Y-124675000D01*
X158488748Y-126145000D02*
X159011252Y-126145000D01*
%TO.C,C3*%
X148055000Y-126738748D02*
X148055000Y-127261252D01*
X146585000Y-126738748D02*
X146585000Y-127261252D01*
%TO.C,R17*%
X152530436Y-101500000D02*
X152984564Y-101500000D01*
X152530436Y-102970000D02*
X152984564Y-102970000D01*
%TO.C,J4*%
X135270000Y-95020000D02*
X133530000Y-95020000D01*
X135270000Y-93280000D02*
X135270000Y-95020000D01*
X135030000Y-94780000D02*
X132230000Y-94780000D01*
X135030000Y-80180000D02*
X135030000Y-94780000D01*
X128630000Y-94780000D02*
X125830000Y-94780000D01*
X125830000Y-94780000D02*
X125830000Y-92780000D01*
X125830000Y-89180000D02*
X125830000Y-80180000D01*
X125830000Y-80180000D02*
X135030000Y-80180000D01*
%TO.C,C6*%
X121385000Y-124198748D02*
X121385000Y-124721252D01*
X119915000Y-124198748D02*
X119915000Y-124721252D01*
%TO.C,R10*%
X124687064Y-123925000D02*
X124232936Y-123925000D01*
X124687064Y-122455000D02*
X124232936Y-122455000D01*
%TO.C,D1*%
X175675000Y-133040000D02*
X175675000Y-131120000D01*
X175675000Y-131120000D02*
X172990000Y-131120000D01*
X172990000Y-133040000D02*
X175675000Y-133040000D01*
D12*
%TO.C,U4*%
X158020000Y-115440000D02*
X162020000Y-115440000D01*
X158020000Y-120480000D02*
X162020000Y-120480000D01*
D13*
X155675000Y-115465000D02*
G75*
G03*
X155675000Y-115465000I-100000J0D01*
G01*
D11*
%TO.C,D9*%
X172305000Y-120960000D02*
X172305000Y-122880000D01*
X172305000Y-122880000D02*
X174990000Y-122880000D01*
X174990000Y-120960000D02*
X172305000Y-120960000D01*
%TO.C,D6*%
X172305000Y-95560000D02*
X172305000Y-97480000D01*
X172305000Y-97480000D02*
X174990000Y-97480000D01*
X174990000Y-95560000D02*
X172305000Y-95560000D01*
%TO.C,D2*%
X162422500Y-126040000D02*
X162422500Y-127960000D01*
X162422500Y-127960000D02*
X165107500Y-127960000D01*
X165107500Y-126040000D02*
X162422500Y-126040000D01*
%TO.C,D5*%
X143820000Y-97872500D02*
X145740000Y-97872500D01*
X145740000Y-97872500D02*
X145740000Y-95187500D01*
X143820000Y-95187500D02*
X143820000Y-97872500D01*
%TO.C,R7*%
X178027064Y-92175000D02*
X177572936Y-92175000D01*
X178027064Y-90705000D02*
X177572936Y-90705000D01*
%TO.C,R18*%
X152530436Y-98960000D02*
X152984564Y-98960000D01*
X152530436Y-100430000D02*
X152984564Y-100430000D01*
%TO.C,R12*%
X182145000Y-114527064D02*
X182145000Y-114072936D01*
X183615000Y-114527064D02*
X183615000Y-114072936D01*
%TO.C,D7*%
X172305000Y-90480000D02*
X172305000Y-92400000D01*
X172305000Y-92400000D02*
X174990000Y-92400000D01*
X174990000Y-90480000D02*
X172305000Y-90480000D01*
%TO.C,R6*%
X178027064Y-97255000D02*
X177572936Y-97255000D01*
X178027064Y-95785000D02*
X177572936Y-95785000D01*
%TO.C,J2*%
X184850000Y-87130000D02*
X184850000Y-103370000D01*
X192350000Y-84380000D02*
X192350000Y-87130000D01*
X192350000Y-87130000D02*
X184850000Y-87130000D01*
X192350000Y-103370000D02*
X184850000Y-103370000D01*
X192350000Y-103370000D02*
X192350000Y-106120000D01*
X197850000Y-84380000D02*
X192350000Y-84380000D01*
X197850000Y-84380000D02*
X197850000Y-82630000D01*
X197850000Y-106120000D02*
X192350000Y-106120000D01*
X197850000Y-108170000D02*
X197850000Y-106120000D01*
X204590000Y-82630000D02*
X197850000Y-82630000D01*
X204590000Y-82630000D02*
X204590000Y-84130000D01*
X204590000Y-84130000D02*
X207290000Y-84130000D01*
X204590000Y-106370000D02*
X204590000Y-108170000D01*
X204590000Y-106370000D02*
X207290000Y-106370000D01*
X204590000Y-108170000D02*
X197850000Y-108170000D01*
X207290000Y-84130000D02*
X207290000Y-106370000D01*
%TD*%
M02*
