M48
; DRILL file {KiCad 7.0.7} date 2023 September 08, Friday 00:35:20
; FORMAT={-:-/ absolute / inch / decimal}
; #@! TF.CreationDate,2023-09-08T00:35:20+02:00
; #@! TF.GenerationSoftware,Kicad,Pcbnew,7.0.7
; #@! TF.FileFunction,Plated,1,2,PTH
FMAT,2
INCH
; #@! TA.AperFunction,Plated,PTH,ComponentDrill
T1C0.0098
; #@! TA.AperFunction,Plated,PTH,ViaDrill
T2C0.0118
; #@! TA.AperFunction,Plated,PTH,ComponentDrill
T3C0.0394
; #@! TA.AperFunction,Plated,PTH,ComponentDrill
T4C0.0472
; #@! TA.AperFunction,Plated,PTH,ComponentDrill
T5C0.0630
%
G90
G05
T1
X4.9Y-4.4217
X4.9Y-4.4768
X4.9276Y-4.3941
X4.9276Y-4.4502
X4.9276Y-4.5043
X4.9551Y-4.4217
X4.9551Y-4.4768
X4.9827Y-4.3941
X4.9827Y-4.4502
X4.9827Y-4.5043
X5.0102Y-4.4217
X5.0102Y-4.4768
T2
X4.6411Y-4.1004
X4.648Y-4.7935
X4.7Y-4.9313
X5.0311Y-3.7302
X5.1355Y-3.9704
X5.2206Y-3.9942
X5.2344Y-4.5324
X5.3194Y-4.679
X5.3688Y-3.72
X5.4035Y-4.6147
X5.4093Y-4.6556
X5.4871Y-3.9116
X5.5258Y-3.8665
X5.5344Y-4.3676
X5.5623Y-3.4359
X5.6544Y-4.6632
X5.7417Y-4.2074
X5.7995Y-5.075
X5.8299Y-3.9326
X5.911Y-3.937
X5.911Y-4.0463
X5.9369Y-4.5689
X5.948Y-4.3376
X5.9934Y-4.6892
X6.0626Y-4.9455
X6.143Y-5.2307
X6.3327Y-4.9269
X6.3815Y-4.9972
X6.3826Y-5.2031
X6.4164Y-4.7768
X6.4554Y-3.9856
X6.6093Y-4.1034
X6.6675Y-4.7863
X7.1147Y-5.2296
X7.3613Y-4.6348
T3
X5.5Y-3.4
X5.5Y-4.6
X5.6Y-3.4
X5.6Y-4.6
X5.7Y-3.4
X5.7Y-4.6
X5.8Y-3.4
X5.8Y-4.6
X5.9Y-3.4
X6.0Y-3.4
X6.1Y-3.4
X6.2Y-3.4
X6.3Y-3.4
X6.4Y-3.4
T4
X7.3748Y-3.75
X7.3748Y-4.7941
X7.7752Y-3.4252
X7.7752Y-4.4693
T5
X4.95Y-3.5819
X5.135Y-3.4638
X5.135Y-3.7
X7.525Y-3.9
X7.525Y-4.9441
X7.55Y-3.6
X7.55Y-4.6441
T0
M30
