%TF.GenerationSoftware,KiCad,Pcbnew,7.0.7*%
%TF.CreationDate,2023-09-08T00:35:22+02:00*%
%TF.ProjectId,DMX-ArtNET-Gateway,444d582d-4172-4744-9e45-542d47617465,v01*%
%TF.SameCoordinates,Original*%
%TF.FileFunction,Paste,Top*%
%TF.FilePolarity,Positive*%
%FSLAX46Y46*%
G04 Gerber Fmt 4.6, Leading zero omitted, Abs format (unit mm)*
G04 Created by KiCad (PCBNEW 7.0.7) date 2023-09-08 00:35:22*
%MOMM*%
%LPD*%
G01*
G04 APERTURE LIST*
G04 Aperture macros list*
%AMRoundRect*
0 Rectangle with rounded corners*
0 $1 Rounding radius*
0 $2 $3 $4 $5 $6 $7 $8 $9 X,Y pos of 4 corners*
0 Add a 4 corners polygon primitive as box body*
4,1,4,$2,$3,$4,$5,$6,$7,$8,$9,$2,$3,0*
0 Add four circle primitives for the rounded corners*
1,1,$1+$1,$2,$3*
1,1,$1+$1,$4,$5*
1,1,$1+$1,$6,$7*
1,1,$1+$1,$8,$9*
0 Add four rect primitives between the rounded corners*
20,1,$1+$1,$2,$3,$4,$5,0*
20,1,$1+$1,$4,$5,$6,$7,0*
20,1,$1+$1,$6,$7,$8,$9,0*
20,1,$1+$1,$8,$9,$2,$3,0*%
G04 Aperture macros list end*
%ADD10RoundRect,0.250000X-0.475000X0.250000X-0.475000X-0.250000X0.475000X-0.250000X0.475000X0.250000X0*%
%ADD11RoundRect,0.250000X0.475000X-0.250000X0.475000X0.250000X-0.475000X0.250000X-0.475000X-0.250000X0*%
%ADD12RoundRect,0.250000X0.250000X0.475000X-0.250000X0.475000X-0.250000X-0.475000X0.250000X-0.475000X0*%
%ADD13RoundRect,0.250000X0.450000X-0.262500X0.450000X0.262500X-0.450000X0.262500X-0.450000X-0.262500X0*%
%ADD14RoundRect,0.250000X-0.262500X-0.450000X0.262500X-0.450000X0.262500X0.450000X-0.262500X0.450000X0*%
%ADD15RoundRect,0.250000X-0.450000X0.262500X-0.450000X-0.262500X0.450000X-0.262500X0.450000X0.262500X0*%
%ADD16R,2.000000X1.500000*%
%ADD17R,2.000000X3.800000*%
%ADD18R,0.900000X1.500000*%
%ADD19R,1.500000X0.900000*%
%ADD20R,0.900000X0.900000*%
%ADD21RoundRect,0.243750X-0.243750X-0.456250X0.243750X-0.456250X0.243750X0.456250X-0.243750X0.456250X0*%
%ADD22RoundRect,0.250000X0.262500X0.450000X-0.262500X0.450000X-0.262500X-0.450000X0.262500X-0.450000X0*%
%ADD23RoundRect,0.041300X-0.943700X-0.253700X0.943700X-0.253700X0.943700X0.253700X-0.943700X0.253700X0*%
%ADD24RoundRect,0.243750X0.456250X-0.243750X0.456250X0.243750X-0.456250X0.243750X-0.456250X-0.243750X0*%
%ADD25RoundRect,0.250000X-0.250000X-0.475000X0.250000X-0.475000X0.250000X0.475000X-0.250000X0.475000X0*%
%ADD26RoundRect,0.243750X0.243750X0.456250X-0.243750X0.456250X-0.243750X-0.456250X0.243750X-0.456250X0*%
G04 APERTURE END LIST*
D10*
%TO.C,C5*%
X118110000Y-123510000D03*
X118110000Y-125410000D03*
%TD*%
D11*
%TO.C,C2*%
X147320000Y-131760000D03*
X147320000Y-129860000D03*
%TD*%
D12*
%TO.C,C1*%
X154940000Y-125580000D03*
X153040000Y-125580000D03*
%TD*%
D13*
%TO.C,R11*%
X182880000Y-89812500D03*
X182880000Y-87987500D03*
%TD*%
D14*
%TO.C,R22*%
X151845000Y-120470000D03*
X153670000Y-120470000D03*
%TD*%
%TO.C,R21*%
X151845000Y-117960000D03*
X153670000Y-117960000D03*
%TD*%
D15*
%TO.C,R15*%
X167640000Y-114507500D03*
X167640000Y-116332500D03*
%TD*%
D14*
%TO.C,R1*%
X176887500Y-132080000D03*
X178712500Y-132080000D03*
%TD*%
D15*
%TO.C,R13*%
X167640000Y-96242500D03*
X167640000Y-98067500D03*
%TD*%
D16*
%TO.C,U1*%
X157480000Y-132960000D03*
X157480000Y-130660000D03*
D17*
X151180000Y-130660000D03*
D16*
X157480000Y-128360000D03*
%TD*%
D18*
%TO.C,U2*%
X118140000Y-120260000D03*
X119410000Y-120260000D03*
X120680000Y-120260000D03*
X121950000Y-120260000D03*
X123220000Y-120260000D03*
X124490000Y-120260000D03*
X125760000Y-120260000D03*
X127030000Y-120260000D03*
X128300000Y-120260000D03*
X129570000Y-120260000D03*
X130840000Y-120260000D03*
X132110000Y-120260000D03*
X133380000Y-120260000D03*
X134650000Y-120260000D03*
D19*
X135900000Y-117220000D03*
X135900000Y-115950000D03*
X135900000Y-114680000D03*
X135900000Y-113410000D03*
X135900000Y-112140000D03*
X135900000Y-110870000D03*
X135900000Y-109600000D03*
X135900000Y-108330000D03*
X135900000Y-107060000D03*
X135900000Y-105790000D03*
D18*
X134650000Y-102760000D03*
X133380000Y-102760000D03*
X132110000Y-102760000D03*
X130840000Y-102760000D03*
X129570000Y-102760000D03*
X128300000Y-102760000D03*
X127030000Y-102760000D03*
X125760000Y-102760000D03*
X124490000Y-102760000D03*
X123220000Y-102760000D03*
X121950000Y-102760000D03*
X120680000Y-102760000D03*
X119410000Y-102760000D03*
X118140000Y-102760000D03*
D20*
X124460000Y-114410000D03*
X125860000Y-114410000D03*
X127260000Y-114410000D03*
X124460000Y-113010000D03*
X125860000Y-113010000D03*
X127260000Y-113010000D03*
X124460000Y-111610000D03*
X125860000Y-111610000D03*
X127260000Y-111610000D03*
%TD*%
D21*
%TO.C,D3*%
X163225000Y-132125000D03*
X165100000Y-132125000D03*
%TD*%
D22*
%TO.C,R2*%
X169410000Y-127000000D03*
X167585000Y-127000000D03*
%TD*%
%TO.C,R3*%
X169410000Y-132080000D03*
X167585000Y-132080000D03*
%TD*%
D21*
%TO.C,D8*%
X173052500Y-127000000D03*
X174927500Y-127000000D03*
%TD*%
D15*
%TO.C,R16*%
X167640000Y-119587500D03*
X167640000Y-121412500D03*
%TD*%
D23*
%TO.C,U3*%
X157545000Y-97790000D03*
X157545000Y-99060000D03*
X157545000Y-100330000D03*
X157545000Y-101600000D03*
X162495000Y-101600000D03*
X162495000Y-100330000D03*
X162495000Y-99060000D03*
X162495000Y-97790000D03*
%TD*%
D24*
%TO.C,D4*%
X139700000Y-97125000D03*
X139700000Y-95250000D03*
%TD*%
D22*
%TO.C,R8*%
X178712500Y-127000000D03*
X176887500Y-127000000D03*
%TD*%
D15*
%TO.C,R14*%
X167640000Y-101322500D03*
X167640000Y-103147500D03*
%TD*%
D22*
%TO.C,R9*%
X178712500Y-121920000D03*
X176887500Y-121920000D03*
%TD*%
D15*
%TO.C,R5*%
X144780000Y-91465000D03*
X144780000Y-93290000D03*
%TD*%
D14*
%TO.C,R19*%
X151845000Y-97155000D03*
X153670000Y-97155000D03*
%TD*%
D15*
%TO.C,R4*%
X139700000Y-91465000D03*
X139700000Y-93290000D03*
%TD*%
D14*
%TO.C,R20*%
X151845000Y-115450000D03*
X153670000Y-115450000D03*
%TD*%
D25*
%TO.C,C4*%
X157800000Y-125410000D03*
X159700000Y-125410000D03*
%TD*%
D10*
%TO.C,C3*%
X147320000Y-126050000D03*
X147320000Y-127950000D03*
%TD*%
D14*
%TO.C,R17*%
X151845000Y-102235000D03*
X153670000Y-102235000D03*
%TD*%
D10*
%TO.C,C6*%
X120650000Y-123510000D03*
X120650000Y-125410000D03*
%TD*%
D22*
%TO.C,R10*%
X125372500Y-123190000D03*
X123547500Y-123190000D03*
%TD*%
D26*
%TO.C,D1*%
X174927500Y-132080000D03*
X173052500Y-132080000D03*
%TD*%
D23*
%TO.C,U4*%
X157545000Y-116055000D03*
X157545000Y-117325000D03*
X157545000Y-118595000D03*
X157545000Y-119865000D03*
X162495000Y-119865000D03*
X162495000Y-118595000D03*
X162495000Y-117325000D03*
X162495000Y-116055000D03*
%TD*%
D21*
%TO.C,D9*%
X173052500Y-121920000D03*
X174927500Y-121920000D03*
%TD*%
%TO.C,D6*%
X173052500Y-96520000D03*
X174927500Y-96520000D03*
%TD*%
%TO.C,D2*%
X163170000Y-127000000D03*
X165045000Y-127000000D03*
%TD*%
D24*
%TO.C,D5*%
X144780000Y-97125000D03*
X144780000Y-95250000D03*
%TD*%
D22*
%TO.C,R7*%
X178712500Y-91440000D03*
X176887500Y-91440000D03*
%TD*%
D14*
%TO.C,R18*%
X151845000Y-99695000D03*
X153670000Y-99695000D03*
%TD*%
D13*
%TO.C,R12*%
X182880000Y-115212500D03*
X182880000Y-113387500D03*
%TD*%
D21*
%TO.C,D7*%
X173052500Y-91440000D03*
X174927500Y-91440000D03*
%TD*%
D22*
%TO.C,R6*%
X178712500Y-96520000D03*
X176887500Y-96520000D03*
%TD*%
M02*
