%TF.GenerationSoftware,KiCad,Pcbnew,7.0.7*%
%TF.CreationDate,2023-09-08T15:18:43+02:00*%
%TF.ProjectId,DMX-ArtNET-Gateway,444d582d-4172-4744-9e45-542d47617465,v01*%
%TF.SameCoordinates,Original*%
%TF.FileFunction,Soldermask,Top*%
%TF.FilePolarity,Negative*%
%FSLAX46Y46*%
G04 Gerber Fmt 4.6, Leading zero omitted, Abs format (unit mm)*
G04 Created by KiCad (PCBNEW 7.0.7) date 2023-09-08 15:18:43*
%MOMM*%
%LPD*%
G01*
G04 APERTURE LIST*
G04 Aperture macros list*
%AMRoundRect*
0 Rectangle with rounded corners*
0 $1 Rounding radius*
0 $2 $3 $4 $5 $6 $7 $8 $9 X,Y pos of 4 corners*
0 Add a 4 corners polygon primitive as box body*
4,1,4,$2,$3,$4,$5,$6,$7,$8,$9,$2,$3,0*
0 Add four circle primitives for the rounded corners*
1,1,$1+$1,$2,$3*
1,1,$1+$1,$4,$5*
1,1,$1+$1,$6,$7*
1,1,$1+$1,$8,$9*
0 Add four rect primitives between the rounded corners*
20,1,$1+$1,$2,$3,$4,$5,0*
20,1,$1+$1,$4,$5,$6,$7,0*
20,1,$1+$1,$6,$7,$8,$9,0*
20,1,$1+$1,$8,$9,$2,$3,0*%
G04 Aperture macros list end*
%ADD10R,1.700000X1.700000*%
%ADD11O,1.700000X1.700000*%
%ADD12RoundRect,0.250000X0.450000X-0.262500X0.450000X0.262500X-0.450000X0.262500X-0.450000X-0.262500X0*%
%ADD13RoundRect,0.250000X-0.262500X-0.450000X0.262500X-0.450000X0.262500X0.450000X-0.262500X0.450000X0*%
%ADD14RoundRect,0.250000X-0.450000X0.262500X-0.450000X-0.262500X0.450000X-0.262500X0.450000X0.262500X0*%
%ADD15C,1.524000*%
%ADD16RoundRect,0.243750X-0.243750X-0.456250X0.243750X-0.456250X0.243750X0.456250X-0.243750X0.456250X0*%
%ADD17RoundRect,0.250000X0.262500X0.450000X-0.262500X0.450000X-0.262500X-0.450000X0.262500X-0.450000X0*%
%ADD18C,1.600000*%
%ADD19C,3.400000*%
%ADD20C,2.900000*%
%ADD21RoundRect,0.143300X-0.943700X-0.253700X0.943700X-0.253700X0.943700X0.253700X-0.943700X0.253700X0*%
%ADD22RoundRect,0.243750X-0.456250X0.243750X-0.456250X-0.243750X0.456250X-0.243750X0.456250X0.243750X0*%
%ADD23RoundRect,0.243750X0.243750X0.456250X-0.243750X0.456250X-0.243750X-0.456250X0.243750X-0.456250X0*%
G04 APERTURE END LIST*
D10*
%TO.C,J1*%
X154940000Y-86360000D03*
D11*
X157480000Y-86360000D03*
X160020000Y-86360000D03*
X162560000Y-86360000D03*
X165100000Y-86360000D03*
X167640000Y-86360000D03*
X170180000Y-86360000D03*
X172720000Y-86360000D03*
X175260000Y-86360000D03*
X177800000Y-86360000D03*
%TD*%
D12*
%TO.C,R11*%
X182880000Y-89812500D03*
X182880000Y-87987500D03*
%TD*%
D13*
%TO.C,R22*%
X153050000Y-120470000D03*
X154875000Y-120470000D03*
%TD*%
%TO.C,R21*%
X153050000Y-117960000D03*
X154875000Y-117960000D03*
%TD*%
D14*
%TO.C,R15*%
X167640000Y-114507500D03*
X167640000Y-116332500D03*
%TD*%
D13*
%TO.C,R1*%
X176887500Y-132080000D03*
X178712500Y-132080000D03*
%TD*%
D14*
%TO.C,R13*%
X167640000Y-96242500D03*
X167640000Y-98067500D03*
%TD*%
D15*
%TO.C,TTGO1*%
X119292500Y-85090000D03*
X139612500Y-85090000D03*
X140882500Y-116205000D03*
X140882500Y-113665000D03*
X140882500Y-111125000D03*
X140882500Y-108585000D03*
X140882500Y-106045000D03*
X140882500Y-103505000D03*
X140882500Y-100965000D03*
X140882500Y-98425000D03*
X140882500Y-95885000D03*
X140882500Y-93345000D03*
X140882500Y-90805000D03*
X140882500Y-88265000D03*
X118022500Y-88265000D03*
X118022500Y-90805000D03*
X118022500Y-93345000D03*
X118022500Y-95885000D03*
X118022500Y-98425000D03*
X118022500Y-100965000D03*
X118022500Y-103505000D03*
X118022500Y-106045000D03*
X118022500Y-108585000D03*
X118022500Y-111125000D03*
X118022500Y-113665000D03*
X118022500Y-116205000D03*
%TD*%
D16*
%TO.C,D3*%
X163225000Y-132125000D03*
X165100000Y-132125000D03*
%TD*%
D17*
%TO.C,R2*%
X169410000Y-127000000D03*
X167585000Y-127000000D03*
%TD*%
%TO.C,R3*%
X169410000Y-132080000D03*
X167585000Y-132080000D03*
%TD*%
D18*
%TO.C,J3*%
X195580000Y-125580000D03*
X200660000Y-117960000D03*
D19*
X191770000Y-117960000D03*
X191135000Y-125580000D03*
D20*
X187320000Y-121770000D03*
X197490000Y-113520000D03*
%TD*%
D16*
%TO.C,D8*%
X173052500Y-127000000D03*
X174927500Y-127000000D03*
%TD*%
D14*
%TO.C,R16*%
X167640000Y-119587500D03*
X167640000Y-121412500D03*
%TD*%
D21*
%TO.C,U3*%
X158457500Y-97790000D03*
X158457500Y-99060000D03*
X158457500Y-100330000D03*
X158457500Y-101600000D03*
X163407500Y-101600000D03*
X163407500Y-100330000D03*
X163407500Y-99060000D03*
X163407500Y-97790000D03*
%TD*%
D22*
%TO.C,D4*%
X146050000Y-89232500D03*
X146050000Y-91107500D03*
%TD*%
D17*
%TO.C,R8*%
X178712500Y-127000000D03*
X176887500Y-127000000D03*
%TD*%
D14*
%TO.C,R14*%
X167640000Y-101322500D03*
X167640000Y-103147500D03*
%TD*%
D17*
%TO.C,R9*%
X178712500Y-121920000D03*
X176887500Y-121920000D03*
%TD*%
D12*
%TO.C,R5*%
X149860000Y-96162500D03*
X149860000Y-94337500D03*
%TD*%
D13*
%TO.C,R19*%
X152757500Y-97155000D03*
X154582500Y-97155000D03*
%TD*%
D12*
%TO.C,R4*%
X146050000Y-96162500D03*
X146050000Y-94337500D03*
%TD*%
D13*
%TO.C,R20*%
X153050000Y-115450000D03*
X154875000Y-115450000D03*
%TD*%
%TO.C,R17*%
X152757500Y-102235000D03*
X154582500Y-102235000D03*
%TD*%
D23*
%TO.C,D1*%
X174927500Y-132080000D03*
X173052500Y-132080000D03*
%TD*%
D21*
%TO.C,U4*%
X158750000Y-116055000D03*
X158750000Y-117325000D03*
X158750000Y-118595000D03*
X158750000Y-119865000D03*
X163700000Y-119865000D03*
X163700000Y-118595000D03*
X163700000Y-117325000D03*
X163700000Y-116055000D03*
%TD*%
D16*
%TO.C,D9*%
X173052500Y-121920000D03*
X174927500Y-121920000D03*
%TD*%
%TO.C,D6*%
X173052500Y-96520000D03*
X174927500Y-96520000D03*
%TD*%
%TO.C,D2*%
X163170000Y-127000000D03*
X165045000Y-127000000D03*
%TD*%
D22*
%TO.C,D5*%
X149860000Y-89232500D03*
X149860000Y-91107500D03*
%TD*%
D17*
%TO.C,R7*%
X178712500Y-91440000D03*
X176887500Y-91440000D03*
%TD*%
D13*
%TO.C,R18*%
X152757500Y-99695000D03*
X154582500Y-99695000D03*
%TD*%
D12*
%TO.C,R12*%
X182880000Y-129540000D03*
X182880000Y-127715000D03*
%TD*%
D16*
%TO.C,D7*%
X173052500Y-91440000D03*
X174927500Y-91440000D03*
%TD*%
D17*
%TO.C,R6*%
X178712500Y-96520000D03*
X176887500Y-96520000D03*
%TD*%
D18*
%TO.C,J2*%
X195580000Y-99060000D03*
X200660000Y-91440000D03*
D19*
X191770000Y-91440000D03*
X191135000Y-99060000D03*
D20*
X187320000Y-95250000D03*
X197490000Y-87000000D03*
%TD*%
M02*
